<svg fill="none" version="1.1" viewBox="0 0 21 21" xmlns="http://www.w3.org/2000/svg">
 <g clip-path="url(#clip0_136_26)">
  <path d="m7.3035 3.972c0.26477-0.27403 0.70543-0.27403 0.97945 0 0.26477 0.26476 0.26477 0.70542 0 0.96957l-4.9664 4.9664h16.388c0.3821 6.2e-4 0.6857 0.30426 0.6857 0.68626 0 0.3821-0.3036 0.6956-0.6857 0.6956h-16.388l4.9664 4.9571c0.26477 0.274 0.26477 0.7153 0 0.9794-0.27402 0.2741-0.7153 0.2741-0.97945 0l-6.1421-6.142c-0.27403-0.2648-0.27403-0.7055 0-0.9696l6.1421-6.1427z" fill="#90979C"/>
 </g>
 <defs>
  <clipPath id="clip0_136_26">
   <rect transform="matrix(-1 0 0 1 20.391 .88184)" width="19.435" height="19.435" fill="#fff"/>
  </clipPath>
 </defs>
</svg>
