<svg fill="none" version="1.1" viewBox="0 0 50 50" xmlns="http://www.w3.org/2000/svg">
 <g clip-path="url(#clip0_136_108)">
  <path d="m25 50c13.807 0 25-11.193 25-25s-11.193-25-25-25-25 11.193-25 25 11.193 25 25 25z" fill="url(#paint0_linear_136_108)"/>
  <path d="m14.062 15.394v19.252c3.6558-0.5234 7.5538 0.0734 11.23 1.7073v-19.252c-3.6765-1.634-7.5746-2.2305-11.23-1.7073zm9.5752 17.549c-2.48-1.1711-5.0979-1.6026-7.5712-1.2496l-0.1383-0.9665c2.6612-0.381 5.4726 0.0801 8.1262 1.333l-0.4167 0.8831zm0-3.9146c-2.48-1.1709-5.0979-1.6034-7.5712-1.2496l-0.1383-0.9665c2.6612-0.3812 5.4722 0.0799 8.1262 1.333l-0.4167 0.8831zm0-3.9146c-2.48-1.1708-5.0979-1.6029-7.5712-1.2495l-0.1383-0.9666c2.6612-0.3809 5.4726 0.0799 8.1262 1.333l-0.4167 0.8831zm0.4167-4.7979-0.4167 0.8831c-2.4805-1.1714-5.0974-1.6027-7.5712-1.2493l-0.1383-0.9665c2.6612-0.3806 5.4722 0.0796 8.1262 1.3327z" fill="#000" opacity=".3"/>
  <path d="m33.856 15.249v7.381l-2.2152-1.6614-2.2151 1.6614v-6.6529c-1.0625 0.294-2.1185 0.6632-3.1561 1.1243v19.252c3.6765-1.634 7.5747-2.2307 11.231-1.7074v-19.252c-1.194-0.1708-2.4148-0.2101-3.6442-0.145z" fill="#000" opacity=".3"/>
  <path d="m13.281 14.612v19.252c3.6558-0.5233 7.5538 0.0734 11.23 1.7073v-19.252c-3.6764-1.6339-7.5745-2.2304-11.23-1.7073zm9.5753 17.549c-2.4801-1.171-5.0979-1.6026-7.5712-1.2495l-0.1383-0.9666c2.6612-0.3809 5.4726 0.0802 8.1262 1.333l-0.4167 0.8831zm0-3.9146c-2.4801-1.1708-5.0979-1.6033-7.5712-1.2495l-0.1383-0.9665c2.6612-0.3813 5.4721 0.0798 8.1262 1.333l-0.4167 0.883zm0-3.9146c-2.4801-1.1708-5.0979-1.6028-7.5712-1.2494l-0.1383-0.9666c2.6612-0.381 5.4726 0.0798 8.1262 1.333l-0.4167 0.883zm0.4167-4.7978-0.4167 0.8831c-2.4806-1.1714-5.0974-1.6027-7.5712-1.2493l-0.1383-0.9666c2.6612-0.3805 5.4721 0.0796 8.1262 1.3328z" fill="#fff"/>
  <path d="m33.075 14.467v7.3811l-2.2152-1.6615-2.2151 1.6615v-6.6529c-1.0624 0.294-2.1184 0.6631-3.156 1.1242v19.252c3.6765-1.634 7.5747-2.2307 11.231-1.7074-1e-4 -6.4173-1e-4 -12.835 0-19.252-1.194-0.1709-2.4148-0.2102-3.6443-0.1451z" fill="#fff"/>
 </g>
 <defs>
  <linearGradient id="paint0_linear_136_108" x1="-2.6367e-7" x2="50" y1="25" y2="25" gradientUnits="userSpaceOnUse">
   <stop stop-color="#00C0F3" offset="0"/>
   <stop stop-color="#3997D3" offset="1"/>
  </linearGradient>
  <clipPath id="clip0_136_108">
   <rect width="50" height="50" fill="#fff"/>
  </clipPath>
 </defs>
</svg>
