<svg fill="none" version="1.1" viewBox="0 0 50 50" xmlns="http://www.w3.org/2000/svg">
 <g clip-path="url(#clip0_136_101)">
  <path d="m25 50c13.807 0 25-11.193 25-25s-11.193-25-25-25-25 11.193-25 25 11.193 25 25 25z" fill="url(#paint0_linear_136_101)"/>
  <path d="m36.524 33.518h-1.3937v-11.184h1.9301l-11.278-8.271-11.278 8.271h1.93v11.184h-1.3934c-0.5394 0-0.9765 0.4371-0.9765 0.9765v3.0041h23.435v-3.0041c0-0.5394-0.4371-0.9765-0.9764-0.9765zm-2.3702 0h-2.5673v-11.184h2.5673v11.184zm-9.6549-11.184h2.5673v11.184h-2.5673v-11.184zm-0.9765 11.184h-2.5672v-11.184h2.5672v11.184zm4.5203-11.184h2.5673v11.184h-2.5673v-11.184zm-2.26-4.9098c0.8314 0 1.5054 0.6678 1.5054 1.4915 0 0.8236-0.674 1.4914-1.5054 1.4914-0.8315 0-1.5054-0.6678-1.5054-1.4914 0-0.8237 0.6739-1.4915 1.5054-1.4915zm-8.3713 4.9098h2.5672v11.184h-2.5672v-11.184z" fill="#000" opacity=".3"/>
  <path d="m35.742 32.737h-1.3937v-11.184h1.9302l-11.278-8.271-11.278 8.271h1.9299v11.184h-1.3934c-0.5393 0-0.9765 0.4372-0.9765 0.9765v3.0042h23.436v-3.0042c0-0.5393-0.4372-0.9765-0.9765-0.9765zm-2.3702 0h-2.5672v-11.184h2.5672v11.184zm-9.6548-11.184h2.5673v11.184h-2.5673v-11.184zm-0.9765 11.184h-2.5673v-11.184h2.5673v11.184zm4.5203-11.184h2.5672v11.184h-2.5672v-11.184zm-2.26-4.9098c0.8314 0 1.5053 0.6679 1.5053 1.4915 0 0.8237-0.6739 1.4914-1.5053 1.4914-0.8315 0-1.5055-0.6677-1.5055-1.4914 0-0.8236 0.674-1.4915 1.5055-1.4915zm-8.3714 4.9098h2.5673v11.184h-2.5673v-11.184z" fill="#fff"/>
 </g>
 <defs>
  <linearGradient id="paint0_linear_136_101" x1="-2.6367e-7" x2="50" y1="25" y2="25" gradientUnits="userSpaceOnUse">
   <stop stop-color="#00C0F3" offset="0"/>
   <stop stop-color="#3997D3" offset="1"/>
  </linearGradient>
  <clipPath id="clip0_136_101">
   <rect width="50" height="50" fill="#fff"/>
  </clipPath>
 </defs>
</svg>
