<svg fill="none" version="1.1" viewBox="0 0 50 50" xmlns="http://www.w3.org/2000/svg">
 <g clip-path="url(#clip0_1_1685)">
  <path d="m25 50c13.807 0 25-11.193 25-25s-11.193-25-25-25-25 11.193-25 25 11.193 25 25 25z" fill="url(#paint0_linear_1_1685)"/>
  <g fill="#fff">
   <path d="m17.383 35.756h20.373v-3.0062l-2.3359-4.4078-1.3812 0.7312 2.1531 4.0625v1.0563h-3.4531l0.8125-9.75h-17.347l1.1781 11.314zm14.483-9.75-0.6906 8.186h-12.391l-0.8532-8.186h13.934z"/>
   <path d="m30.444 17.719c0-3.0063-2.4375-5.4438-5.4438-5.4438-3.0062 0-5.4437 2.4375-5.4437 5.4438 0 3.0062 2.4375 5.4437 5.4437 5.4437 3.0063 0 5.4438-2.4375 5.4438-5.4437zm-9.3438 0c0-2.1532 1.7469-3.9 3.9-3.9 2.1532 0 3.9 1.7468 3.9 3.9 0 2.1531-1.7468 3.9-3.9 3.9-2.1531 0-3.9-1.7469-3.9-3.9z"/>
   <path d="m15.941 29.094-1.3812-0.7312-2.336 4.3875v3.0062h3.4328v-1.5437h-1.8687v-1.0563l2.1531-4.0625z"/>
   <path d="m24.797 30.719c0.4487 0 0.8125-0.3638 0.8125-0.8126 0-0.4487-0.3638-0.8124-0.8125-0.8124-0.4488 0-0.8125 0.3637-0.8125 0.8124 0 0.4488 0.3637 0.8126 0.8125 0.8126z"/>
  </g>
 </g>
 <defs>
  <linearGradient id="paint0_linear_1_1685" x1="-2.6367e-7" x2="50" y1="25" y2="25" gradientUnits="userSpaceOnUse">
   <stop stop-color="#00C0F3" offset="0"/>
   <stop stop-color="#3997D3" offset="1"/>
  </linearGradient>
  <clipPath id="clip0_1_1685">
   <rect width="50" height="50" fill="#fff"/>
  </clipPath>
 </defs>
</svg>
