<svg fill="none" version="1.1" viewBox="0 0 50 50" xmlns="http://www.w3.org/2000/svg">
 <g clip-path="url(#clip0_1_1671)">
  <path d="m25 50c13.807 0 25-11.193 25-25s-11.193-25-25-25-25 11.193-25 25 11.193 25 25 25z" fill="url(#paint0_linear_1_1671)"/>
  <g clip-path="url(#clip1_1_1671)" stroke="#fff" stroke-linejoin="round" stroke-miterlimit="10" stroke-width="2">
   <path d="m25.812 36.188h-1.625c-0.8978 0-1.625-0.7272-1.625-1.625v-1.625h4.875v1.625c0 0.8978-0.7272 1.625-1.625 1.625z"/>
   <path d="m30.688 24c0 2.0459-0.9636 3.9723-2.6 5.2l-0.65 0.4875v3.25h-4.875v-3.25l-0.65-0.4875c-1.6364-1.2277-2.6-3.1541-2.6-5.2 0-3.1411 2.5464-5.6875 5.6875-5.6875s5.6875 2.5464 5.6875 5.6875z"/>
   <path d="m25 15.875v-3.25"/>
   <path d="m19.256 18.255-2.2986-2.2986"/>
   <path d="m30.744 18.255 2.2985-2.2986"/>
   <path d="m16.875 24h-3.25"/>
   <path d="m33.125 24h3.25"/>
  </g>
 </g>
 <defs>
  <linearGradient id="paint0_linear_1_1671" x1="-2.6367e-7" x2="50" y1="25" y2="25" gradientUnits="userSpaceOnUse">
   <stop stop-color="#00C0F3" offset="0"/>
   <stop stop-color="#3997D3" offset="1"/>
  </linearGradient>
  <clipPath id="clip0_1_1671">
   <rect width="50" height="50" fill="#fff"/>
  </clipPath>
  <clipPath id="clip1_1_1671">
   <rect transform="translate(12 11)" width="26" height="26" fill="#fff"/>
  </clipPath>
 </defs>
</svg>
