<svg fill="none" version="1.1" viewBox="0 0 50 50" xmlns="http://www.w3.org/2000/svg">
 <g clip-path="url(#clip0_1_1696)">
  <path d="m25 50c13.807 0 25-11.193 25-25s-11.193-25-25-25-25 11.193-25 25 11.193 25 25 25z" fill="url(#paint0_linear_1_1696)"/>
  <path d="m31.273 32.742c-0.1172 0.6797-0.7031 1.1484-1.3828 1.1484h-10.922v1.875h10.922c1.5938 0 2.9532-1.1484 3.2344-2.6953l1.5-8.4375c0.1641-0.9609-0.0938-1.9453-0.7031-2.6719-0.6328-0.75-1.5469-1.1719-2.5078-1.1719h-3.7266c0.2812-0.8671 0.6563-2.1328 0.9609-3.7968l0.1407-0.9844c0.2109-1.5469-0.8672-2.9531-2.3907-3.1641-0.75-0.0937-1.4765 0.0938-2.0859 0.5391s-0.9844 1.125-1.1016 1.8516l-0.1406 0.9375c-0.0234 0.1172-0.0469 0.2343-0.0469 0.3515-0.0234 0.1172-0.0468 0.2344-0.0703 0.3516-0.7265 3.4219-3.4453 6.1875-6.9609 7.0781l-1.2422 0.3047v11.508h1.875v-10.055c4.1016-1.1015 7.3125-4.3828 8.1797-8.4375 0.0234-0.1406 0.0469-0.2812 0.0937-0.4219 0.0235-0.1406 0.0469-0.2812 0.0704-0.4218l0.1406-0.9375c0.0234-0.2578 0.164-0.4688 0.375-0.6094 0.2109-0.1406 0.4453-0.2109 0.7031-0.1875 0.5156 0.0703 0.8672 0.5391 0.7969 1.0547l-0.1172 0.914c-0.4922 2.7188-1.1719 4.2891-1.2891 4.5938l-0.0703 0.1875v1.2187h5.9766c0.4218 0 0.8203 0.1875 1.0781 0.4922 0.2578 0.3282 0.375 0.75 0.3047 1.1485l-1.5938 8.4375z" fill="#fff"/>
 </g>
 <defs>
  <linearGradient id="paint0_linear_1_1696" x1="-2.6367e-7" x2="50" y1="25" y2="25" gradientUnits="userSpaceOnUse">
   <stop stop-color="#00C0F3" offset="0"/>
   <stop stop-color="#3997D3" offset="1"/>
  </linearGradient>
  <clipPath id="clip0_1_1696">
   <rect width="50" height="50" fill="#fff"/>
  </clipPath>
 </defs>
</svg>
