<svg fill="none" version="1.1" viewBox="0 0 50 50" xmlns="http://www.w3.org/2000/svg">
 <g clip-path="url(#clip0_136_88)">
  <path d="m25 50c13.807 0 25-11.193 25-25s-11.193-25-25-25-25 11.193-25 25 11.193 25 25 25z" fill="url(#paint0_linear_136_88)"/>
  <g fill="#000">
   <path d="m23.592 20.675c-1.0416-2.2039-2.0832-4.4079-3.1249-6.6117l-6.4021 0.0266c1.5515 3.2827 3.103 6.5656 4.6546 9.8483 1.2014-1.587 2.9058-2.7555 4.8724-3.2632z" opacity=".3"/>
   <path d="m32.846 23.935c1.551-3.2815 3.1019-6.5632 4.6529-9.8446l-6.4022-0.0266c-1.0415 2.2035-2.0829 4.4071-3.1244 6.6108 1.9668 0.5067 3.6716 1.6742 4.8737 3.2604z" opacity=".3"/>
   <path d="m25.785 21.364c-4.3837 0-7.9373 3.6119-7.9373 8.0677 0 4.4556 3.5536 8.0677 7.9373 8.0677s7.9374-3.6121 7.9374-8.0677c0-4.4558-3.5537-8.0677-7.9374-8.0677zm2.7187 12.111-2.7187-1.3106-2.7187 1.3106 0.3862-3.033-2.0665-2.2232 2.9574-0.5639 1.4416-2.6847 1.4416 2.6847 2.9573 0.5639-2.0664 2.2232 0.3862 3.033z" opacity=".3"/>
  </g>
  <g fill="#fff">
   <path d="m22.81 19.894c-1.0417-2.2038-2.0833-4.4078-3.1249-6.6117l-6.4022 0.0266c1.5516 3.2827 3.1031 6.5656 4.6546 9.8484 1.2014-1.5871 2.9058-2.7555 4.8725-3.2633z"/>
   <path d="m32.065 23.153c1.5509-3.2815 3.1019-6.5632 4.6529-9.8446l-6.4022-0.0266-3.1245 6.6108c1.9669 0.5067 3.6717 1.6743 4.8738 3.2604z"/>
   <path d="m25.004 20.582c-4.3837 0-7.9374 3.6119-7.9374 8.0677 0 4.4557 3.5537 8.0678 7.9374 8.0678 4.3836 0 7.9373-3.6121 7.9373-8.0678 0-4.4558-3.5537-8.0677-7.9373-8.0677zm2.7186 12.111-2.7186-1.3106-2.7187 1.3106 0.3861-3.033-2.0664-2.2232 2.9574-0.5639 1.4416-2.6846 1.4415 2.6846 2.9574 0.5639-2.0664 2.2232 0.3861 3.033z"/>
  </g>
 </g>
 <defs>
  <linearGradient id="paint0_linear_136_88" x1="-2.6367e-7" x2="50" y1="25" y2="25" gradientUnits="userSpaceOnUse">
   <stop stop-color="#00C0F3" offset="0"/>
   <stop stop-color="#3997D3" offset="1"/>
  </linearGradient>
  <clipPath id="clip0_136_88">
   <rect width="50" height="50" fill="#fff"/>
  </clipPath>
 </defs>
</svg>
