<svg version="1.1" viewBox="0 0 158 158" xmlns="http://www.w3.org/2000/svg">
 <path d="m53.383 154.49-50.185-50.188c-2.0472-2.048-3.1973-4.8244-3.1973-7.7199 0-2.8954 1.1501-5.6723 3.1973-7.7198l52.167-52.159c2.0286-2.0285 4.7736-3.1779 7.6424-3.1999l50.824-0.3671c1.452-0.0106 2.891 0.2685 4.234 0.8208s2.562 1.3669 3.586 2.396 1.832 2.252 2.378 3.5973c0.546 1.3454 0.817 2.786 0.8 4.2377l-0.617 50.522c-0.033 2.8501-1.181 5.5737-3.198 7.5877l-52.2 52.2c-2.0486 2.043-4.8242 3.19-7.7175 3.188-2.8932-1e-3 -5.6676-1.151-7.7141-3.196z" fill="#FAA307"/>
 <path d="m154.48 65.707-35.156-36.021c-1.01-1.0345-2.216-1.8573-3.548-2.4203-1.331-0.5629-2.762-0.8547-4.207-0.8582-1.446-0.0036-2.878 0.2812-4.212 0.8376-1.335 0.5564-2.545 1.3733-3.56 2.4029l-35.534 36.051c-2.0054 2.0349-3.1295 4.7772-3.1293 7.6342v73.479c0 2.885 1.1458 5.651 3.1852 7.69 2.0395 2.04 4.8056 3.185 7.6898 3.185h70.687c2.885 0 5.651-1.145 7.69-3.185 2.04-2.039 3.185-4.805 3.185-7.69v-73.509c1e-3 -2.8384-1.109-5.5645-3.091-7.5961zm-43.127 15.856c-2.689 0-5.317-0.7973-7.553-2.291-2.235-1.4937-3.9775-3.6167-5.0064-6.1006-1.0289-2.484-1.2981-5.2172-0.7736-7.8542 0.5245-2.6369 1.8192-5.0591 3.72-6.9602 1.901-1.9011 4.324-3.1958 6.961-3.7203 2.636-0.5245 5.37-0.2553 7.854 0.7736 2.484 1.0288 4.607 2.7712 6.1 5.0067 1.494 2.2355 2.291 4.8637 2.291 7.5523 0 3.6052-1.432 7.0629-3.981 9.6122-2.55 2.5493-6.007 3.9815-9.612 3.9815z" fill="#FFD100"/>
 <path d="m111.35 0c-9.099 0.0067452-17.858 3.4551-24.52 9.6528-6.6617 6.1977-10.732 14.686-11.395 23.761l8.1834-0.0815c0.6918-7.123 4.0977-13.707 9.5119-18.387 5.4141-4.68 12.421-7.0975 19.569-6.7515s13.889 3.4291 18.826 8.6103c4.937 5.1811 7.691 12.063 7.691 19.22-8e-3 5.0112-1.366 9.9275-3.93 14.233-2.564 4.3055-6.24 7.8411-10.642 10.236-0.49 0.2719-0.979 0.5166-1.468 0.7612-3.701 1.7368-7.739 2.6372-11.827 2.6372s-8.126-0.9004-11.826-2.6372c-1.1575 2.049-1.7662 4.3621-1.7672 6.7154-7e-4 0.4814 0.0266 0.9626 0.0816 1.4409 4.288 1.7545 8.879 2.6505 13.512 2.6372 4.503 0.0093 8.967-0.83 13.159-2.4741 0.109-0.0544 0.245-0.0816 0.353-0.1359 7.751-3.1368 14.17-8.8713 18.157-16.221 3.986-7.3498 5.293-15.857 3.696-24.065-1.597-8.2075-5.999-15.604-12.451-20.922-6.452-5.3184-14.552-8.2275-22.914-8.2289z" fill="#212529"/>
 <g fill="#fff">
  <path d="m103.88 108.75c4.504 0 8.156-3.652 8.156-8.156 0-4.5048-3.652-8.1565-8.156-8.1565-4.5048 0-8.1564 3.6517-8.1564 8.1565 0 4.504 3.6516 8.156 8.1564 8.156z"/>
  <path d="m136.51 141.38c4.504 0 8.156-3.652 8.156-8.156 0-4.505-3.652-8.157-8.156-8.157-4.505 0-8.156 3.652-8.156 8.157 0 4.504 3.651 8.156 8.156 8.156z"/>
  <path d="m99.806 137.3c-0.5342-0.534-0.9576-1.169-1.2457-1.867-0.2881-0.699-0.4352-1.448-0.4329-2.204 0.0023-0.755 0.1539-1.503 0.4462-2.2s0.7194-1.329 1.2569-1.86l32.834-32.416c1.026-0.9905 2.4-1.5385 3.825-1.5261 1.426 0.0124 2.79 0.5842 3.798 1.5924 1.008 1.0081 1.58 2.3719 1.592 3.7977 0.013 1.426-0.535 2.799-1.526 3.825l-32.416 32.834c-0.531 0.537-1.163 0.965-1.86 1.257s-1.445 0.444-2.2 0.446c-0.756 2e-3 -1.505-0.145-2.203-0.433-0.699-0.288-1.334-0.711-1.8684-1.246z"/>
  <path d="m69.761 142.84c-3.4248 0-6.4099-0.463-8.9554-1.389s-4.6744-2.199-6.3868-3.82c-1.6661-1.62-2.962-3.518-3.8876-5.694-0.9256-2.222-1.481-4.607-1.6661-7.153-0.0463-1.25-0.0926-2.731-0.1388-4.444v-5.139c0.0462-1.759 0.0925-3.287 0.1388-4.583 0.1851-2.547 0.7405-4.885 1.6661-7.014 0.9719-2.176 2.3372-4.0513 4.0959-5.6254 1.7587-1.6203 3.8876-2.8703 6.3868-3.75 2.4991-0.9259 5.4148-1.3888 8.7471-1.3888 3.2859 0 6.1785 0.4629 8.6777 1.3888 2.5454 0.8797 4.6743 2.1297 6.3867 3.75 1.7587 1.5741 3.1009 3.4494 4.0265 5.6254 0.9719 2.129 1.5504 4.467 1.7355 7.014 0.0926 1.296 0.1389 2.824 0.1389 4.583v5.139c0 1.713-0.0463 3.194-0.1389 4.444-0.1851 2.546-0.7405 4.931-1.6661 7.153-0.8793 2.176-2.1752 4.074-3.8876 5.694-1.7124 1.621-3.8413 2.894-6.3868 3.82-2.5454 0.926-5.5074 1.389-8.8859 1.389zm0-11.875c1.8512 0 3.1702-0.602 3.957-1.806 0.8331-1.204 1.2959-2.778 1.3884-4.722 0.0463-1.343 0.0695-2.801 0.0695-4.375 0.0462-1.574 0.0462-3.148 0-4.722 0-1.621-0.0232-3.056-0.0695-4.306-0.0925-1.852-0.5322-3.379-1.319-4.583-0.7868-1.25-2.1289-1.898-4.0264-1.945-1.8975 0.047-3.2397 0.695-4.0265 1.945-0.7867 1.204-1.2264 2.731-1.319 4.583-0.0463 1.25-0.0925 2.685-0.1388 4.306v4.722c0.0463 1.574 0.0925 3.032 0.1388 4.375 0.0926 1.944 0.5323 3.518 1.319 4.722 0.8331 1.204 2.1752 1.806 4.0265 1.806z"/>
 </g>
</svg>
