<svg fill="none" version="1.1" viewBox="0 0 50 50" xmlns="http://www.w3.org/2000/svg">
 <g clip-path="url(#clip0_1_1704)">
  <path d="m25 50c13.807 0 25-11.193 25-25s-11.193-25-25-25-25 11.193-25 25 11.193 25 25 25z" fill="url(#paint0_linear_1_1704)"/>
  <g clip-path="url(#clip1_1_1704)" fill="#fff">
   <path d="m30.484 21.141h-1.625v5.6875h-2.0313v9.3438h-2.4375v-9.3438h-2.0312v-5.6875h-1.625v7.3125h2.0312v9.3438h5.6875v-9.3438h2.0313v-7.3125z"/>
   <path d="m22.766 15.047c0 1.5641 1.2797 2.8437 2.8438 2.8437 1.564 0 2.8437-1.2796 2.8437-2.8437s-1.2797-2.8438-2.8437-2.8438c-1.5641 0-2.8438 1.2797-2.8438 2.8438zm4.0625 0c0 0.6703-0.5484 1.2187-1.2187 1.2187s-1.2188-0.5484-1.2188-1.2187 0.5485-1.2188 1.2188-1.2188 1.2187 0.5485 1.2187 1.2188z"/>
   <path d="m15.859 17.078c0 1.5641 1.2797 2.8438 2.8437 2.8438 1.5641 0 2.8438-1.2797 2.8438-2.8438 0-1.564-1.2797-2.8437-2.8438-2.8437-1.564 0-2.8437 1.2797-2.8437 2.8437zm4.0625 0c0 0.6704-0.5485 1.2188-1.2188 1.2188s-1.2187-0.5484-1.2187-1.2188c0-0.6703 0.5484-1.2187 1.2187-1.2187s1.2188 0.5484 1.2188 1.2187z"/>
   <path d="m34.953 28.86h-2.0312v7.3125h-3.25v1.625h4.875v-7.3125h2.0312v-8.125h-1.625v6.5z"/>
   <path d="m29.672 17.078c0 1.5641 1.2797 2.8438 2.8437 2.8438 1.5641 0 2.8438-1.2797 2.8438-2.8438 0-1.564-1.2797-2.8437-2.8438-2.8437-1.564 0-2.8437 1.2797-2.8437 2.8437zm2.8437-1.2187c0.6703 0 1.2188 0.5484 1.2188 1.2187 0 0.6704-0.5485 1.2188-1.2188 1.2188s-1.2187-0.5484-1.2187-1.2188c0-0.6703 0.5484-1.2187 1.2187-1.2187z"/>
   <path d="m18.297 28.86h-2.0313v-6.5h-1.625v8.125h2.0313v7.3125h4.875v-1.625h-3.25v-7.3125z"/>
  </g>
 </g>
 <defs>
  <linearGradient id="paint0_linear_1_1704" x1="-2.6367e-7" x2="50" y1="25" y2="25" gradientUnits="userSpaceOnUse">
   <stop stop-color="#00C0F3" offset="0"/>
   <stop stop-color="#3997D3" offset="1"/>
  </linearGradient>
  <clipPath id="clip0_1_1704">
   <rect width="50" height="50" fill="#fff"/>
  </clipPath>
  <clipPath id="clip1_1_1704">
   <rect transform="translate(12 12)" width="26" height="26" fill="#fff"/>
  </clipPath>
 </defs>
</svg>
