<svg fill="none" version="1.1" viewBox="0 0 50 50" xmlns="http://www.w3.org/2000/svg">
 <g clip-path="url(#clip0_1_421)">
  <path d="m25 50c13.807 0 25-11.193 25-25s-11.193-25-25-25-25 11.193-25 25 11.193 25 25 25z" fill="url(#paint0_linear_1_421)"/>
  <path d="m22.766 14.641h-9.3437v0.8125c0 11.639 9.4859 21.125 21.125 21.125h0.8125v-9.3438h-8.4094l-3.9406 3.9407c-1.7469-1.3-3.2703-2.8641-4.5094-4.6719l4.2656-4.2656v-7.5969zm4.8547 14.219h6.1141v6.0735c-3.4125-0.1422-6.6016-1.1578-9.3438-2.8438l3.2297-3.2297zm-6.4797-7.2922-3.5343 3.5344c-1.5032-2.6203-2.4172-5.6265-2.5391-8.8359h6.0734v5.3015z" fill="#fff"/>
 </g>
 <defs>
  <linearGradient id="paint0_linear_1_421" x1="-2.6367e-7" x2="50" y1="25" y2="25" gradientUnits="userSpaceOnUse">
   <stop stop-color="#00C0F3" offset="0"/>
   <stop stop-color="#3997D3" offset="1"/>
  </linearGradient>
  <clipPath id="clip0_1_421">
   <rect width="50" height="50" fill="#fff"/>
  </clipPath>
 </defs>
</svg>
