<svg version="1.1" viewBox="0 0 180 180" xmlns="http://www.w3.org/2000/svg">
 <path d="m154.69 64.688h-129.38c-1.4918 0-2.9226 0.5926-3.9775 1.6475s-1.6475 2.4857-1.6475 3.9775v95.626h140.62v-95.626c0-1.4918-0.592-2.9226-1.647-3.9775s-2.486-1.6475-3.977-1.6475z" fill="#DFDFDF"/>
 <path d="m98.992 165.94h61.32v-53.485c-12.617 25.194-34.645 44.408-61.32 53.485z" fill="#BEBEBE"/>
 <path d="M56.25 90H45V109.688H135V90H56.25Z" fill="#31C292"/>
 <path d="m64.688 8.4375c-1.108 0-2.2052 0.21824-3.2289 0.64226s-1.9538 1.0455-2.7373 1.829-1.405 1.7136-1.829 2.7373c-0.4241 1.0237-0.6423 2.1209-0.6423 3.2289v81.562h67.5v-81.562c0-1.108 0.218-2.2052 0.642-3.2289s1.046-1.9538 1.829-2.7373c0.784-0.7835 1.714-1.405 2.738-1.829 1.023-0.42402 2.12-0.64226 3.229-0.64226h-67.5z" fill="#338DBF"/>
 <path d="m140.62 45v-28.125c0-2.2378-0.889-4.3839-2.471-5.9662-1.583-1.5824-3.729-2.4713-5.966-2.4713-2.238 0-4.384 0.88895-5.967 2.4713-1.582 1.5823-2.471 3.7284-2.471 5.9662v36.562h25.312c-1.108 0-2.205-0.2182-3.228-0.6423-1.024-0.424-1.954-1.0455-2.738-1.829-0.783-0.7835-1.405-1.7136-1.829-2.7373s-0.642-2.1209-0.642-3.2289z" fill="#0071AF"/>
 <path d="m164.53 16.875c1.865 0 3.653 0.7408 4.972 2.0594s2.059 3.107 2.059 4.9718v15.469h-14.062v-15.469c0-1.8648 0.741-3.6532 2.059-4.9718 1.319-1.3186 3.107-2.0594 4.972-2.0594z" fill="#00A16C"/>
 <path d="m165.94 171.56h-151.88c-1.4918 0-2.9226-0.592-3.9775-1.647-1.0549-1.055-1.6475-2.486-1.6475-3.977v-11.25h62.358c0.7387-1e-3 1.4702 0.145 2.1526 0.428 0.6825 0.282 1.3026 0.697 1.8249 1.219l2.33 2.33c0.5223 0.522 1.1424 0.937 1.8249 1.219 0.6824 0.283 1.4139 0.428 2.1526 0.428h17.84c0.7386 0 1.4699-0.145 2.1529-0.428 0.682-0.282 1.302-0.697 1.825-1.219l2.329-2.33c1.055-1.055 2.486-1.647 3.978-1.647h62.357v11.25c0 1.491-0.592 2.922-1.647 3.977s-2.486 1.647-3.977 1.647z" fill="#BEBEBE"/>
 <path d="m140.62 16.875v28.125c0 2.2378 0.889 4.3839 2.471 5.9662 1.583 1.5824 3.729 2.4713 5.966 2.4713 2.238 0 4.384-0.8889 5.967-2.4713 1.582-1.5823 2.471-3.7284 2.471-5.9662v-21.094c0-1.8648 0.741-3.6532 2.059-4.9718 1.319-1.3186 3.107-2.0594 4.972-2.0594h-23.906z" fill="#5CA4CC"/>
 <path d="m164.53 16.875c-1.865 0-3.653 0.7408-4.972 2.0594-1.318 1.3186-2.059 3.107-2.059 4.9718v15.469h14.062v-15.469c0-1.8648-0.74-3.6532-2.059-4.9718s-3.107-2.0594-4.972-2.0594z" fill="#0071AF"/>
 <g fill="#00B378">
  <path d="m91.989 147.07c-0.2611-0.261-0.5712-0.469-0.9124-0.61s-0.7069-0.214-1.0763-0.214c-0.3693 0-0.735 0.073-1.0763 0.214-0.3412 0.141-0.6512 0.349-0.9124 0.61l-3.9777-3.978c0.7834-0.783 1.7135-1.405 2.7372-1.829 1.0236-0.424 2.1208-0.642 3.2288-0.642s2.2052 0.218 3.2288 0.642c1.0237 0.424 1.9539 1.046 2.7374 1.829l-3.9771 3.978z"/>
  <path d="m99.943 139.12c-1.3058-1.306-2.8561-2.342-4.5622-3.049-1.7061-0.706-3.5348-1.07-5.3815-1.07s-3.6753 0.364-5.3815 1.07c-1.7061 0.707-3.2563 1.743-4.5621 3.049l-3.9778-3.978c1.8282-1.828 3.9986-3.278 6.3872-4.267 2.3886-0.99 4.9488-1.499 7.5342-1.499 2.5855 0 5.1456 0.509 7.5342 1.499 2.3887 0.989 4.5593 2.439 6.3873 4.267l-3.9778 3.978z"/>
  <path d="m107.9 131.16c-2.351-2.351-5.141-4.215-8.2122-5.487-3.071-1.272-6.3625-1.927-9.6866-1.927s-6.6156 0.655-9.6866 1.927-5.8614 3.136-8.2118 5.487l-3.9778-3.978c2.8728-2.872 6.2834-5.151 10.037-6.706s7.7765-2.355 11.839-2.355 8.0858 0.8 11.84 2.355c3.753 1.555 7.164 3.834 10.036 6.706l-3.977 3.978z"/>
 </g>
 <g fill="#7DB6D6">
  <path d="m64.688 33.75v39.375h50.624v-39.375h-50.624zm45 11.25h-8.438v-5.625h8.438v5.625zm-8.438 5.625h8.438v5.625h-8.438v-5.625zm-5.625 5.625h-25.312v-5.625h25.312v5.625zm0-16.875v5.625h-25.312v-5.625h25.312zm-25.312 22.5h25.312v5.625h-25.312v-5.625zm30.938 5.625v-5.625h8.438v5.625h-8.438z"/>
  <path d="m92.812 81.562h-28.125v5.625h28.125v-5.625z"/>
  <path d="m106.88 19.688h-33.75v5.625h33.75v-5.625z"/>
 </g>
 <path d="m64.688 171.56h101.25c1.492 0 2.923-0.592 3.978-1.647s1.647-2.486 1.647-3.977v-11.25h-49.212c-17.2 11.048-37.22 16.907-57.662 16.874z" fill="#A2A2A2"/>
 <path d="m56.25 98.438h67.5v-67.5c0 37.279-30.221 67.5-67.5 67.5z" fill="#2C78A3"/>
 <path d="m140.62 28.125v16.875c0 1.6684 0.495 3.2993 1.421 4.6867 0.927 1.3873 2.244 2.4688 3.785 3.1077 1.542 0.6388 3.238 0.8065 4.874 0.4816 1.637-0.3248 3.14-1.1275 4.32-2.3066-4.312-2.0602-7.952-5.2989-10.501-9.3416-2.548-4.0426-3.9-8.724-3.899-13.503z" fill="#4E8CAE"/>
 <path d="m157.5 25.312v14.062h14.062c-3.729 0-7.306-1.4816-9.943-4.1188-2.637-2.6373-4.119-6.2141-4.119-9.9437z" fill="#006095"/>
 <path d="m123.75 28.125v25.312h25.312c-3.324 0-6.615-0.6547-9.686-1.9268s-5.862-3.1366-8.212-5.487c-2.351-2.3505-4.215-5.141-5.487-8.212-1.272-3.0711-1.927-6.3626-1.927-9.6867z" fill="#006095"/>
 <path d="m108.94 73.125h6.374v-9.493c-1.853 3.3386-3.985 6.5143-6.374 9.493z" fill="#6B9BB6"/>
 <path d="m115.31 81.562h-11.25v5.625h11.25v-5.625z" fill="#6B9BB6"/>
</svg>
