<svg fill="none" version="1.1" viewBox="0 0 235 235" xmlns="http://www.w3.org/2000/svg">
 <g clip-path="url(#clip0_1_533)">
  <path d="m80.169 189.64c37.126 18.374 82.117 3.172 100.49-33.954s3.172-82.117-33.954-100.49c-37.126-18.374-82.118-3.172-100.49 33.954-18.374 37.126-3.172 82.118 33.954 100.49z" fill="#43ECC3"/>
  <path d="m180.67 155.68c4.304-8.696 6.765-17.824 7.533-26.94-0.503 1.159-1.037 2.311-1.603 3.455-18.372 37.128-63.363 52.332-100.49 33.96-28.431-14.068-44.006-43.747-41.493-73.55-15.81 36.421-0.4201 79.23 35.563 97.035 37.127 18.372 82.118 3.168 100.49-33.96z" fill="#2AC09C"/>
  <g fill="#fff">
   <path d="m145.56 132.03-1.339-1.354c-0.676-0.683-0.843-1.719-0.417-2.58l0.139-0.28c0.748-1.511 2.831-1.693 3.83-0.334l1.2 1.636c0.746 1.015 0.512 2.444-0.517 3.17-0.899 0.633-2.123 0.524-2.896-0.258z"/>
   <path d="m122.48 47.437 3.062 5.084-0.195 1.9197c-0.302 2.991 2.985 5.0079 5.515 3.3835l0.913-0.5867 12.77 7.2631c2.028 1.1534 2.619 3.8045 1.273 5.7103-1.489 2.1089-4.568 2.2451-6.238 0.2755l-0.728-0.8592c-1.362-1.6067-3.866-1.5256-5.121 0.1659l-1.758 2.3692c-0.727 0.9805-1.94 1.4737-3.145 1.2799l-7.245-1.1661c-2.214 0.5401-4.365-1.0928-4.441-3.3711l-0.105-3.2107c-0.204-6.1766-1.749-12.235-4.528-17.754l-0.499-0.9918c-8.97 0.2121-17.8 2.034-26.063 5.3248l-3.8563 7.7935c-0.8157 1.6485 1.178 3.2532 2.614 2.1045l2.4031-1.9222c0.2617-0.2095 0.5787-0.3375 0.9126-0.3689l10.257-0.9659c3.978 1.6126 6.108 5.9585 4.945 10.091l-2.067 7.3395c0.084 0.8619 0.266 1.7112 0.543 2.5316l1.269 3.7557c1.098 3.2497 3.93 5.6057 7.326 6.0943l8.45 1.2162c1.444 0.2078 2.902-0.2713 3.942-1.2953 1.09-1.0733 2.637-1.545 4.14-1.2624l7.854 1.476c0.861 0.1619 1.659 0.562 2.302 1.1554l2.565 2.3628c2.551 2.3499 6.644 1.5908 8.182-1.5177l2.461-4.9732c1.253-2.5314 4.297-3.5997 6.857-2.4064l6.394 2.981c2.326 1.0839 3.509 3.7055 2.784 6.1665-0.724 2.4602 0.458 5.0802 2.782 6.1654l8.903 4.1578s4.932 0.117 8.406 0.134c-0.937-3.6027-2.143-7.1305-3.602-10.556l-3.78-1.576c-4.693-1.9564-8.568-5.472-10.97-9.9539l-0.083-0.156c-1.561-2.9119-0.085-6.4828 3.038-7.4377l2e-3 -5e-4c-6.425-7.5787-14.465-14-23.936-18.687-7.923-3.9198-16.202-6.3057-24.504-7.282z"/>
   <path d="m87.801 92.737-13.574 4.8648-6.3879 7.9621-0.2333 0.028c-3.1439 0.381-5.9736-1.929-6.2303-5.085l-0.018-0.222c-0.1842-2.2627-3.3423-2.5479-3.9156-0.3825-1.9434 7.3365-4.336 16.36-5.5309 20.866-0.4744 1.789-0.0693 3.694 1.0894 5.137l3.0641 3.815c1.3566 1.689 1.8158 3.929 1.2336 6.016l-2.9856 10.701-6e-3 0.022c-0.3977 1.419-0.0888 2.944 0.8307 4.096l6.2167 7.794c1.0171 1.275 2.6612 1.876 4.2605 1.556l1.8523-0.37c2.2176-0.443 4.4058 0.884 5.0377 3.056l1.9327 6.641c0.1406 0.484 0.3271 0.953 0.5566 1.401l2.0868 4.075c1.1805 2.305 3.4108 3.89 5.9755 4.245l13.135 1.823c0.8517 0.118 1.7174-0.084 2.4283-0.568l2.6768-1.819c1.38-0.937 3.231-0.761 4.41 0.42 1.795 1.8 1.111 4.856-1.28 5.718l-2.93 1.056c-3.0581 1.103-4.219 4.821-2.3317 7.468l2.4527 3.44c9.786 1.565 19.661 1.144 29.076-1.086l0.591-0.894c2.989-4.521 2.762-10.443-0.563-14.722l-11.651-11.425c-2.756-3.35-6.299-3.307-9.168-3.921-1.169-0.25-2.366-0.236-3.551-0.083-2.52 0.325-4.961-1.501-5.189-4.202l-0.187-2.22c-0.258-3.058-4.1697-4.161-5.9875-1.688l-1.4243 1.937c-1.525 2.075-3.6846 3.596-6.1518 4.334l-1.3388 0.4c-2.6064 0.78-5.1895-1.279-5.0142-3.991 0.1493-2.312-1.0092-4.506-3.1079-5.486l-4.9078-2.292c-2.0473-3.91-0.6622-8.739 3.1467-10.97l16.14-9.45c5.2115-2.574 7.9871-8.378 6.7209-14.051l-0.2427-1.061c-0.5251-2.298 0.3235-4.691 2.1789-6.144l0.119-0.094c3.27-2.56 3.263-7.489-1e-3 -10.026-2.5238-1.9614-5.2818-4.1098-7.2637-5.6541-1.7162-1.3352-3.9937-1.6992-6.0403-0.9657z"/>
   <path d="m136.78 138.61c-0.106 2.566-2.169 4.622-4.736 4.711-3.175 0.111-6.922 0.037-7.388-0.884-0.38-0.752-1.323-3.342-2.229-5.916-1.069-3.036 1.014-6.265 4.222-6.537 1.16-0.098 2.318 0.219 3.266 0.894l4.807 3.422c1.355 0.964 2.13 2.547 2.062 4.209l-4e-3 0.101z"/>
  </g>
  <path d="m154.61 185.12c-19.118-5.12-40.513-15.342-61.057-29.251-22.563-15.277-41.379-33.16-53.165-50.495-0.6555 2.8-1.1414 5.616-1.4668 8.434 12.263 16.355 30.174 32.87 51.211 47.113 19.067 12.91 38.913 22.743 57.161 28.427 2.511-1.267 4.953-2.681 7.316-4.228z" fill="#23B491"/>
  <path d="m131.28 194.51c2.988-4.521 2.761-10.443-0.564-14.722l-5.175-6.66c-13.191 1.127-26.849-1.224-39.581-7.524-12.528-6.199-22.555-15.432-29.643-26.368l-2.0086 7.2c-2e-3 7e-3 -0.0041 0.014-0.0061 0.022-0.3904 1.387-0.1429 2.876 0.7564 4.003l6.291 7.887c1.0171 1.275 2.6612 1.875 4.2605 1.556l1.8522-0.37c2.2176-0.443 4.4058 0.884 5.0377 3.055l1.9329 6.642c0.1406 0.484 0.3271 0.953 0.5565 1.401l2.0868 4.075c1.1806 2.305 3.4108 3.89 5.9755 4.245l13.135 1.823c0.8516 0.118 1.7173-0.084 2.4282-0.568l2.6776-1.819c1.379-0.937 3.231-0.761 4.409 0.42 1.795 1.8 1.111 4.856-1.28 5.718l-2.93 1.056c-3.0578 1.103-4.2188 4.821-2.3315 7.468l2.4525 3.44c9.786 1.565 19.662 1.144 29.076-1.086l0.592-0.894z" fill="#F2F2F2"/>
  <path d="m130.72 179.79-3.827-4.925c-6.644-3.084-13.373-6.631-20.083-10.596-2.431 0.571-4.903-0.926-5.516-3.355-2.2052-1.38-4.4038-2.807-6.5945-4.273l-1.1379 1.548c-0.8604 1.171-1.9281 2.157-3.1337 2.934 14.063 9.494 28.541 17.311 42.484 23.025-0.431-1.55-1.162-3.033-2.192-4.358z" fill="#CAD8EF"/>
  <path d="m74.43 141.57c-8.3591-6.907-15.897-14.102-22.371-21.36-0.051 0.193-0.1009 0.381-0.1482 0.56-0.4745 1.788-0.0694 3.694 1.0894 5.136l3.0641 3.816c1.121 1.396 1.6272 3.167 1.4413 4.918 4.5431 4.386 9.4273 8.706 14.602 12.911-0.0608-2.204 0.7623-4.372 2.3227-5.981z" fill="#CAD8EF"/>
  <path d="m25.29 80.447c-2.5303-9.4417-1.7447-17.56 2.4615-23.772 7.1786-10.602 23.269-14.022 45.307-9.6288 1.652 0.3295 2.7243 1.9356 2.3953 3.5883-0.3295 1.652-1.9359 2.7247-3.5883 2.3953-19.193-3.8262-33.431-1.2508-39.062 7.066-5.7178 8.4447-2.6612 22.866 8.3862 39.566 11.721 17.718 30.897 36.088 53.995 51.728 23.098 15.639 47.276 26.621 68.08 30.925 19.608 4.056 34.133 1.539 39.851-6.906 6.006-8.871 2.401-24.101-9.892-41.786-0.961-1.383-0.62-3.284 0.763-4.246 1.384-0.961 3.285-0.619 4.246 0.764 14.015 20.161 17.543 37.452 9.935 48.689-7.278 10.75-23.664 14.109-46.139 9.46-21.567-4.462-46.521-15.772-70.264-31.848-23.744-16.076-43.512-35.046-55.663-53.414-5.3454-8.08-8.9627-15.684-10.811-22.581z" fill="#ddd"/>
 </g>
 <defs>
  <clipPath id="clip0_1_533">
   <rect transform="translate(185.13 .96484) rotate(75)" width="190.66" height="190.66" fill="#fff"/>
  </clipPath>
 </defs>
</svg>
