<svg width="58" height="46" viewBox="0 0 58 46" fill="none" xmlns="http://www.w3.org/2000/svg">
<path opacity="0.15" d="M0 46V30.8C0 25.0667 0.933333 19.7333 2.8 14.8C4.8 9.73333 8.2 4.79999 13 0L21.2 6.6C17.4667 10.4667 14.9333 14.0667 13.6 17.4C12.2667 20.6 11.6 24 11.6 27.6L6.6 23.8H22.2V46H0ZM35 46V30.8C35 25.0667 35.9333 19.7333 37.8 14.8C39.8 9.73333 43.2 4.79999 48 0L56.2 6.6C52.4667 10.4667 49.9333 14.0667 48.6 17.4C47.2667 20.6 46.6 24 46.6 27.6L41.6 23.8H57.2V46H35Z" fill="#00C0F3"/>
</svg>
