<svg width="58" height="46" viewBox="0 0 58 46" fill="none" xmlns="http://www.w3.org/2000/svg">
<path opacity="0.15" d="M57.2002 3.8147e-06L57.2002 15.2C57.2002 20.9333 56.2669 26.2667 54.4002 31.2C52.4002 36.2667 49.0002 41.2 44.2002 46L36.0002 39.4C39.7335 35.5333 42.2669 31.9333 43.6002 28.6C44.9335 25.4 45.6002 22 45.6002 18.4L50.6002 22.2L35.0002 22.2L35.0002 1.87391e-06L57.2002 3.8147e-06ZM22.2002 7.549e-07L22.2002 15.2C22.2002 20.9333 21.2669 26.2667 19.4002 31.2C17.4002 36.2667 14.0002 41.2 9.20019 46L1.0002 39.4C4.73353 35.5333 7.26686 31.9333 8.60019 28.6C9.93353 25.4 10.6002 22 10.6002 18.4L15.6002 22.2L0.00019663 22.2L0.000198571 -1.18589e-06L22.2002 7.549e-07Z" fill="#00C0F3"/>
</svg>
