<svg width="20" height="21" viewBox="0 0 20 21" fill="none" xmlns="http://www.w3.org/2000/svg">
<path fill-rule="evenodd" clip-rule="evenodd" d="M8.8614 6.33888C9.3795 5.64067 9.56529 4.90482 8.97932 4.25529C7.66437 2.41531 6.78003 1.27747 6.22533 0.729514C5.17077 -0.312219 3.436 -0.171309 2.52267 0.728624C2.03212 1.21199 1.86604 1.37797 1.36235 1.88959C-1.4433 4.69674 0.267729 10.631 4.81627 15.184C9.36378 19.736 15.2975 21.4479 18.109 18.6348C18.5738 18.1867 18.9673 17.793 19.2777 17.465C20.1727 16.5189 20.3086 14.8607 19.2718 13.7834C18.7402 13.2311 17.6552 12.3894 15.7378 11.0179C15.1506 10.4928 14.4543 10.6066 13.8159 11.0254C13.5089 11.2269 13.2854 11.4307 12.8634 11.853L12.0972 12.6197C11.9963 12.7207 10.6259 12.0344 9.2956 10.7028C7.9646 9.37051 7.27878 8.00004 7.37923 7.89959L8.146 7.1324C8.27988 6.99839 8.34388 6.93351 8.42596 6.84725C8.59697 6.66752 8.73856 6.50441 8.8614 6.33888ZM13.5106 14.0335L14.277 13.2667C14.5092 13.0342 14.6598 12.8913 14.7822 12.7927C16.4618 13.9989 17.4346 14.7574 17.8319 15.1702C18.0705 15.4181 18.0334 15.8704 17.8261 16.0896C17.5391 16.3929 17.1662 16.766 16.7086 17.2073C14.8906 19.0261 10.1008 17.6442 6.23002 13.7696C2.35803 9.89386 0.97677 5.10334 2.78108 3.29803C3.28275 2.78852 3.44169 2.62966 3.92524 2.1532C4.10655 1.97455 4.60041 1.93444 4.82096 2.15231C5.24803 2.57418 6.04023 3.58853 7.2056 5.21187C7.14527 5.28677 7.06992 5.37141 6.97822 5.46779C6.91092 5.53852 6.85485 5.59536 6.73227 5.71806L5.96625 6.4845C4.6631 7.78754 5.77291 10.0053 7.88186 12.1163C9.98937 14.2259 12.2079 15.3369 13.5106 14.0335ZM11.6593 0.0703125C15.9826 0.59435 19.4107 4.0224 19.9347 8.34572L17.9593 8.67496C17.5779 5.19259 14.8124 2.42717 11.3301 2.04575L11.6593 0.0703125ZM11.0002 4.02222C13.6417 4.25848 15.7455 6.36228 15.9818 9.00381L14 9.3341C13.9159 7.53321 12.4708 6.08809 10.6699 6.00399L11.0002 4.02222Z" fill="#00C0F3"/>
</svg>
