<svg width="19" height="19" viewBox="0 0 19 19" fill="none" xmlns="http://www.w3.org/2000/svg">
<path d="M13.5565 0H5.03165C2.25715 0 0 2.25715 0 5.03165V13.5567C0 16.331 2.25715 18.5882 5.03165 18.5882H13.5567C16.331 18.5882 18.5882 16.331 18.5882 13.5567V5.03165C18.5882 2.25715 16.331 0 13.5565 0V0ZM9.29409 14.3767C6.49151 14.3767 4.21153 12.0967 4.21153 9.29409C4.21153 6.49151 6.49151 4.21153 9.29409 4.21153C12.0967 4.21153 14.3767 6.49151 14.3767 9.29409C14.3767 12.0967 12.0967 14.3767 9.29409 14.3767ZM14.4982 5.41016C13.67 5.41016 12.9964 4.73653 12.9964 3.90832C12.9964 3.08011 13.67 2.40634 14.4982 2.40634C15.3264 2.40634 16.0002 3.08011 16.0002 3.90832C16.0002 4.73653 15.3264 5.41016 14.4982 5.41016Z" fill="#444444"/>
<path d="M9.29363 5.30078C7.09207 5.30078 5.30078 7.09192 5.30078 9.29363C5.30078 11.4952 7.09207 13.2865 9.29363 13.2865C11.4953 13.2865 13.2865 11.4952 13.2865 9.29363C13.2865 7.09192 11.4953 5.30078 9.29363 5.30078Z" fill="#444444"/>
<path d="M14.4981 3.49512C14.2709 3.49512 14.0859 3.68005 14.0859 3.90724C14.0859 4.13443 14.2709 4.31935 14.4981 4.31935C14.7254 4.31935 14.9103 4.13457 14.9103 3.90724C14.9103 3.6799 14.7254 3.49512 14.4981 3.49512Z" fill="#444444"/>
</svg>
