<svg width="131" height="49" viewBox="0 0 131 49" fill="none" xmlns="http://www.w3.org/2000/svg">
<path d="M15.5263 8.39233e-05L43.6579 11.1267C47.6073 12.6888 50.2017 16.5049 50.2017 20.752V41.921L22.0702 30.7944C18.1208 29.2323 15.5263 25.4162 15.5263 21.1691V8.39233e-05Z" fill="#00C0F3"/>
<path d="M0 6.72852L28.1315 17.8552C32.0809 19.4172 34.6754 23.2334 34.6754 27.4805V48.6495L6.54383 37.5228C2.59442 35.9607 0 32.1446 0 27.8975V6.72852Z" fill="#1C3388"/>
<path d="M83.0167 33.3858V17.3439H88.8914C90.0298 17.3439 90.9724 17.5318 91.7191 17.9078C92.4658 18.2786 93.0246 18.7825 93.3954 19.4196C93.7661 20.0515 93.9515 20.7643 93.9515 21.558C93.9515 22.2264 93.8288 22.7904 93.5833 23.2499C93.3379 23.7042 93.0089 24.0698 92.5964 24.3465C92.1891 24.6181 91.74 24.8165 91.2491 24.9418V25.0985C91.7818 25.1246 92.3014 25.2969 92.8079 25.6155C93.3196 25.9288 93.7426 26.3753 94.0768 26.9549C94.411 27.5346 94.5781 28.2395 94.5781 29.0698C94.5781 29.8897 94.3849 30.626 93.9985 31.2787C93.6173 31.9263 93.0272 32.4406 92.2282 32.8218C91.4293 33.1978 90.4084 33.3858 89.1656 33.3858H83.0167ZM85.4371 31.3101H88.9306C90.0898 31.3101 90.9201 31.0855 91.4214 30.6364C91.9228 30.1873 92.1734 29.626 92.1734 28.9523C92.1734 28.4458 92.0455 27.981 91.7896 27.5581C91.5337 27.1351 91.1682 26.7983 90.693 26.5476C90.223 26.297 89.6642 26.1716 89.0167 26.1716H85.4371V31.3101ZM85.4371 24.2839H88.6799C89.223 24.2839 89.7112 24.1794 90.1447 23.9706C90.5833 23.7617 90.9306 23.4692 91.1865 23.0933C91.4476 22.7121 91.5781 22.263 91.5781 21.746C91.5781 21.0828 91.3457 20.5267 90.881 20.0776C90.4162 19.6285 89.7034 19.4039 88.7426 19.4039H85.4371V24.2839Z" fill="#1C3388"/>
<path d="M102.166 33.3858V17.3439H104.586V31.3022H111.855V33.3858H102.166Z" fill="#1C3388"/>
<path d="M118.21 33.3858V17.3439H128.267V19.4274H120.63V24.3152H127.742V26.3909H120.63V31.3022H128.361V33.3858H118.21Z" fill="#1C3388"/>
<path fill-rule="evenodd" clip-rule="evenodd" d="M68.3321 16.5615L60.8115 32.6055H76.3789L68.8185 16.5615H68.3321ZM71.4209 26.9125L68.5744 20.702L65.7279 26.9125H71.4209ZM71.9384 28.9824H65.2103L63.6577 32.6052H73.491L71.9384 28.9824Z" fill="#1C3388"/>
</svg>
