<svg width="130" height="49" viewBox="0 0 130 49" fill="none" xmlns="http://www.w3.org/2000/svg">
<path d="M15.549 0L43.4192 11.0233C47.557 12.6599 50.2752 16.6581 50.2752 21.1078V41.9824L22.4051 30.9592C18.2672 29.3225 15.549 25.3244 15.549 20.8746V0Z" fill="#00C0F3"/>
<path d="M0 6.73792L27.8702 17.7612C32.008 19.3978 34.7262 23.396 34.7262 27.8457V48.7203L6.85603 37.6971C2.7182 36.0605 0 32.0623 0 27.6125V6.73792Z" fill="#1C3388"/>
<path d="M83.2199 33.4026V16.5953H89.3749C90.5676 16.5953 91.5551 16.7923 92.3375 17.1862C93.1199 17.5746 93.7053 18.1026 94.0937 18.7701C94.4822 19.4321 94.6764 20.1789 94.6764 21.0105C94.6764 21.7108 94.5478 22.3017 94.2907 22.7831C94.0335 23.2591 93.6889 23.6421 93.2566 23.9321C92.8299 24.2166 92.3594 24.4245 91.8451 24.5558V24.7199C92.4031 24.7473 92.9475 24.9278 93.4782 25.2616C94.0144 25.5898 94.4575 26.0576 94.8077 26.6649C95.1578 27.2722 95.3329 28.0108 95.3329 28.8807C95.3329 29.7397 95.1305 30.5111 94.7256 31.195C94.3262 31.8734 93.708 32.4123 92.8709 32.8117C92.0338 33.2056 90.9642 33.4026 89.6621 33.4026H83.2199ZM85.7557 31.2278H89.4159C90.6305 31.2278 91.5004 30.9926 92.0256 30.522C92.5509 30.0515 92.8135 29.4634 92.8135 28.7576C92.8135 28.2269 92.6794 27.74 92.4113 27.2968C92.1433 26.8537 91.7603 26.5008 91.2624 26.2382C90.77 25.9755 90.1846 25.8442 89.5062 25.8442H85.7557V31.2278ZM85.7557 23.8664H89.1533C89.7223 23.8664 90.2338 23.757 90.6879 23.5382C91.1475 23.3193 91.5113 23.0129 91.7794 22.619C92.053 22.2196 92.1898 21.7491 92.1898 21.2075C92.1898 20.5126 91.9463 19.9299 91.4594 19.4594C90.9724 18.9889 90.2256 18.7537 89.2189 18.7537H85.7557V23.8664Z" fill="#1C3388"/>
<path d="M102.397 33.4026V16.5953H104.933V31.2196H112.549V33.4026H102.397Z" fill="#1C3388"/>
<path d="M118.464 33.4026V16.5953H129.002V18.7783H121V23.8992H128.452V26.074H121V31.2196H129.1V33.4026H118.464Z" fill="#1C3388"/>
<path fill-rule="evenodd" clip-rule="evenodd" d="M68.4321 16.7059L60.9005 32.7733L63.7512 32.7733L65.3061 29.1452H72.044L73.5989 32.7733L76.4907 32.7733L68.9192 16.7059H68.4321ZM71.5256 27.072L68.675 20.8523L65.8243 27.072H71.5256Z" fill="#1C3388"/>
</svg>
