<svg width="988" height="741" viewBox="0 0 988 741" fill="none" xmlns="http://www.w3.org/2000/svg">
<path d="M347.376 677.295C346.046 676.482 346.684 672.818 348.33 671.82C350.338 670.602 352.996 672.331 352.769 674.707C352.612 676.338 348.802 678.166 347.376 677.295ZM338.92 669.903C338.191 668.52 336.501 667.272 335.165 667.129C332.97 666.893 332.588 666.247 331.194 660.397C330.346 656.837 328.77 651.899 327.692 649.423C326.217 646.032 325.913 644.035 326.461 641.334C327.401 636.709 325.707 630 323.305 628.832C321 627.711 320.09 622.704 321.325 617.941C321.832 615.988 322.075 613.699 321.865 612.854C321.655 612.01 321.793 609.821 322.171 607.989C322.86 604.653 323.128 595.604 322.751 588.457C322.516 583.996 318.95 571.176 315.439 562.166C313.082 556.117 312.742 555.745 307.821 553.842C301.565 551.424 291.612 542.893 290.65 539.125C290.493 538.509 288.372 537.021 285.937 535.819C281.951 533.85 281.399 533.161 280.401 528.905C279.75 526.127 279.738 523.248 280.374 521.923C280.969 520.683 281.257 517.694 281.014 515.281C280.706 512.225 281.217 510.03 282.696 508.048C285.024 504.927 284.452 502.303 280.252 496.842C278.05 493.979 278.041 493.979 275.066 496.427C272.169 498.811 271.988 498.818 268.541 496.657C266.592 495.434 264.807 494.783 264.576 495.211C264.345 495.638 263.972 495.264 263.746 494.379C263.52 493.494 261.078 492.026 258.321 491.117C255.563 490.207 252.526 488.584 251.573 487.509C249.315 484.962 241.436 483.505 237.296 484.867C233.819 486.011 215.433 482.948 214.973 481.148C214.834 480.602 214.177 480.3 213.513 480.477C212.127 480.846 205.934 475.632 204.08 472.534C203.393 471.387 200.897 469.01 198.533 467.25C196.168 465.491 193.078 462.54 191.666 460.693C188.752 456.883 184.006 454.472 182.188 455.88C181.137 456.693 181.299 457.337 183.351 460.498C185.621 463.995 189.808 468.562 191.404 469.281C192.717 469.873 194.704 473.819 193.817 474.072C191.79 474.651 182.205 465.918 179.325 460.869C177.647 457.927 174.825 454.577 173.053 453.425C171.282 452.274 170.193 451.228 170.635 451.102C171.362 450.894 168.061 448.846 161.989 445.737C158.879 444.145 154.729 440.862 153.86 439.305C152.247 436.419 147.47 421.905 147.281 419.318C147.17 417.791 146.248 415.049 145.233 413.226C143.865 410.768 143.513 408.912 143.873 406.054C144.559 400.614 143.21 398.767 135.775 394.963C129.297 391.649 127.484 389.885 121.902 381.467C120.31 379.067 118.281 376.75 117.394 376.319C116.507 375.887 115.675 375.121 115.546 374.615C115.417 374.11 113.705 372.194 111.742 370.356C109.028 367.816 107.543 367.195 105.545 367.766C104.101 368.179 101.584 367.912 99.9521 367.172C98.3205 366.433 96.1449 366.068 95.1174 366.362C92.5169 367.105 87.1533 366.759 80.4974 365.419C77.389 364.793 74.5216 364.647 74.1253 365.096C73.7291 365.545 73.74 367.389 74.1495 369.194C74.8232 372.162 74.0002 374.527 72.0876 375.119C70.9508 375.47 70.6077 372.878 71.1799 368.26C71.8343 362.978 70.023 361.286 67.907 365.201C65.662 369.355 65.0285 374.177 66.3496 377.055C67.2544 379.027 67.1543 380.002 65.9522 380.929C65.0684 381.61 62.5621 384.799 60.3827 388.015C58.2032 391.231 55.8238 394.032 55.0953 394.241C54.3667 394.449 53.7352 395.246 53.692 396.012C53.6487 396.778 52.8383 395.705 51.8911 393.629C50.9438 391.552 49.3835 389.373 48.4236 388.787C47.4637 388.2 46.4078 386.662 46.0772 385.367C44.6521 379.788 42.5615 376.879 39.4615 376.163C37.6618 375.746 36.1053 374.6 35.8191 373.479C35.5443 372.403 34.8326 371.368 34.2376 371.179C32.9561 370.772 35.3637 365.908 37.1047 365.386C37.7636 365.189 39.8706 363.896 41.7869 362.513C44.8369 360.312 45.196 359.553 44.668 356.427C44.1423 353.316 43.5946 352.739 40.4131 351.944C38.4047 351.442 35.7277 351.502 34.4642 352.077C31.3559 353.492 26.6638 350.903 26.2691 347.554C26.0219 345.457 26.4618 344.936 28.8118 344.543C30.3747 344.282 32.9269 344.511 34.4834 345.054C37.1136 345.97 37.3663 345.893 38.0626 343.968C38.4746 342.829 39.3048 341.756 39.9075 341.584C40.5102 341.412 40.7098 340.121 40.351 338.717C39.8292 336.674 39.218 336.3 37.295 336.85C35.973 337.228 34.7793 337.098 34.6423 336.562C34.2372 334.976 28.1891 331.682 27.3749 332.604C26.9632 333.07 26.4667 332.852 26.2716 332.118C26.0766 331.385 25.4181 329.873 24.8083 328.76C23.8869 327.077 24.3697 326.106 27.6668 323.01C29.8488 320.962 31.978 317.906 32.3985 316.22C32.819 314.534 34.7732 311.557 36.7411 309.604C39.8476 306.522 40.6679 306.14 42.9666 306.708C44.4227 307.067 46.2762 306.849 47.0855 306.222C47.8948 305.596 49.7233 305.49 51.1488 305.986C52.5743 306.483 55.6813 306.635 58.0532 306.324C60.4251 306.012 64.0259 305.896 66.055 306.065C68.084 306.234 71.3829 305.729 73.3858 304.943C75.7484 304.016 78.0702 303.885 79.9964 304.57C81.6294 305.152 83.642 305.55 84.4689 305.455C85.2958 305.36 87.225 306.185 88.756 307.287C92.4265 309.93 94.8395 309.084 96.8225 304.459C98.6149 300.278 102.97 296.95 106.736 296.883C108.924 296.843 109.056 296.571 108.013 294.243C107.222 292.477 107.276 291.317 108.18 290.617C109.711 289.431 111.46 290.784 113.321 294.595C114.903 297.832 116.125 298.328 117.923 296.461C119.267 295.066 123.999 295.117 129.142 296.582C130.366 296.931 132.95 297.05 134.884 296.847C137.567 296.565 138.617 297.011 139.312 298.727C139.875 300.116 141.303 301.069 143.043 301.216C144.593 301.348 147.186 301.813 148.803 302.251C153.258 303.457 154.537 302.649 156.776 297.212C158.665 292.625 159.117 292.202 162.432 291.902C164.414 291.723 166.667 291.866 167.439 292.219C168.211 292.573 169.589 292.354 170.5 291.732C171.515 291.04 173.774 291.198 176.334 292.139C180.386 293.628 180.533 293.606 181.161 291.396C181.63 289.751 182.557 289.066 184.498 288.931C187.972 288.689 190.267 283.454 189.027 278.6C188.345 275.931 187.302 274.84 184.101 273.449C179.9 271.623 177.804 267.752 179.408 264.783C180.77 262.264 186.154 264.559 187.157 268.086C187.628 269.741 188.48 271.256 189.051 271.453C189.622 271.65 191.042 273.358 192.207 275.249C193.636 277.568 195.011 278.601 196.434 278.425C197.801 278.256 199.228 279.257 200.491 281.269C203.579 286.191 206.088 286.239 208.425 281.42C209.501 279.202 210.174 276.572 209.919 275.577C209.288 273.106 209.867 272.323 212.338 272.305C214.02 272.292 214.476 272.893 214.631 275.324C214.737 276.994 215.306 278.512 215.895 278.699C217.045 279.065 217.716 282.554 216.919 284.029C216.653 284.522 216.708 285.999 217.043 287.31C217.535 289.237 217.139 289.84 214.971 290.459C213.496 290.881 210.815 292.65 209.012 294.392C207.209 296.133 204.807 297.58 203.674 297.607C201.05 297.669 198.78 300.078 200.441 301.036C201.101 301.417 202.511 301.651 203.575 301.557C204.638 301.462 205.809 301.866 206.177 302.455C206.918 303.641 202.462 308.284 199.874 309.023C195.167 310.368 192.763 319.182 194.285 329.51C194.774 332.828 194.839 335.921 194.43 336.384C193.484 337.456 194.223 340.307 195.861 341.906C196.934 342.951 197.436 342.827 199.178 341.086C202.275 337.99 204.389 338.739 205.567 343.35C206.737 347.934 207.773 348.899 209.205 346.741C210.784 344.362 215.124 345.612 217.747 349.2C219.701 351.875 220.56 352.19 224.463 351.662C231.358 350.731 234.772 351.632 234.688 354.362C234.649 355.615 234.606 357.382 234.592 358.291C234.578 359.264 236.347 360.7 238.902 361.789L243.235 363.637L244.719 360.34C245.778 357.988 245.871 355.741 245.044 352.503C244.406 350.006 243.893 347.837 243.904 347.683C244.197 343.56 242.756 337.396 240.663 333.825C238.688 330.455 237.985 327.993 237.432 322.5C236.233 310.59 236.238 310.534 238.332 310.983C239.368 311.205 242.848 311.243 246.066 311.068C249.666 310.872 252.052 311.278 252.267 312.123C252.46 312.879 253.121 313.529 253.734 313.567C254.348 313.606 255.589 315.502 256.492 317.782C257.925 321.402 258.751 322.106 263.019 323.347C268.392 324.908 269.803 324.232 268.862 320.547C268.012 317.218 269.397 315.977 270.862 318.754C271.517 319.997 274.564 323.554 277.633 326.657C280.702 329.76 283.282 332.571 283.366 332.902C283.609 333.852 286.32 335.137 289.864 335.982C292.75 336.67 293.248 337.279 294.241 341.344C295.81 347.768 293.084 353.632 287.829 355.134C285.794 355.716 283.2 355.891 282.065 355.525C277.791 354.144 270.991 361.19 272.164 365.783C272.553 367.308 273.151 367.94 273.658 367.366C274.123 366.839 275.537 366.39 276.799 366.367C278.459 366.337 279.272 367.068 279.736 369.006C280.264 371.212 281.099 371.741 284.454 371.996C290.452 372.453 291.172 373.219 289.667 377.542C288.823 379.967 287.539 381.523 286.025 381.956C283.318 382.729 282.944 382.029 284.156 378.461C284.935 376.17 284.848 375.866 283.374 375.703C280.529 375.388 274.658 382.708 269.242 393.32C267.492 396.751 265.573 399.514 264.207 400.571C263.36 401.227 263.039 402.866 263.43 404.546C265.316 412.664 265.155 414.115 261.737 419.801C257.054 427.593 256.513 430.944 258.912 437.304C260.188 440.685 260.698 443.725 260.395 446.132C259.936 449.767 259.906 449.791 257.292 448.559C254.914 447.44 254.701 446.996 255.147 444.109C255.449 442.156 255.218 440.732 254.559 440.468C253.963 440.229 252.764 439.251 251.894 438.294C249.627 435.797 243.406 437.141 241.372 440.568C240.081 442.742 238.697 443.433 232.836 444.829C224.655 446.777 220.95 449.778 219.592 455.556C218.036 462.174 223.5 475.024 227.856 474.991C228.982 474.983 230.002 475.361 230.122 475.83C230.387 476.872 236.349 477.002 238.942 476.023C239.976 475.633 242.308 473.513 244.125 471.313C245.942 469.113 247.962 467.482 248.616 467.69C250.348 468.24 250.927 471.519 249.635 473.466C246.967 477.487 250.537 480.881 255.84 479.366C260.918 477.914 265.755 480.778 266.352 485.59C266.595 487.552 266.649 489.678 266.471 490.315C265.9 492.355 270.519 494.077 272.655 492.621C273.725 491.891 276.345 491.398 278.475 491.525C281.731 491.719 282.758 491.358 284.911 489.267C286.32 487.898 287.888 485.178 288.395 483.221C288.903 481.264 289.654 479.567 290.066 479.45C291.143 479.142 291.391 482.95 290.438 485.167C289.886 486.453 290.005 487.172 290.816 487.429C292.426 487.941 295.784 485.542 296.594 483.302C297.113 481.867 298.307 481.359 302.181 480.925C304.891 480.621 308.83 479.779 310.935 479.054C315.282 477.557 319.767 479.033 323.292 483.122C324.952 485.048 326.807 485.642 331.416 485.728C338.356 485.856 343.153 488.196 347.205 493.432C349.145 495.938 351.071 497.235 353.08 497.391C354.724 497.518 357.999 498.63 360.357 499.863C364.451 502.002 364.804 501.999 368.141 499.805C373.083 496.555 377.98 496.429 382.001 499.448C383.845 500.832 385.471 502.422 385.614 502.98C385.756 503.537 387.086 504.789 388.568 505.761C391.155 507.458 391.256 507.741 391.058 512.793C390.886 517.209 390.491 518.115 388.609 518.419C387.069 518.668 386.37 519.47 386.383 520.974C386.394 522.179 385.948 523.295 385.393 523.454C384.838 523.612 384.728 523.953 385.149 524.21C385.571 524.468 385.57 526.318 385.147 528.322C384.724 530.325 384.764 534.805 385.236 538.276C386.187 545.278 384.21 550.098 379.878 551.336C378.438 551.748 377.188 553.181 376.6 555.094C375.989 557.085 374.994 558.192 373.807 558.2C369.987 558.229 369.584 560.464 370.677 575.542C370.919 578.871 369.973 582.665 368.819 582.995C368.28 583.149 367.526 585.831 367.145 588.954C366.764 592.077 365.878 594.796 365.177 594.997C364.476 595.197 362.469 594.414 360.718 593.257C358.026 591.478 357.448 591.431 356.977 592.956C356.671 593.947 357.043 596.307 357.802 598.2C358.667 600.356 358.901 603.156 358.428 605.694C357.817 608.974 357.125 609.903 354.797 610.568C351.753 611.438 350.518 612.864 350.248 615.822C350.157 616.818 348.774 618.322 347.174 619.165C344.29 620.684 344.28 620.737 346.113 625.173C348.25 630.342 347.782 632.211 343.464 635.765C340.8 637.958 340.688 638.397 342.046 641.314C342.857 643.056 344.071 645.674 344.744 647.132C345.568 648.914 345.553 651.781 344.7 655.892C344.003 659.252 343.401 663.991 343.362 666.421C343.278 671.742 340.881 673.621 338.92 669.903ZM223.679 404.157C223.858 404.106 224.135 401.56 224.296 398.5C224.457 395.44 224.899 392.847 225.28 392.739C226.699 392.333 228.925 394.41 229.506 396.683C229.836 397.975 230.567 398.9 231.131 398.739C233.049 398.191 235.336 395.273 234.97 393.841C234.769 393.056 235.396 391.874 236.363 391.216C239.495 389.08 237.542 387.229 230.978 386.111C226.316 385.317 224.136 384.347 223.026 382.573C221.793 380.601 220.856 380.289 218.184 380.959C216.361 381.416 213.677 381.781 212.22 381.769C208.655 381.74 205.06 386.617 207.519 388.145C208.397 388.691 210.716 388.68 212.671 388.121C215.594 387.286 216.382 387.487 217.095 389.249C217.573 390.428 217.642 392.973 217.25 394.905C216.858 396.836 216.786 399.389 217.089 400.577C217.94 403.909 220.583 406.395 222.058 405.253C222.771 404.701 223.5 404.208 223.679 404.157ZM193.493 374.563C192.476 372.062 191.241 368.799 190.747 367.312C189.369 363.169 187.489 362.473 184.66 365.058C181.752 367.716 181.742 370.698 184.642 370.676C186.677 370.661 187.823 372.594 188.61 377.368C188.792 378.472 190.175 380.184 191.685 381.174C194.132 382.779 194.479 382.764 194.885 381.042C195.135 379.98 194.509 377.064 193.493 374.563ZM155.227 350.16C160.744 341.897 160.95 340.502 156.638 340.613C155.088 340.652 152.877 339.927 151.725 339C148.41 336.333 147.315 338.766 149.412 344.136C151.321 349.024 151.207 350.635 148.824 352.43C146.849 353.917 147.611 356.841 149.809 356.213C150.744 355.946 153.182 353.222 155.227 350.16ZM133.115 329.033C134.105 328.057 135.11 326.66 135.349 325.928C135.648 325.012 136.19 324.99 137.093 325.859C138.6 327.307 139.694 325.893 140.531 321.415C140.809 319.929 141.962 318.29 143.093 317.775C144.351 317.201 144.965 316.12 144.677 314.99C144.069 312.609 142.129 311.712 137.695 311.759C134.767 311.79 133.458 312.458 130.394 315.486C123.699 322.1 121.94 327.323 127.057 325.391C130.517 324.085 130.832 324.289 129.925 327.243C128.677 331.306 130.036 332.068 133.115 329.033ZM932.748 497.229C929.476 494.719 930.273 491.478 936.524 481.868C938.895 478.223 941.22 478.036 941.852 481.441C942.641 485.7 942.634 486.308 941.803 485.801C941.387 485.546 940.588 486.185 940.029 487.221C939.469 488.256 938.151 489.349 937.1 489.65C936.049 489.95 935.557 490.561 936.005 491.008C937.188 492.186 937.098 497.077 935.876 498.022C935.303 498.466 933.896 498.109 932.748 497.229ZM938.843 485.876C939.032 485.201 938.602 485.14 937.836 485.733C936.343 486.888 936.226 487.707 937.609 487.312C938.106 487.17 938.662 486.524 938.843 485.876ZM871.702 500.232C869.832 499.821 869.041 498.952 868.819 497.06C868.65 495.626 868.559 494.363 868.618 494.253C868.842 493.829 871.596 492.77 873.749 492.279C875.73 491.827 876.08 492.225 876.658 495.589C877.388 499.84 875.97 501.169 871.702 500.232ZM944.363 468.256C943.486 467.678 943.055 467.122 943.405 467.022C943.755 466.922 943.369 466.337 942.547 465.721C941.477 464.919 941.302 464.32 941.929 463.609C942.411 463.064 942.269 461.345 941.613 459.789C940.426 456.975 940.433 456.967 943.158 458.074C944.663 458.685 946.103 459.944 946.358 460.869C946.681 462.047 947.357 462.227 948.606 461.469C950.975 460.032 951.358 461.959 949.417 465.55C947.524 469.054 946.446 469.631 944.363 468.256ZM865.173 482.172C862.461 481.967 861.222 482.291 860.469 483.404C859.419 484.957 857.755 484.073 851.469 478.624C850.081 477.42 847.841 476.455 846.493 476.479C845.051 476.505 843.928 475.819 843.767 474.814C842.686 468.065 840.111 467.115 836.85 472.262C834.671 475.704 833.804 475.894 832.044 473.317C829.601 469.742 826.887 469.116 821.122 470.798C817.295 471.914 814.204 473.709 810.476 476.977C806.122 480.794 804.331 481.738 800.02 482.488C797.158 482.985 793.121 484.42 791.049 485.676C788.976 486.932 786.912 487.735 786.461 487.459C786.011 487.184 785.035 485.114 784.294 482.859C783.553 480.605 782.286 478.266 781.48 477.661C780.674 477.057 779.407 475.107 778.665 473.328C777.923 471.549 776.311 469.395 775.084 468.54C773.38 467.353 772.859 466.221 772.881 463.754C772.9 461.724 772.401 460.14 771.538 459.494C770.771 458.918 770.289 457.577 770.446 456.452C770.6 455.345 770.576 454.124 770.391 453.737C769.86 452.626 774.572 448.478 778.416 446.673C787.039 442.623 788.163 441.724 788.972 438.23C789.416 436.314 790.503 434.37 791.387 433.911C792.272 433.453 793.836 431.296 794.864 429.119C796.42 425.823 797.03 425.306 798.512 426.026C802.29 427.864 804.385 426.684 807.909 420.735C809.81 417.525 812.122 414.678 813.045 414.407C813.969 414.137 814.618 413.497 814.487 412.984C814.231 411.981 815.392 411.732 819.173 411.978C821.288 412.115 821.691 412.719 822.516 416.984C823.449 421.808 823.48 421.839 828.332 422.757C836.519 424.305 838.851 423.914 839.112 420.949C839.235 419.542 838.908 418.247 838.384 418.071C837.133 417.651 837.131 411.609 838.381 410.729C838.915 410.353 839.869 410.899 840.501 411.941C841.133 412.984 843.292 414.467 845.299 415.236C850.032 417.051 850.744 417.745 851.721 421.495C852.339 423.868 853.813 425.33 857.859 427.586C860.788 429.219 863.328 430.287 863.505 429.96C863.957 429.124 871.722 435.114 872.099 436.59C872.27 437.257 872.955 437.838 873.622 437.88C875.385 437.991 878.349 445.989 878.498 451.044C878.569 453.435 878.025 457.281 877.29 459.59C876.554 461.9 876.221 464.842 876.549 466.129C877.141 468.446 872.728 478.891 870.16 481.25C869.442 481.91 867.198 482.325 865.173 482.172ZM543.447 547.761C541.045 545.961 535.916 538.143 532.315 530.792C531.667 529.47 530.487 528.081 529.693 527.705C527.265 526.555 523.856 521.95 522.108 517.456C521.194 515.108 519.593 512.604 518.55 511.891C515.211 509.61 512.788 501.584 512.843 492.99C512.887 486.27 512.607 484.81 510.748 482.08C509.568 480.346 506.651 476.07 504.265 472.577C501.879 469.085 499.092 465.886 498.071 465.467C496.557 464.846 496.031 463.51 495.223 458.22L494.233 451.735L491.274 451.94C489.647 452.053 487.217 451.528 485.874 450.773C484.531 450.019 483.028 449.517 482.533 449.658C482.039 449.799 481.209 449.296 480.69 448.541C479.453 446.742 474.819 448.105 472.608 450.917C470.762 453.265 466.325 454.235 459.987 453.675C457.418 453.448 456.084 453.838 454.421 455.299C450.173 459.031 446.886 459.091 441.078 455.543C438.093 453.719 435.128 451.237 434.489 450.027C433.849 448.817 431.583 447.22 429.453 446.48C423.815 444.519 421.521 441.422 420.902 434.936C420.622 432.001 419.738 426.927 418.937 423.66C417.251 416.781 417.865 412.349 421.498 405.171C422.925 402.351 424.121 398.927 424.155 397.561C424.188 396.195 424.609 394.965 425.088 394.828C426.963 394.292 430.244 385.93 430.902 380.014C431.646 373.308 431.404 373.51 439.823 372.612C443.293 372.242 444.787 371.503 447.246 368.941C449.762 366.32 452.21 365.141 460.617 362.498C470.354 359.438 470.98 359.369 472.223 361.217C473.046 362.441 473.294 364.361 472.885 366.359C471.894 371.212 472.282 371.477 477.997 369.843C480.913 369.01 484.15 368.507 485.191 368.724C486.231 368.942 489.301 369.231 492.013 369.366C496.628 369.597 497.015 369.461 498.079 367.244C499.337 364.62 500.871 363.9 503.735 364.588C509.024 365.859 513.737 366.171 517.698 365.514C520.11 365.114 523.356 364.757 524.912 364.721C526.468 364.685 528.799 363.79 530.093 362.732C534.052 359.494 535.454 347.829 532.226 344.983C530.554 343.509 523.147 343.77 518.183 345.478C513.556 347.07 513.415 347.038 512.333 344.137C511.724 342.503 510.692 340.764 510.039 340.274C507.749 338.551 509.215 336.172 515.602 331.246C521.608 326.612 522.412 326.258 527.406 326.049C537.072 325.642 538.291 325.463 540.567 324.113C544.05 322.049 542.494 319.133 535.648 314.9C532.279 312.817 529.309 310.276 529.048 309.254C528.577 307.411 526.472 306.666 523.851 307.415C522.97 307.667 522.771 308.915 523.288 310.94C523.97 313.608 523.754 314.12 521.843 314.368C520.378 314.558 519.277 313.869 518.678 312.389C518.173 311.14 517.077 310.042 516.242 309.95C513.944 309.696 510.971 313.873 511.032 317.269C511.062 318.926 510.41 321.142 509.583 322.192C508.686 323.334 508.386 325.297 508.839 327.07C509.779 330.752 507.367 335.144 503.852 336.148C501.12 336.929 500.481 338.776 501.526 342.867C502.444 346.462 501.096 347.143 497.037 345.133C494.635 343.944 492.414 341.618 490.506 338.293C487.917 333.782 487.103 333.152 482.72 332.267C480.028 331.723 476.869 330.375 475.7 329.271C473.011 326.731 469.738 327.466 470.497 330.44C471.369 333.854 475.913 337.108 481.21 338.111C486.446 339.104 487.193 339.868 485.467 342.469C484.865 343.376 484.487 344.407 484.627 344.762C486.107 348.519 483.241 349.949 481.364 346.389C480.668 345.069 478.826 343.053 477.271 341.91C473.951 339.47 462.615 332.587 462.139 332.723C461.959 332.775 460.432 334.198 458.746 335.885C457.06 337.573 454.292 339.35 452.596 339.835C449.491 340.722 447.257 344.468 448.03 347.491C448.378 348.854 446.818 352.562 445.806 352.776C445.517 352.836 444.857 353.007 444.339 353.155C443.821 353.303 442.964 355.645 442.435 358.358C441.427 363.52 440.384 365.469 438.882 364.992C438.391 364.836 436.96 365.827 435.704 367.194C433.587 369.496 433.163 369.621 429.974 368.884C425.777 367.913 423.977 366.014 422.88 361.399C422.42 359.465 421.543 356.762 420.932 355.393C420.321 354.023 419.919 351.731 420.04 350.299C420.239 347.946 420.669 347.653 424.514 347.248C435.637 346.076 435.172 346.369 434.574 340.927C433.953 335.275 431.006 331.433 427.597 331.831C426.456 331.965 425.372 331.487 425.189 330.769C424.674 328.752 427.129 324.095 428.987 323.564C432.532 322.551 436.353 317.683 443.289 305.344C450.128 293.177 450.441 292.309 449.422 288.322C447.9 282.363 450.709 283.002 453.141 289.168L455.004 293.893L461.476 292.715C466.503 291.801 468.378 291.025 469.87 289.243C471.099 287.776 472.87 286.873 474.782 286.741C478.192 286.503 478.665 285.581 478.628 279.237C478.603 274.959 478.702 274.83 482.872 273.638C487.049 272.444 487.129 272.338 486.548 268.755C485.787 264.057 486.515 262.485 490.736 259.709C495.735 256.422 496.425 254.173 492.898 252.663C488.976 250.984 485.539 251.461 481.708 254.217C477.71 257.091 477.2 256.704 474.793 248.972C473.289 244.143 473.224 242.122 474.394 236.55C476.071 228.563 475.463 223.412 472.862 223.574C470.142 223.744 466.993 231.363 468.87 233.232C469.684 234.043 464.449 244.376 463.017 244.785C462.053 245.06 461.707 251.708 462.553 253.694C462.899 254.503 464.218 256.086 465.485 257.21C467.973 259.418 469.677 264.277 468.45 265.666C468.033 266.138 466.973 269.676 466.094 273.529C465.214 277.382 464.013 280.672 463.423 280.84C461.834 281.294 458.283 278.585 457.754 276.514C457.117 274.021 452.737 269.645 451.291 270.058C450.639 270.244 449.905 271.07 449.662 271.894C449.418 272.717 448.639 274.213 447.93 275.22C446.81 276.808 446.148 276.74 442.897 274.702C440.838 273.411 438.888 271.313 438.563 270.04C438.237 268.767 437.333 267.336 436.553 266.86C435.773 266.383 434.605 263.582 433.956 260.634C432.687 254.864 433.065 253.845 438.468 248.465C441.532 245.414 444.034 239.016 444.239 233.71C444.298 232.186 444.995 230.109 445.79 229.094C446.584 228.079 447.012 226.38 446.74 225.317C446.469 224.254 447.639 220.125 449.341 216.141C451.043 212.157 452.753 206.964 453.141 204.6C453.91 199.915 456.252 196.851 458.846 197.138C459.755 197.238 462.378 195.381 464.675 193.011C467.816 189.771 470.218 188.284 474.355 187.019C480.584 185.114 481.857 186.311 479.21 191.585L477.723 194.546L481.186 193.557C483.735 192.828 485.321 193.099 487.192 194.581C488.981 195.997 490.67 196.327 492.886 195.694C494.619 195.198 497.059 195.348 498.309 196.025C499.558 196.703 502.353 197.754 504.52 198.361C507.185 199.106 509.176 200.598 510.671 202.965C512.687 206.16 512.744 206.641 511.32 208.451C510.462 209.543 509.049 210.358 508.182 210.262C507.314 210.166 506.412 210.773 506.178 211.61C505.585 213.73 499.763 212.723 497.434 210.097C495.935 208.407 492.741 207.83 489.423 208.649C488.889 208.781 488.48 210.019 488.515 211.401C488.563 213.328 489.403 214.264 492.119 215.413C496.013 217.061 497.482 218.7 498.598 222.643C499.398 225.466 503.821 228.38 506.128 227.604C506.912 227.341 507.424 226.026 507.266 224.682C507.092 223.202 507.874 221.55 509.25 220.492C510.499 219.532 512.287 217.131 513.224 215.158C514.76 211.923 517.409 210.085 523.994 207.685C525.369 207.184 523.97 204.663 521.605 203.38C518.727 201.819 517.889 199.189 519.385 196.42C521.01 193.413 522.18 193.515 523.002 196.733C524.483 202.529 530.04 202.575 531.442 196.803C532.58 192.116 543.091 182.488 543.846 185.441C544.418 187.681 548.473 186.55 550.134 183.687C551.337 181.615 552.549 180.762 554.336 180.73C556.281 180.695 557.335 179.757 559.016 176.563C561.099 172.606 561.356 172.442 565.467 172.433C567.822 172.429 570.227 172.054 570.813 171.6C572.176 170.545 572.156 167.154 570.751 161.587C570.14 159.16 569.852 156.189 570.113 154.985C570.44 153.483 570.206 152.674 569.37 152.408C568.644 152.178 569.152 150.904 570.626 149.259C571.987 147.74 572.982 146.03 572.836 145.46C572.418 143.823 577.928 142.71 579.738 144.066C580.975 144.993 581.174 145.654 580.56 146.79C579.389 148.958 581.748 157.139 584.431 160.216C587.871 164.159 590.178 172.461 589.581 178.746C589.118 183.61 588.807 184.146 586.181 184.605C581.723 185.384 580.943 188.296 584.134 192.245C586.086 194.662 587.03 195.121 588.152 194.197C588.959 193.532 590.84 192.316 592.332 191.494C595.638 189.672 599.144 179.795 598.031 175.439C597.11 171.833 597.819 166.803 599.309 166.377C600.027 166.172 601.111 168.481 602.352 172.858C603.412 176.597 604.794 179.971 605.423 180.356C606.991 181.313 612.638 176.078 612.14 174.129C611.927 173.293 610.832 171.74 609.708 170.678C608.584 169.616 607.011 166.911 606.214 164.666C604.349 159.418 603.457 158.601 600.733 159.642C597.818 160.757 593.138 159.558 591.803 157.354C588.809 152.414 585.941 142.711 586.621 139.826C587.062 137.96 587.321 138.002 589.167 140.237C590.298 141.607 591.951 142.849 592.84 142.998C602.349 144.59 603.177 145.105 604.528 150.26C606.237 156.782 607.301 157.792 609.981 155.437C611.623 153.995 611.864 152.844 611.134 149.943C610.627 147.924 610.209 145.277 610.206 144.062C610.202 142.512 608.712 140.823 605.216 138.408C601.27 135.683 600.326 134.529 600.685 132.872C600.935 131.721 601.44 130.656 601.807 130.506C606.256 128.693 608.477 126.058 607.895 123.287C607.827 122.961 608.421 120.695 609.215 118.251C610.134 115.423 611.225 113.867 612.217 113.969C613.073 114.058 613.439 113.926 613.029 113.676C612.619 113.425 613.529 110.572 615.051 107.335C620.773 95.1652 620.207 95.7959 626.501 94.5772C631.524 93.6044 632.643 93.7948 635.769 96.1542C638.335 98.0902 639.831 98.5305 641.142 97.7352C643.96 96.0258 644.839 92.2578 643.097 89.3595C642.277 87.9956 641.023 85.6899 640.31 84.2358C639.019 81.6019 639.034 81.5862 644.303 80.0807C649.191 78.6837 649.689 78.7561 650.892 81.0381C652.01 83.1582 652.523 83.3035 654.528 82.0673C658.912 79.3632 663.224 78.5778 664.727 80.2096C665.51 81.0606 667.228 82.4144 668.543 83.218C670.758 84.5712 670.87 84.892 670.051 87.5574C669.565 89.1403 669.398 91.3381 669.68 92.4415C670.281 94.7958 669.313 96.6258 664.858 101.555C663.057 103.547 661.729 105.742 661.905 106.431C662.081 107.121 661.768 108.531 661.21 109.564C660.377 111.105 660.496 111.7 661.876 112.874C663.453 114.217 663.752 114.081 666.695 110.684C668.421 108.692 670.222 106.158 670.697 105.052C671.477 103.237 671.934 103.096 675.431 103.593C677.56 103.895 679.619 104.411 680.006 104.739C680.393 105.067 682.431 106.16 684.534 107.17C687.491 108.589 689.034 108.685 691.348 107.595C692.993 106.82 697.182 106.095 700.657 105.984C706.835 105.786 707.036 105.706 709.737 102.368C712.683 98.7285 714.362 97.7405 714.786 99.398C714.929 99.9598 715.646 100.248 716.378 100.039C718.56 99.4155 721.832 103.321 723.509 108.549L725.08 113.446L730.377 111.579C733.365 110.525 738.161 109.765 741.38 109.833C746.677 109.947 750.738 108.573 749.31 107.15C748.972 106.814 748.98 105.15 749.327 103.452C749.674 101.755 749.843 99.3261 749.701 98.0556C749.56 96.7852 750.06 95.0402 750.812 94.1778C751.905 92.9241 752.896 93.0264 755.756 94.688C759.357 96.7803 766.08 96.4761 766.719 94.1919C767.15 92.6523 772.864 92.5679 775.523 94.0619C776.757 94.7554 778.198 96.261 778.726 97.4078C780.139 100.474 780.897 100.997 784.313 101.261C786.786 101.452 788.029 100.899 790.532 98.4956C795.425 93.7974 798.28 93.8007 800.345 98.5069C801.412 100.939 805.545 102.01 810.537 101.148C812.647 100.784 816.092 100.992 818.194 101.61C820.296 102.228 822.555 102.579 823.216 102.391C823.876 102.202 826.176 102.778 828.327 103.67C833.257 105.717 837.865 104.663 837.099 101.664C836.805 100.515 837.312 98.0655 838.224 96.2192L839.883 92.8624L845.535 94.1777C848.644 94.9012 851.946 95.2763 852.873 95.0115C853.8 94.7466 855.628 95.2611 856.936 96.1548C859.266 97.7471 865.469 99.6451 865.226 98.6912C865.158 98.4251 866.465 98.3127 868.131 98.4415C870.488 98.6237 871.487 99.441 872.634 102.128C873.444 104.027 874.73 106.047 875.492 106.618C876.949 107.71 880.548 106.171 880.153 104.625C879.77 103.127 883.498 102.582 885.552 103.837C888.376 105.562 888.607 107.992 886.38 112.583L884.397 116.671L876.116 114.664C871.561 113.561 867.181 112.844 866.383 113.073C865.585 113.301 864.625 114.995 864.251 116.837C863.877 118.68 862.931 120.683 862.148 121.289C860.973 122.198 861.088 123.524 862.805 128.877L864.886 135.363L860.725 138.442C858.437 140.136 856.646 141.841 856.746 142.231C856.845 142.621 855.94 143.525 854.733 144.24C853.527 144.955 852.292 146.965 851.989 148.705C851.505 151.488 850.896 152.025 846.948 153.154C843.058 154.265 842.187 155.011 840.432 158.728C838.639 162.528 837.99 163.065 834.764 163.415C829.989 163.933 827.831 166.38 829.252 169.665C834.233 181.182 834.424 187.433 829.935 191.965C828.492 193.421 827.033 196.244 826.691 198.24C825.99 202.339 823.817 203.608 822.476 200.703C820.385 196.175 818.992 188.998 819.819 187.017C820.411 185.596 820.372 185.262 819.698 186.005C819.145 186.616 818.568 186.629 818.416 186.034C818.11 184.839 819.421 181.629 822.382 176.32C823.452 174.401 824.153 172.148 823.94 171.314C823.727 170.479 824.616 167.745 825.917 165.239C827.217 162.732 828.188 159.72 828.076 158.547C827.905 156.764 827.407 156.591 825.052 157.493C823.502 158.087 821.163 158.323 819.854 158.018C817.917 157.567 817.066 157.992 815.279 160.303C812.554 163.828 810.663 167.717 810.023 171.112C809.48 173.993 805.865 175.823 804.228 174.045C802.217 171.861 798.066 172.177 795.722 174.693C793.833 176.72 792.977 176.996 789.28 176.776C786.108 176.587 784.536 176.964 783.145 178.247C782.117 179.195 780.246 180.532 778.988 181.217C775.804 182.952 769.967 198.507 770.41 204.079C770.766 208.561 771.796 209.695 775.263 209.418C776.517 209.318 778.09 210.788 779.877 213.73C782.224 217.593 782.665 219.215 783.152 225.793C783.462 229.974 783.34 234.087 782.882 234.935C782.424 235.783 781.726 238.025 781.332 239.916C780.424 244.277 775.089 254.252 773.409 254.732C772.709 254.932 770.585 256.333 768.689 257.844C765.743 260.194 765.055 261.691 763.943 268.165C762.772 274.984 762.842 276.041 764.652 278.782C766.417 281.458 766.495 282.16 765.295 284.577L763.928 287.326L762.635 284.873C761.923 283.523 761.501 281.849 761.696 281.151C762.086 279.758 759.011 277.48 757.372 277.948C756.338 278.244 755.826 277.38 754.959 273.875C754.589 272.379 753.994 272.248 752.102 273.244C746.356 276.27 746.054 276.304 745.14 274.045C744.605 272.724 743.575 272.026 742.578 272.311C740.729 272.84 736.31 280.597 736.79 282.474C737.199 284.075 740.796 284.878 743.764 284.029C747.452 282.976 748.122 284.659 745.757 289.035C743.729 292.788 743.724 293.339 745.666 299.055C747.126 303.351 748.386 305.447 750.015 306.285C752.24 307.43 752.288 307.599 751.627 311.985C750.579 318.93 745.232 329.273 741.741 331.105C740.111 331.96 737.275 334.018 735.44 335.677C733.605 337.337 731.608 338.537 731.002 338.344C729.769 337.953 724.036 339.841 721.671 341.419C719.118 343.122 722.551 353.045 726.295 354.787C728.322 355.73 731.818 360.007 732.686 362.606C733.937 366.35 732.387 371.445 729.472 373.173C727.6 374.283 726.165 373.891 721.169 370.905C717.847 368.919 714.975 366.69 714.785 365.95C714.564 365.089 713.528 364.991 711.901 365.679C709.152 366.84 707.496 371.835 709.381 373.279C709.977 373.735 711.518 375.922 712.806 378.138C714.094 380.354 716.368 382.979 717.86 383.972C721.971 386.709 726.897 391.901 726.347 392.919C726.078 393.415 724.195 392.571 722.161 391.043C720.128 389.514 717.419 387.576 716.142 386.735C711.637 383.77 710.19 381.197 705.236 367.337C702.448 359.534 699.627 356.465 697.342 358.749C695.669 360.422 693.747 360.331 693.294 358.557C693.143 357.969 691.645 356.472 689.963 355.23C688.282 353.988 686.593 352.47 686.21 351.858C685.827 351.246 682.632 351.181 679.111 351.714C672.854 352.662 672.663 352.772 670.753 356.523C669.678 358.634 667.414 361.959 665.722 363.913C662.636 367.475 661.273 371.071 661.62 374.741C661.722 375.822 661.41 377.87 660.927 379.293C660.444 380.715 660.206 382.497 660.399 383.252C660.951 385.415 656.174 394.147 654.927 393.254C654.333 392.828 652.627 390.116 651.134 387.227C649.642 384.338 646.994 380.664 645.25 379.063C643.506 377.463 641.754 374.88 641.357 373.325C640.96 371.77 640.21 370.619 639.691 370.767C639.173 370.916 638.181 369.962 637.488 368.647C636.725 367.199 635.262 366.275 633.774 366.301C632.406 366.326 631.127 365.587 630.882 364.629C630.397 362.729 621.346 357.909 617.515 357.51C616.171 357.371 612.64 357.627 609.668 358.081C602.363 359.196 599.738 359.214 594.974 358.181C592.745 357.697 589.795 357.624 588.417 358.018C584.456 359.15 581.735 357.952 578.547 353.671C575.538 349.63 574.335 349.266 567.943 350.46C564.505 351.102 564.805 352.576 569.56 358.406C571.13 360.331 572.627 362.74 572.888 363.758C573.239 365.134 574.101 365.397 576.245 364.785C578.658 364.095 579.233 364.366 579.763 366.441C581.044 371.455 587.382 372.521 588.386 367.892C588.965 365.224 592.484 363.737 593.042 365.924C593.246 366.721 595.18 367.934 597.342 368.621C599.503 369.307 601.397 370.409 601.55 371.07C602.047 373.208 597.123 381.872 593.524 385.193C591.597 386.972 589.462 388.964 588.778 389.62C588.095 390.277 585.3 392.058 582.568 393.578C579.835 395.098 576.815 397.064 575.856 397.947C574.897 398.83 572.829 399.756 571.26 400.004C568.919 400.374 568.133 399.875 566.88 397.221C566.04 395.442 563.402 392.743 561.019 391.223C558.635 389.703 555.597 387.045 554.266 385.315C552.936 383.585 548.367 378.232 544.113 373.419C537.57 366.018 536.017 364.772 534.042 365.336C530.748 366.277 531.29 369.302 535.346 372.615C537.526 374.395 539.044 376.661 539.653 379.043C540.17 381.067 541.539 383.617 542.697 384.71C543.854 385.804 545.301 387.814 545.912 389.178C546.523 390.543 548.701 392.794 550.752 394.181C552.963 395.677 554.767 397.826 555.184 399.461C555.758 401.707 556.569 402.259 559.555 402.437C561.572 402.557 563.395 403.184 563.606 403.831C563.817 404.477 564.532 406.824 565.196 409.046C566.366 412.966 566.492 413.05 569.445 411.872C571.118 411.204 572.608 411.131 572.756 411.709C573.326 413.94 577.115 413.86 579.571 411.564C580.88 410.34 583.124 408.651 584.557 407.81C587.117 406.309 587.167 406.346 587.393 409.885C587.519 411.867 587.324 413.845 586.959 414.281C586.594 414.717 586.007 416.481 585.655 418.203C584.947 421.663 579.71 433.386 574.036 444.212C569.021 453.78 568.677 457.224 572.084 463.734C573.541 466.519 576.498 471.417 578.654 474.619L582.575 480.44L579.617 485.014C577.99 487.53 575.903 489.812 574.98 490.085C574.057 490.357 573.419 491.04 573.562 491.602C573.706 492.164 573.22 492.796 572.484 493.006C570.547 493.56 570.57 496.21 572.556 501.185C574.237 505.396 574.196 505.657 571.367 508.731C569.756 510.482 568.768 512.244 569.172 512.647C569.576 513.049 569.114 517.511 568.146 522.561C565.688 535.369 558.56 544.958 551.09 545.502C549.625 545.609 548.262 546.286 548.06 547.008C547.531 548.9 545.425 549.244 543.447 547.761ZM578.461 329.121C579.272 325.381 575.213 315.97 571.811 313.705C570.205 312.636 568.68 310.936 568.422 309.928C568.165 308.919 567.449 307.934 566.831 307.738C564.019 306.844 565.351 305.175 569.219 304.746L573.288 304.294L571.77 299.586C570.45 295.491 569.799 294.758 566.766 293.952C563.563 293.101 562.81 293.29 557.502 296.279C552.81 298.921 551.558 300.17 550.843 302.926C549.688 307.379 550.415 309.887 553.501 312.095C554.89 313.088 556.239 314.734 556.499 315.752C556.759 316.771 558.632 318.776 560.661 320.209C563.826 322.443 564.426 323.424 564.886 327.111C565.343 330.773 565.817 331.56 568.095 332.438C571.921 333.912 577.831 332.021 578.461 329.121ZM591.467 302.616C592.544 298.252 591.725 291.26 589.984 289.956C589.219 289.383 587.342 289.271 585.812 289.708C583.707 290.31 582.775 291.441 581.974 294.367C580.626 299.297 580.982 300.554 584.686 303.93C588.376 307.294 590.409 306.899 591.467 302.616ZM596.126 503.201C595.906 502.338 594.764 500.725 593.589 499.615C591.901 498.02 591.567 497.075 591.994 495.104C592.292 493.732 592.087 491.168 591.539 489.406C589.908 484.159 589.983 483.932 594.179 481.44C597.47 479.486 598.101 478.622 597.619 476.735C596.648 472.932 598.539 468.947 601.54 468.473C603.867 468.106 604.243 468.462 604.788 471.551C605.128 473.473 604.903 477.976 604.29 481.558C603.676 485.141 603.249 488.791 603.341 489.669C604.083 496.74 603.32 500.564 600.805 502.387C597.286 504.937 596.6 505.057 596.126 503.201ZM846.565 394.887C845.269 394.087 843.516 393.585 842.67 393.771C841.824 393.957 839.153 394.541 836.734 395.069C829.299 396.693 824.34 396.03 816.993 392.432C810.687 389.343 808.534 388.831 806.284 389.885C805.913 390.059 805.046 389.132 804.357 387.826C803.668 386.519 802.718 385.56 802.247 385.695C801.775 385.83 801.213 385.25 800.998 384.408C800.343 381.845 804.651 381.496 807.689 383.866C810.341 385.934 810.694 385.936 813.367 383.896C815.932 381.938 816.618 381.868 820.247 383.199C822.465 384.012 826.246 384.46 828.649 384.193C832.831 383.73 835.446 384.679 838.478 387.76C839.244 388.539 840.993 389.026 842.365 388.842C843.937 388.631 845.639 389.464 846.97 391.096C848.131 392.52 849.485 393.734 849.98 393.793C850.474 393.853 850.987 394.323 851.118 394.838C851.517 396.402 849.065 396.428 846.565 394.887ZM788.332 411.559C788.193 411.015 788.728 410.384 789.521 410.157C791.368 409.63 791.531 410.268 789.877 411.548C789.166 412.098 788.471 412.103 788.332 411.559ZM748.817 418.063C743.494 417.874 741.566 417.429 742.603 416.626C745.271 414.561 751.732 413.237 755.543 413.974C758.503 414.547 759.106 415.041 758.517 416.413C757.62 418.5 758.227 418.397 748.817 418.063ZM773.452 403.789C772.981 403.32 772.731 402.457 772.895 401.87C773.059 401.284 772.479 400.725 771.607 400.629C769.533 400.4 768.524 396.428 770.403 395.891C771.289 395.638 771.601 394.522 771.211 392.998C770.593 390.579 771.963 386.676 773.593 386.211C775.372 385.702 777.738 386.405 777.47 387.362C777.314 387.92 776.489 388.299 775.637 388.205C773.369 387.955 773.415 391.389 775.699 392.784C778.541 394.52 779.568 399.533 777.387 401.02C776.42 401.679 775.739 402.647 775.873 403.17C776.196 404.437 774.53 404.863 773.452 403.789ZM731.46 410.903C730.562 410.229 729.119 409.865 728.254 410.093C725.941 410.703 723.146 409.216 721.591 406.548C720.839 405.258 717.449 402.703 714.059 400.871C710.668 399.038 708.103 397.136 708.361 396.644C708.845 395.718 722.224 398.825 726.133 400.772C729.088 402.244 734.494 409.535 733.708 410.989C733.355 411.641 732.397 411.605 731.46 410.903ZM751.225 400.579C746.14 400.457 745.753 400.052 745.397 394.475C745.234 391.92 745.926 390.59 748.476 388.557C750.285 387.114 751.972 384.997 752.226 383.853C752.479 382.709 753.789 380.583 755.137 379.13C757.52 376.56 757.653 376.532 760.012 378.093C763.594 380.464 765.135 389.598 762.925 395.357C761.635 398.72 760.946 399.458 759.674 398.839C758.624 398.329 757.727 398.516 757.108 399.375C756.488 400.235 754.435 400.655 751.225 400.579ZM788.286 383.108C788.143 382.546 788.458 381.963 788.987 381.812C789.516 381.66 790.066 381.996 790.209 382.558C790.353 383.12 790.037 383.703 789.509 383.855C788.98 384.006 788.43 383.67 788.286 383.108ZM776.434 369.016C773.317 369.052 772.35 366.416 775.032 365.195C777.214 364.201 780.698 366.245 779.667 367.914C779.303 368.504 777.848 369 776.434 369.016ZM662.834 396.763C662.662 396.058 662.735 394.752 662.995 393.859C663.599 391.786 665.515 393.444 665.286 395.841C665.094 397.843 663.264 398.532 662.834 396.763ZM762.134 349.752C760.707 347.61 759.671 343.067 760.417 342.222C761.025 341.534 761.236 341.639 760.993 342.51C760.781 343.267 760.996 343.774 761.472 343.639C762.213 343.427 765.668 347.064 766.015 348.42C766.135 348.893 762.412 350.17 762.134 349.752ZM354.211 454.079C353.664 453.284 353.289 451.886 353.376 450.972C353.515 449.524 353.778 449.459 355.425 450.465C357.108 451.493 357.199 451.833 356.259 453.572C355.32 455.311 355.096 455.366 354.211 454.079ZM729.57 345.083C729.753 344.427 730.527 343.713 731.289 343.495C732.051 343.278 732.792 343.559 732.935 344.121C733.079 344.683 732.305 345.397 731.216 345.708C730.128 346.019 729.387 345.738 729.57 345.083ZM300.153 461.222C299.682 460.753 299.972 460.177 300.797 459.942C301.621 459.706 302.413 459.973 302.556 460.535C302.7 461.097 302.41 461.673 301.913 461.815C301.415 461.957 300.623 461.69 300.153 461.222ZM284.772 463.61C284.385 462.092 288.501 458.759 290.485 458.985C292.327 459.195 292.347 459.297 290.922 461.197C289.308 463.352 285.125 464.993 284.772 463.61ZM755.454 327.273C755.239 326.43 755.496 325.617 756.024 325.466C756.553 325.314 757.162 325.88 757.377 326.723C757.593 327.566 757.336 328.379 756.807 328.53C756.278 328.681 755.67 328.115 755.454 327.273ZM272.145 462.64C271.831 461.411 270.621 460.989 268.17 461.255C266.232 461.466 263.731 461.079 262.612 460.395C261.189 459.526 259.66 459.593 257.521 460.618C255.84 461.424 254.354 461.652 254.22 461.126C254.085 460.599 254.291 460.041 254.677 459.884C255.062 459.728 256.182 459.113 257.164 458.517C261.941 455.622 265.683 454.512 267.319 455.505C268.267 456.08 271.535 456.768 274.581 457.033C277.628 457.298 280.254 458.036 280.416 458.673C280.579 459.31 278.886 460.861 276.654 462.12C273.05 464.152 272.546 464.21 272.145 462.64ZM786.577 282.148C786.076 281.42 784.873 281.05 783.903 281.328C781.742 281.945 780.635 280.977 781.198 278.961C781.581 277.593 783.265 276.343 786.14 275.292C786.718 275.08 788.801 271.982 790.769 268.406C792.827 264.667 794.725 262.282 795.238 262.793C795.728 263.281 795.777 264.499 795.347 265.5C794.917 266.501 794.884 267.229 795.274 267.117C795.664 267.006 795.574 268.247 795.074 269.876C794.573 271.505 794.426 273.89 794.745 275.176C795.61 278.653 794.859 279.98 790.987 281.814C788.403 283.039 787.249 283.126 786.577 282.148ZM478.88 352.601C478.36 351.846 478.085 351.185 478.268 351.132C478.451 351.08 479.315 351.573 480.189 352.227C481.104 352.913 481.364 353.536 480.801 353.697C480.264 353.85 479.399 353.357 478.88 352.601ZM464.201 350.22C463.986 349.377 463.98 348.639 464.188 348.579C464.396 348.52 464.991 349.09 465.511 349.845C466.03 350.601 466.036 351.339 465.524 351.486C465.012 351.632 464.417 351.062 464.201 350.22ZM793.309 250.473C791.952 250.485 791.484 249.856 791.539 248.092C791.58 246.773 791.65 245.597 791.695 245.48C791.741 245.362 793.339 245.165 795.247 245.041C798.78 244.812 801.388 246.736 798.617 247.528C797.78 247.767 797.212 248.423 797.356 248.985C797.625 250.037 796.518 250.444 793.309 250.473ZM793.92 236.085C792.666 235.145 791.314 231.39 789.08 222.642C784.693 205.47 785.227 202.811 790.436 215.887C791.406 218.323 793.095 221.161 794.187 222.194C795.966 223.876 796.077 224.522 795.241 228.361C794.57 231.448 794.697 233.086 795.696 234.212C797.542 236.295 796.154 237.759 793.92 236.085ZM299.968 363.105C299.426 362.317 298.661 362.037 298.268 362.482C297.874 362.928 296.937 362.831 296.184 362.267C295.184 361.517 295.094 360.222 295.851 357.442C296.421 355.352 297.322 353.517 297.854 353.365C299.438 352.913 306.213 357.723 306.705 359.65C307.491 362.729 301.738 365.679 299.968 363.105ZM423.174 316.456C423.048 314.382 422.751 311.688 422.514 310.469C422.276 309.25 422.399 307.488 422.786 306.555C423.561 304.686 421.311 300.547 419.761 300.99C419.257 301.134 418.209 299.957 417.431 298.374C416.654 296.791 415.28 295.299 414.379 295.057C412.722 294.613 411.733 290.805 412.541 287.982C413.127 285.935 417.25 284.906 418.365 286.529C418.865 287.255 419.432 289.463 419.627 291.435C419.903 294.249 420.672 295.532 423.202 297.401C424.974 298.71 427.022 300.914 427.751 302.298C428.481 303.682 429.821 305.176 430.73 305.618C432.778 306.614 433.879 310.566 432.615 312.385C432.096 313.131 430.027 314.568 428.017 315.578C426.006 316.588 424.146 318.047 423.882 318.821C423.618 319.594 423.299 318.53 423.174 316.456ZM408.748 312.715C408.587 309.332 410.949 302.026 411.996 302.665C412.26 302.826 412.786 304.883 413.166 307.235C413.73 310.724 413.402 311.954 411.387 313.912L408.917 316.311L408.748 312.715ZM118.83 387.471C118.606 386.595 118.928 386.039 119.546 386.235C120.163 386.431 120.779 387.024 120.914 387.553C121.049 388.082 120.727 388.638 120.198 388.789C119.669 388.94 119.054 388.347 118.83 387.471ZM111.078 379.338C110.608 378.87 110.681 378.356 111.242 378.196C111.802 378.035 112.377 378.364 112.521 378.926C112.664 379.488 112.591 380.002 112.358 380.069C112.124 380.135 111.549 379.807 111.078 379.338ZM311.129 299.198C305.255 299.351 305.809 299.989 293.553 278.964C291.897 276.121 290.086 273.458 289.529 273.044C287.084 271.227 286.307 263.585 288.024 258.244C290.165 251.582 289.833 250.215 285.556 248.097C281.71 246.193 279.358 243.021 280.681 241.524C281.167 240.974 282.611 241.092 283.891 241.786C285.171 242.48 286.412 242.69 286.648 242.253C287.442 240.783 283.987 234.565 282.597 234.963C281.854 235.175 280.634 234.684 279.886 233.871C278.756 232.644 278.33 232.689 277.369 234.137C275.532 236.905 273.972 235.542 272.534 229.913C271.63 226.375 270.496 224.209 269.015 223.198C267.624 222.247 266.361 219.968 265.539 216.927C264.83 214.299 263.767 211.67 263.179 211.084C262.59 210.497 261.061 208.024 259.78 205.587C258.028 202.253 256.6 200.911 254.013 200.168C250.393 199.127 243.066 200.559 238.209 203.255C235.645 204.679 235.1 204.564 233.029 202.162C231.757 200.685 230.651 199.225 230.572 198.916C230.493 198.607 256.333 169 295.257 162.071L322.169 162.071L343.641 166.001L345.24 169.107C347.709 173.9 348.028 177.142 346.265 179.551C344.487 181.982 345.879 188.06 347.963 186.962C349.648 186.075 349.734 187.77 348.139 190.407C347.368 191.682 347.136 193.305 347.623 194.013C348.631 195.479 348.756 195.408 338.768 198.997C335.25 200.261 335.206 203.269 338.699 203.643C341.055 203.896 341.488 204.404 341.662 207.124C341.826 209.692 342.337 210.418 344.299 210.869C348.816 211.906 352.119 214.338 352.839 217.155C353.671 220.414 351.673 222.453 349.367 220.698C345.712 217.917 343.344 216.507 342.666 216.707C342.27 216.824 341.547 218.561 341.06 220.567C340.513 222.819 339.599 224.15 338.672 224.048C337.024 223.866 335.306 226.79 336.597 227.579C337.039 227.849 338.612 227.724 340.091 227.301C341.798 226.813 343.349 227.172 344.333 228.281C345.348 229.426 346.868 229.749 348.734 229.216C350.882 228.602 351.705 228.874 352.075 230.319C352.75 232.962 351.354 234.737 346.45 237.473C343.815 238.943 341.235 241.531 339.503 244.441C337.988 246.988 335.883 249.324 334.827 249.632C333.194 250.109 330.566 255.723 327.962 264.303C327.742 265.026 326.442 266.631 325.072 267.869C323.356 269.42 322.453 271.647 322.169 275.031C321.943 277.731 320.961 281.03 319.988 282.36C318.795 283.991 318.557 285.407 319.258 286.706C320.683 289.349 318.624 297.512 316.307 298.401C315.288 298.792 312.957 299.151 311.129 299.198ZM261.451 303.113C260.165 302.148 258.829 302.223 256.362 303.398C253.123 304.94 252.846 304.837 247.638 300.129C242.547 295.527 242.029 295.321 237.985 296.275C228.929 298.411 228.473 289.604 237.455 286.034C240.535 284.809 240.602 284.625 239.533 280.31C238.925 277.858 237.719 275.248 236.852 274.51C235.438 273.306 235.093 273.54 233.489 276.787C231.838 280.131 231.512 280.339 229.196 279.517C224.095 277.708 225.417 274.292 232.119 271.968C235.199 270.9 234.25 269.03 230.454 268.69C228.469 268.512 226.432 267.768 225.929 267.035C225.413 266.285 224.436 266.152 223.689 266.73C222.829 267.396 222.215 267.168 221.937 266.081C221.473 264.264 217.416 263.418 215.657 264.772C215.059 265.232 213.806 265.238 212.873 264.785C211.941 264.331 210.35 264.524 209.337 265.215C207.983 266.138 206.041 265.786 201.984 263.881C198.951 262.458 196 260.918 195.425 260.459C194.851 260 193.78 256.343 193.046 252.333C191.894 246.036 191.986 244.611 193.719 241.882C195.645 238.849 195.797 238.783 197.499 240.232C198.56 241.135 199.329 242.947 199.411 244.738C199.596 248.772 202.126 248.06 204.244 243.378L205.811 239.917L207.465 242.184C210.829 246.792 212.679 247.541 216.729 245.931C218.82 245.101 220.599 244.689 220.683 245.017C220.767 245.346 223.03 244.987 225.712 244.221C231.465 242.577 232.974 243.546 233.549 249.253C233.919 252.912 234.142 253.194 236.201 252.607C239.492 251.667 247.474 257.01 248.442 260.799C248.863 262.447 248.878 264.406 248.475 265.152C247.964 266.097 249.157 266.662 252.4 267.015C254.969 267.294 257.881 268.451 258.895 269.593C259.905 270.733 262.594 271.886 264.869 272.157C267.784 272.503 268.958 273.149 268.844 274.342C268.755 275.273 269.429 276.878 270.343 277.908C272.96 280.859 271.325 283.33 265.99 284.487C260.802 285.611 260.44 286.803 263.694 292.041C265.492 294.936 265.778 296.011 265.086 297.271C264.399 298.521 263.855 298.554 262.515 297.424C260.722 295.914 257.489 296.217 257.908 297.857C258.043 298.387 259.231 299.235 260.547 299.742C261.863 300.249 262.997 301.509 263.068 302.543C263.186 304.281 263.065 304.324 261.451 303.113ZM215.817 309.701C211.422 307.996 210.816 306.409 212.754 301.677L214.2 298.147L219.336 299.193C223.247 299.989 224.615 300.799 225.072 302.588C225.507 304.291 225.119 305.097 223.664 305.513C222.558 305.829 221.174 307.223 220.586 308.612L219.519 311.137L215.817 309.701ZM372.496 263.819C371.27 263.462 368.472 263.413 366.278 263.711C362.376 264.241 362.259 264.159 360.844 259.859C359.036 254.369 359.672 253.117 364.093 253.459C366.662 253.657 367.657 253.379 367.936 252.383C368.143 251.645 370.164 250.211 372.428 249.198C376.003 247.598 376.986 247.603 379.914 249.241C383.864 251.451 383.801 252.393 379.236 259.287C375.637 264.721 375.622 264.731 372.496 263.819ZM529.243 186.533C528.814 186.106 529.043 185.308 529.751 184.76C530.458 184.212 531.144 184.182 531.275 184.693C531.629 186.078 530.14 187.426 529.243 186.533ZM143.149 291.844C136.117 290.564 135.398 288.656 140.749 285.478C143.394 283.907 144.639 282.53 144.368 281.473C144.028 280.139 142.934 280.218 138.037 281.928L132.117 283.994L131.006 278.283C129.476 270.417 130.424 267.945 136.173 264.809C140.477 262.462 141.12 262.36 142.903 263.746C143.987 264.588 146.139 265.233 147.686 265.179C149.233 265.126 150.659 265.643 150.856 266.329C151.053 267.015 152.841 268.105 154.828 268.752C156.816 269.4 158.81 270.833 159.259 271.937C159.708 273.042 161.557 274.382 163.367 274.915C167.175 276.037 169.153 279.146 168.88 283.58C168.726 286.07 168.202 286.737 166.273 286.896C162.687 287.193 154.626 289.637 151.537 291.364C149.595 292.45 147.223 292.586 143.149 291.844ZM177.422 283.652C176.195 282.43 176.96 280.49 178.868 279.986C180.914 279.445 184.681 281.002 184.068 282.135C183.352 283.461 178.371 284.598 177.422 283.652ZM541.103 168.846C540.468 168.471 538.62 168.382 536.997 168.649C533.109 169.288 530.207 165.331 531.929 161.739C532.552 160.44 532.85 158.491 532.591 157.406C532.332 156.322 532.503 154.43 532.97 153.202C533.689 151.312 534.169 151.082 536.093 151.703C537.816 152.26 538.258 152.936 537.919 154.498C537.634 155.811 538.242 158.046 539.596 160.654C543.434 168.052 543.842 169.075 543.045 169.303C542.612 169.426 541.738 169.221 541.103 168.846ZM852.378 77.477C850.871 76.686 850.211 76.1627 850.911 76.3139C851.61 76.4651 852.212 76.0966 852.249 75.4949C852.343 73.9409 856.882 74.1041 857.283 75.676C857.871 77.978 855.2 78.9587 852.378 77.477ZM115.99 281.707C113.369 280.751 110.621 277.343 110.44 274.822C110.335 273.357 110.58 272.063 110.986 271.947C112.079 271.635 112.047 267.199 110.925 263.55C109.386 258.541 112.272 256.725 122.989 255.961C125.518 255.78 131.461 259.213 131.953 261.138C132.144 261.886 130.76 264.557 128.878 267.074C126.996 269.59 125.35 272.989 125.221 274.627C125.092 276.264 124.251 278.062 123.353 278.621C119.116 281.257 117.088 282.107 115.99 281.707ZM170.789 265.088C170.34 264.814 169.785 263.863 169.555 262.974C169.324 262.085 167.513 260.904 165.531 260.348L161.926 259.337L163.696 257.176C164.723 255.921 165.198 253.97 164.828 252.521C164.266 250.323 164.571 249.959 167.397 249.455C170.15 248.963 170.757 249.303 171.687 251.86C172.282 253.499 173.619 255.212 174.657 255.667C176.397 256.429 176.49 256.809 175.852 260.531C175.206 264.303 172.9 266.377 170.789 265.088ZM178.72 252.865C177.978 251.419 176.93 249.869 176.392 249.42C175.054 248.304 175.584 243.719 177.195 242.472C177.917 241.913 179.354 241.588 180.388 241.749C181.422 241.91 183.176 241.96 184.285 241.861C185.395 241.762 186.86 241.732 187.541 241.795C189.502 241.976 189.019 246.078 186.719 248.782C185.565 250.139 184.432 251.966 184.202 252.841C183.451 255.693 180.179 255.707 178.72 252.865ZM214.588 239.914C212.228 238.986 210.853 237.702 210.543 236.138C209.964 233.221 210.436 233.057 214.329 234.822C216.02 235.588 217.322 235.895 217.222 235.505C217.122 235.114 217.824 235.176 218.783 235.642C220.076 236.272 220.401 237.06 220.044 238.704C219.434 241.517 218.942 241.626 214.588 239.914ZM749.759 84.971C748.536 83.7529 750.052 80.5511 752.133 79.9563C753.929 79.4432 756.049 81.6312 755.536 83.4673C755.119 84.9547 750.857 86.0643 749.759 84.971ZM534.279 143.947C534.069 143.125 534.208 142.099 534.589 141.668C534.97 141.237 535.04 138.949 534.745 136.584C534.096 131.381 535.427 126.541 537.686 125.891C538.619 125.623 539.759 123.498 540.291 121.036C541.211 116.781 541.394 116.61 546.826 114.912C550.868 113.649 553.022 112.351 554.612 110.221C557.204 106.747 558.276 106.285 559.526 108.104C560.525 109.557 557.847 114.072 554.724 116.201C553.686 116.909 552.033 119.1 551.051 121.07C550.069 123.04 548.092 125.334 546.659 126.169C544.364 127.505 537.988 138.276 538.442 140.051C538.536 140.42 537.724 141.784 536.637 143.083C534.964 145.08 534.602 145.213 534.279 143.947ZM191.342 233.137C189.565 232.844 186.82 232.45 185.243 232.261C182.702 231.958 182.117 231.229 180.116 225.868C177.93 220.011 177.728 219.801 173.821 219.31C168.729 218.67 166.906 216.493 170.616 215.482C172.058 215.089 174.25 215.203 175.487 215.734C176.725 216.266 178.52 216.477 179.476 216.204C180.433 215.93 181.376 216.277 181.572 216.975C182.438 220.053 185.529 220.985 192.239 220.189C196.052 219.737 201.355 219.28 204.023 219.174C208.467 218.998 208.94 219.236 209.647 222.005C210.163 224.026 209.99 224.892 209.126 224.617C208.415 224.391 207.488 225.159 207.067 226.324C206.456 228.012 205.848 228.328 204.057 227.886C202.281 227.448 201.261 227.949 199.17 230.288C196.121 233.7 195.692 233.856 191.342 233.137ZM132.941 246.727L132.66 242.983L128.381 244.772C124.416 246.431 124.06 246.393 123.512 244.249C123.187 242.977 122.969 240.016 123.026 237.669C123.145 232.829 125.075 231.587 128.663 234.039C130.358 235.196 131.059 235.221 131.364 234.133C131.673 233.026 132.382 232.992 134.231 233.995C136.654 235.31 136.695 235.271 137.201 231.185C137.483 228.906 137.882 226.994 138.087 226.935C138.292 226.877 139.764 228.182 141.359 229.837C143.184 231.73 144.993 232.635 146.243 232.277C148.988 231.493 150.14 233.625 149.274 237.889C148.48 241.799 147.15 242.822 145.665 240.663C144.721 239.29 141.766 239.401 142.352 240.788C143.851 244.343 143.34 245.437 140.01 245.799C137.803 246.039 136.009 246.926 134.913 248.32C133.255 250.429 133.216 250.397 132.941 246.727ZM739.634 74.8955L735.953 74.001L738.255 69.498C740.149 65.7947 741.264 64.7851 744.534 63.8136C747.843 62.8305 748.797 63.0009 750.223 64.8282C752.492 67.7381 751.978 69.0396 748.127 70.1402C746.055 70.7322 744.652 71.8829 744.126 73.4211C743.34 75.7176 743.203 75.7626 739.634 74.8955ZM174.164 235.733C172.797 235.206 170.943 233.405 170.044 231.731C167.901 227.739 164.701 227.794 165.726 231.805L166.455 234.661L163.83 233.057C161.434 231.593 161.047 231.64 159.417 233.586C157.717 235.616 157.562 235.581 156.227 232.863C155.455 231.291 153.722 229.218 152.376 228.255C149.11 225.918 148.876 224.505 151.78 224.665C154.757 224.829 157.449 224.065 159.903 222.36C161.526 221.232 162.196 221.531 164.212 224.29C165.525 226.087 167.237 227.374 168.016 227.151C170.7 226.384 176.726 230.19 177.06 232.862C177.495 236.35 177.011 236.83 174.164 235.733ZM761.788 67.3323C761.318 66.8639 761.798 66.2333 762.856 65.9311C763.914 65.6289 765.164 65.7648 765.634 66.2333C766.104 66.7017 765.624 67.3323 764.566 67.6345C763.509 67.9368 762.258 67.8008 761.788 67.3323ZM202.856 211.105C199.815 209.6 198.996 209.6 197.488 211.108C196.191 212.404 195.014 212.764 193.144 212.434C187.818 211.494 189.891 209.855 199.466 207.437C207.276 205.465 209.029 205.326 209.628 206.632C210.357 208.22 208.787 212.212 207.262 212.647C206.812 212.776 204.829 212.082 202.856 211.105ZM111.687 237.546C110.882 237.054 110.012 235.824 109.754 234.813C109.369 233.305 110.091 232.744 113.771 231.692C116.239 230.987 118.105 230.577 117.918 230.781C117.73 230.985 116.582 232.792 115.364 234.796C113.646 237.627 112.825 238.241 111.687 237.546Z" fill="#00C0F3"/>
<ellipse cx="510.754" cy="294.651" rx="292.5" ry="292.313" fill="url(#paint0_linear_69_187)" fill-opacity="0.2"/>
<path d="M177.254 325.129C340.454 241.183 538.254 265.834 616.754 288.652M616.754 288.652C541.42 290.151 383.254 342.518 353.254 539.991M616.754 288.652C587.754 302.643 533.054 359.807 546.254 476.532M616.754 288.652C637.42 285.488 682.854 291.351 699.254 340.119M616.754 288.652C659.154 306.241 661.754 346.282 657.754 364.104M616.754 288.652C611.754 261.336 659.754 178.723 737.754 202.707" stroke="black" stroke-opacity="0.6" stroke-width="2"/>
<ellipse cx="739.254" cy="204.206" rx="5" ry="4.9968" fill="#9C0000"/>
<ellipse cx="699.254" cy="341.118" rx="5" ry="4.9968" fill="#9C0000"/>
<ellipse cx="657.254" cy="364.104" rx="5" ry="4.9968" fill="#9C0000"/>
<ellipse cx="546.254" cy="477.031" rx="5" ry="4.9968" fill="#9C0000"/>
<ellipse cx="353.254" cy="538.991" rx="5" ry="4.9968" fill="#9C0000"/>
<ellipse cx="176.254" cy="326.128" rx="5" ry="4.9968" fill="#9C0000"/>
<ellipse cx="615.254" cy="290.151" rx="5" ry="4.9968" fill="#009C51"/>
<path d="M615.226 224.195C609.069 224.203 603.165 226.952 598.811 231.838C594.457 236.725 592.007 243.349 592 250.259C591.993 255.906 593.636 261.4 596.679 265.898C596.679 265.898 597.313 266.834 597.416 266.969L615.226 290.54L633.045 266.957C633.138 266.832 633.774 265.898 633.774 265.898L633.776 265.891C636.817 261.395 638.46 255.904 638.453 250.259C638.446 243.349 635.996 236.725 631.642 231.838C627.288 226.952 621.384 224.203 615.226 224.195ZM615.226 259.737C613.556 259.737 611.923 259.181 610.534 258.14C609.145 257.099 608.063 255.618 607.423 253.887C606.784 252.155 606.617 250.249 606.943 248.41C607.269 246.572 608.073 244.883 609.254 243.558C610.435 242.232 611.94 241.329 613.579 240.964C615.217 240.598 616.915 240.786 618.459 241.503C620.002 242.22 621.321 243.435 622.249 244.994C623.177 246.552 623.672 248.385 623.672 250.259C623.67 252.772 622.779 255.181 621.196 256.958C619.612 258.735 617.466 259.734 615.226 259.737Z" fill="white"/>
<defs>
<linearGradient id="paint0_linear_69_187" x1="297.254" y1="68.2962" x2="510.52" y2="587.06" gradientUnits="userSpaceOnUse">
<stop stop-color="white"/>
<stop offset="1" stop-color="white" stop-opacity="0"/>
</linearGradient>
</defs>
</svg>
