<svg width="931" height="621" viewBox="0 0 931 621" fill="none" xmlns="http://www.w3.org/2000/svg">
<mask id="mask0_101_39" style="mask-type:alpha" maskUnits="userSpaceOnUse" x="0" y="0" width="931" height="621">
<rect width="931" height="621" fill="#4E4E4E"/>
</mask>
<g mask="url(#mask0_101_39)">
<path d="M325.376 619.989C324.046 619.176 324.684 615.513 326.33 614.514C328.338 613.296 330.996 615.026 330.769 617.402C330.612 619.032 326.802 620.86 325.376 619.989ZM316.92 612.597C316.191 611.214 314.501 609.966 313.165 609.823C310.97 609.588 310.588 608.942 309.194 603.091C308.346 599.532 306.77 594.593 305.692 592.117C304.217 588.726 303.913 586.73 304.461 584.029C305.401 579.404 303.707 572.695 301.305 571.526C299 570.405 298.09 565.398 299.325 560.635C299.832 558.682 300.075 556.393 299.865 555.549C299.655 554.705 299.793 552.515 300.171 550.683C300.86 547.348 301.128 538.298 300.751 531.151C300.516 526.69 296.95 513.87 293.439 504.86C291.082 498.811 290.742 498.439 285.821 496.537C279.565 494.118 269.612 485.588 268.65 481.82C268.493 481.204 266.372 479.716 263.937 478.513C259.951 476.545 259.399 475.856 258.401 471.599C257.75 468.822 257.738 465.942 258.374 464.617C258.969 463.377 259.257 460.388 259.014 457.975C258.706 454.919 259.217 452.724 260.696 450.742C263.024 447.622 262.452 444.997 258.252 439.536C256.05 436.674 256.041 436.673 253.066 439.121C250.169 441.506 249.988 441.512 246.541 439.351C244.592 438.128 242.807 437.478 242.576 437.905C242.345 438.332 241.972 437.958 241.746 437.073C241.52 436.189 239.078 434.721 236.321 433.811C233.563 432.902 230.526 431.278 229.573 430.203C227.315 427.657 219.436 426.199 215.296 427.561C211.819 428.705 193.433 425.642 192.973 423.842C192.834 423.296 192.177 422.995 191.513 423.171C190.127 423.541 183.934 418.326 182.08 415.228C181.393 414.082 178.897 411.704 176.533 409.944C174.168 408.185 171.078 405.234 169.666 403.387C166.752 399.577 162.006 397.167 160.188 398.574C159.137 399.388 159.299 400.031 161.351 403.192C163.621 406.689 167.808 411.256 169.404 411.975C170.717 412.567 172.704 416.513 171.817 416.766C169.79 417.346 160.205 408.613 157.325 403.563C155.647 400.621 152.825 397.271 151.053 396.12C149.282 394.968 148.193 393.923 148.635 393.797C149.362 393.589 146.061 391.54 139.989 388.431C136.879 386.839 132.729 383.556 131.86 382C130.247 379.113 125.47 364.6 125.281 362.013C125.17 360.485 124.248 357.744 123.233 355.92C121.865 353.462 121.513 351.607 121.873 348.749C122.559 343.309 121.21 341.461 113.775 337.657C107.297 334.343 105.484 332.58 99.9015 324.162C98.3098 321.761 96.2815 319.445 95.3941 319.013C94.5068 318.581 93.6752 317.815 93.5462 317.31C93.4172 316.805 91.7053 314.888 89.742 313.051C87.0281 310.511 85.5428 309.89 83.5455 310.461C82.1007 310.873 79.5836 310.606 77.9521 309.867C76.3205 309.127 74.1449 308.763 73.1174 309.056C70.5169 309.799 65.1533 309.453 58.4974 308.113C55.389 307.487 52.5216 307.342 52.1253 307.79C51.7291 308.239 51.74 310.083 52.1495 311.888C52.8232 314.856 52.0002 317.222 50.0876 317.813C48.9508 318.164 48.6077 315.572 49.1799 310.954C49.8343 305.673 48.023 303.98 45.907 307.896C43.662 312.05 43.0285 316.871 44.3496 319.75C45.2544 321.721 45.1543 322.697 43.9522 323.623C43.0684 324.305 40.5621 327.493 38.3827 330.709C36.2032 333.925 33.8238 336.727 33.0953 336.935C32.3667 337.143 31.7352 337.94 31.692 338.706C31.6487 339.472 30.8383 338.4 29.8911 336.323C28.9438 334.246 27.3835 332.067 26.4236 331.481C25.4637 330.895 24.4078 329.356 24.0772 328.062C22.6521 322.482 20.5615 319.574 17.4615 318.857C15.6618 318.441 14.1053 317.294 13.8191 316.174C13.5443 315.098 12.8326 314.063 12.2376 313.874C10.9561 313.467 13.3637 308.602 15.1047 308.081C15.7636 307.884 17.8706 306.59 19.7869 305.207C22.8369 303.006 23.196 302.248 22.668 299.122C22.1423 296.01 21.5946 295.433 18.4131 294.638C16.4047 294.136 13.7277 294.196 12.4642 294.772C9.35587 296.187 4.66383 293.597 4.26905 290.248C4.0219 288.152 4.46177 287.631 6.81181 287.238C8.37469 286.976 10.9269 287.206 12.4834 287.748C15.1136 288.664 15.3663 288.588 16.0626 286.663C16.4746 285.523 17.3048 284.45 17.9075 284.278C18.5102 284.106 18.7098 282.816 18.351 281.411C17.8292 279.368 17.218 278.995 15.295 279.544C13.973 279.922 12.7793 279.792 12.6423 279.256C12.2372 277.67 6.18914 274.376 5.37487 275.298C4.96318 275.764 4.46673 275.546 4.27164 274.812C4.07657 274.079 3.41806 272.568 2.8083 271.454C1.88691 269.771 2.36975 268.8 5.66682 265.705C7.84877 263.656 9.97802 260.601 10.3985 258.915C10.819 257.228 12.7732 254.251 14.7411 252.298C17.8476 249.216 18.6679 248.834 20.9666 249.402C22.4227 249.762 24.2762 249.543 25.0855 248.917C25.8948 248.29 27.7233 248.184 29.1488 248.681C30.5743 249.177 33.6813 249.329 36.0532 249.018C38.4251 248.707 42.0259 248.59 44.055 248.759C46.084 248.928 49.3829 248.423 51.3858 247.637C53.7484 246.71 56.0702 246.579 57.9964 247.265C59.6294 247.846 61.642 248.244 62.4689 248.149C63.2958 248.055 65.225 248.879 66.756 249.981C70.4265 252.624 72.8395 251.778 74.8225 247.153C76.6149 242.973 80.97 239.644 84.7358 239.577C86.924 239.538 87.0557 239.266 86.0127 236.937C85.2217 235.171 85.2756 234.011 86.1799 233.311C87.7114 232.126 89.4598 233.478 91.3213 237.289C92.9025 240.526 94.125 241.022 95.9232 239.155C97.2674 237.76 101.999 237.811 107.142 239.277C108.366 239.625 110.95 239.744 112.884 239.541C115.567 239.259 116.617 239.705 117.312 241.422C117.875 242.81 119.303 243.763 121.043 243.911C122.593 244.042 125.186 244.508 126.803 244.946C131.258 246.151 132.537 245.343 134.776 239.906C136.665 235.32 137.117 234.896 140.432 234.596C142.414 234.417 144.667 234.56 145.439 234.914C146.211 235.267 147.589 235.048 148.5 234.427C149.515 233.735 151.774 233.892 154.334 234.833C158.386 236.323 158.533 236.3 159.161 234.09C159.63 232.445 160.557 231.76 162.498 231.625C165.972 231.384 168.267 226.149 167.027 221.294C166.345 218.625 165.302 217.535 162.101 216.143C157.9 214.317 155.804 210.446 157.408 207.477C158.77 204.958 164.154 207.254 165.157 210.78C165.628 212.435 166.48 213.951 167.051 214.148C167.622 214.345 169.042 216.053 170.207 217.943C171.636 220.263 173.011 221.295 174.434 221.12C175.801 220.951 177.228 221.951 178.491 223.963C181.579 228.885 184.088 228.933 186.425 224.114C187.501 221.896 188.174 219.266 187.919 218.271C187.288 215.8 187.867 215.018 190.338 214.999C192.02 214.987 192.476 215.587 192.631 218.019C192.737 219.688 193.306 221.207 193.895 221.394C195.045 221.759 195.716 225.249 194.919 226.723C194.653 227.217 194.708 228.693 195.043 230.004C195.535 231.931 195.139 232.534 192.971 233.154C191.496 233.575 188.815 235.345 187.012 237.086C185.209 238.827 182.807 240.274 181.674 240.301C179.05 240.364 176.78 242.772 178.441 243.731C179.101 244.111 180.511 244.346 181.575 244.251C182.638 244.156 183.809 244.561 184.177 245.15C184.918 246.335 180.462 250.978 177.874 251.717C173.167 253.062 170.763 261.876 172.285 272.205C172.774 275.522 172.839 278.615 172.43 279.079C171.484 280.151 172.223 283.002 173.861 284.6C174.934 285.646 175.436 285.522 177.178 283.781C180.275 280.684 182.389 281.433 183.567 286.045C184.737 290.628 185.773 291.594 187.205 289.436C188.784 287.057 193.124 288.306 195.747 291.894C197.701 294.569 198.56 294.884 202.463 294.357C209.358 293.425 212.772 294.327 212.688 297.057C212.649 298.309 212.606 300.077 212.592 300.985C212.578 301.958 214.347 303.395 216.902 304.484L221.235 306.331L222.719 303.034C223.778 300.682 223.871 298.435 223.044 295.197C222.406 292.7 221.893 290.531 221.904 290.377C222.197 286.254 220.756 280.09 218.663 276.52C216.688 273.149 215.985 270.687 215.432 265.194C214.233 253.284 214.238 253.229 216.332 253.678C217.368 253.9 220.848 253.938 224.066 253.762C227.666 253.566 230.052 253.972 230.267 254.818C230.46 255.573 231.121 256.223 231.734 256.261C232.348 256.3 233.589 258.196 234.492 260.476C235.925 264.097 236.751 264.8 241.019 266.041C246.392 267.602 247.803 266.926 246.862 263.241C246.012 259.912 247.397 258.671 248.862 261.449C249.517 262.692 252.564 266.248 255.633 269.351C258.702 272.455 261.282 275.265 261.366 275.596C261.609 276.546 264.32 277.831 267.864 278.676C270.75 279.364 271.248 279.974 272.241 284.038C273.81 290.462 271.084 296.327 265.829 297.828C263.794 298.41 261.2 298.586 260.065 298.219C255.791 296.839 248.991 303.884 250.164 308.478C250.553 310.002 251.151 310.635 251.658 310.06C252.123 309.533 253.537 309.084 254.799 309.061C256.459 309.032 257.272 309.763 257.736 311.7C258.264 313.906 259.099 314.435 262.454 314.691C268.452 315.147 269.172 315.913 267.667 320.237C266.823 322.661 265.539 324.218 264.025 324.65C261.318 325.424 260.944 324.724 262.156 321.155C262.935 318.864 262.848 318.56 261.374 318.397C258.529 318.083 252.658 325.402 247.242 336.015C245.492 339.445 243.573 342.208 242.207 343.266C241.36 343.921 241.039 345.56 241.43 347.24C243.316 355.359 243.155 356.809 239.737 362.496C235.054 370.287 234.513 373.638 236.912 379.998C238.188 383.38 238.698 386.419 238.395 388.826C237.936 392.461 237.906 392.485 235.292 391.254C232.914 390.134 232.701 389.691 233.147 386.803C233.449 384.851 233.218 383.426 232.559 383.162C231.963 382.924 230.764 381.945 229.894 380.988C227.627 378.491 221.406 379.836 219.372 383.262C218.081 385.436 216.697 386.127 210.836 387.523C202.655 389.472 198.95 392.472 197.592 398.25C196.036 404.868 201.5 417.718 205.856 417.686C206.982 417.677 208.002 418.055 208.122 418.525C208.387 419.566 214.349 419.696 216.942 418.717C217.976 418.327 220.308 416.208 222.125 414.008C223.942 411.807 225.962 410.177 226.616 410.384C228.348 410.935 228.927 414.213 227.635 416.16C224.967 420.181 228.537 423.575 233.84 422.06C238.918 420.608 243.755 423.472 244.352 428.284C244.595 430.246 244.649 432.372 244.471 433.009C243.9 435.049 248.519 436.772 250.655 435.315C251.725 434.586 254.345 434.092 256.475 434.219C259.731 434.413 260.758 434.053 262.911 431.961C264.32 430.593 265.888 427.872 266.395 425.915C266.903 423.959 267.654 422.261 268.066 422.144C269.143 421.836 269.391 425.644 268.438 427.861C267.886 429.148 268.005 429.866 268.816 430.123C270.426 430.635 273.784 428.236 274.594 425.996C275.113 424.562 276.307 424.054 280.181 423.619C282.891 423.316 286.83 422.474 288.935 421.749C293.282 420.251 297.767 421.727 301.292 425.817C302.952 427.742 304.807 428.337 309.416 428.422C316.356 428.55 321.153 430.89 325.205 436.126C327.145 438.632 329.071 439.93 331.08 440.085C332.724 440.212 335.999 441.325 338.357 442.557C342.451 444.696 342.804 444.694 346.141 442.5C351.083 439.25 355.98 439.123 360.001 442.142C361.845 443.527 363.471 445.116 363.614 445.674C363.756 446.232 365.086 447.484 366.568 448.456C369.155 450.152 369.256 450.435 369.058 455.487C368.886 459.903 368.491 460.81 366.609 461.114C365.069 461.362 364.37 462.165 364.383 463.668C364.394 464.873 363.948 465.989 363.393 466.148C362.838 466.307 362.728 466.647 363.149 466.905C363.571 467.162 363.57 469.012 363.147 471.016C362.724 473.02 362.764 477.499 363.236 480.97C364.187 487.972 362.21 492.792 357.878 494.03C356.438 494.442 355.188 495.875 354.6 497.788C353.989 499.779 352.994 500.886 351.807 500.895C347.987 500.923 347.584 503.159 348.677 518.236C348.919 521.565 347.973 525.36 346.819 525.689C346.28 525.843 345.526 528.525 345.145 531.648C344.764 534.771 343.878 537.491 343.177 537.691C342.476 537.891 340.469 537.108 338.718 535.951C336.026 534.172 335.448 534.126 334.977 535.65C334.671 536.642 335.043 539.002 335.802 540.895C336.667 543.05 336.901 545.851 336.428 548.388C335.817 551.668 335.125 552.597 332.797 553.262C329.753 554.132 328.518 555.559 328.248 558.517C328.157 559.512 326.774 561.016 325.174 561.859C322.29 563.379 322.28 563.431 324.113 567.867C326.25 573.037 325.782 574.905 321.464 578.46C318.8 580.652 318.688 581.091 320.046 584.008C320.857 585.75 322.071 588.368 322.744 589.826C323.568 591.609 323.553 594.476 322.7 598.586C322.003 601.947 321.401 606.685 321.362 609.116C321.278 614.437 318.881 616.316 316.92 612.597ZM201.679 346.851C201.858 346.8 202.135 344.255 202.296 341.195C202.457 338.134 202.899 335.542 203.28 335.433C204.699 335.027 206.925 337.105 207.506 339.377C207.836 340.669 208.567 341.595 209.131 341.434C211.049 340.885 213.336 337.968 212.97 336.535C212.769 335.75 213.396 334.569 214.363 333.91C217.495 331.775 215.542 329.924 208.978 328.806C204.316 328.012 202.136 327.042 201.026 325.267C199.793 323.295 198.856 322.983 196.184 323.654C194.361 324.111 191.677 324.475 190.22 324.464C186.655 324.435 183.06 329.312 185.519 330.84C186.397 331.385 188.716 331.374 190.671 330.815C193.594 329.98 194.382 330.181 195.095 331.943C195.573 333.122 195.643 335.667 195.25 337.599C194.858 339.53 194.786 342.083 195.089 343.272C195.94 346.603 198.583 349.09 200.058 347.948C200.771 347.396 201.5 346.902 201.679 346.851ZM171.493 317.257C170.476 314.756 169.241 311.493 168.747 310.007C167.369 305.864 165.489 305.167 162.66 307.752C159.752 310.41 159.742 313.392 162.642 313.371C164.677 313.356 165.823 315.289 166.61 320.063C166.792 321.166 168.175 322.879 169.685 323.869C172.132 325.473 172.479 325.459 172.885 323.737C173.135 322.674 172.509 319.759 171.493 317.257ZM133.227 292.854C138.744 284.591 138.95 283.197 134.638 283.307C133.088 283.347 130.877 282.621 129.725 281.694C126.41 279.028 125.315 281.461 127.412 286.83C129.321 291.719 129.207 293.329 126.824 295.124C124.849 296.611 125.611 299.536 127.809 298.907C128.744 298.64 131.182 295.916 133.227 292.854ZM111.115 271.727C112.105 270.751 113.11 269.354 113.349 268.623C113.648 267.706 114.19 267.684 115.093 268.553C116.6 270.001 117.694 268.587 118.531 264.11C118.809 262.623 119.962 260.985 121.093 260.469C122.351 259.895 122.965 258.815 122.677 257.684C122.068 255.303 120.129 254.406 115.695 254.453C112.767 254.485 111.458 255.153 108.394 258.18C101.699 264.795 99.9396 270.017 105.057 268.085C108.517 266.779 108.832 266.983 107.925 269.937C106.677 274 108.036 274.763 111.115 271.727ZM910.748 439.923C907.476 437.413 908.273 434.173 914.524 424.562C916.894 420.917 919.22 420.731 919.852 424.136C920.641 428.395 920.634 429.003 919.803 428.495C919.387 428.241 918.588 428.88 918.029 429.915C917.469 430.951 916.151 432.044 915.1 432.344C914.049 432.644 913.557 433.256 914.005 433.703C915.188 434.88 915.098 439.771 913.876 440.717C913.303 441.16 911.896 440.803 910.748 439.923ZM916.843 428.57C917.032 427.895 916.602 427.834 915.836 428.427C914.343 429.583 914.226 430.402 915.609 430.007C916.106 429.864 916.662 429.218 916.843 428.57ZM849.702 442.926C847.832 442.515 847.041 441.646 846.819 439.754C846.65 438.32 846.559 437.057 846.618 436.947C846.842 436.524 849.596 435.464 851.749 434.973C853.73 434.521 854.08 434.919 854.658 438.284C855.388 442.535 853.97 443.863 849.702 442.926ZM922.363 410.951C921.486 410.372 921.055 409.817 921.405 409.717C921.755 409.617 921.369 409.031 920.547 408.415C919.477 407.613 919.302 407.014 919.929 406.304C920.411 405.758 920.269 404.039 919.613 402.484C918.426 399.669 918.433 399.661 921.158 400.768C922.663 401.38 924.103 402.638 924.358 403.564C924.681 404.741 925.357 404.922 926.606 404.163C928.975 402.727 929.358 404.654 927.417 408.244C925.523 411.749 924.446 412.325 922.363 410.951ZM843.173 424.866C840.461 424.661 839.222 424.986 838.469 426.099C837.419 427.652 835.755 426.768 829.469 421.318C828.081 420.114 825.841 419.149 824.493 419.174C823.051 419.199 821.928 418.513 821.767 417.508C820.686 410.759 818.111 409.809 814.85 414.957C812.671 418.398 811.804 418.588 810.044 416.011C807.601 412.436 804.887 411.81 799.122 413.492C795.295 414.609 792.204 416.403 788.476 419.672C784.122 423.489 782.331 424.433 778.02 425.182C775.158 425.68 771.121 427.114 769.049 428.37C766.976 429.627 764.912 430.429 764.461 430.154C764.011 429.878 763.035 427.808 762.294 425.554C761.553 423.299 760.286 420.96 759.48 420.356C758.674 419.751 757.407 417.801 756.665 416.023C755.923 414.244 754.311 412.089 753.084 411.234C751.38 410.048 750.859 408.915 750.881 406.448C750.9 404.418 750.401 402.834 749.538 402.188C748.771 401.613 748.289 400.271 748.446 399.146C748.6 398.04 748.576 396.818 748.391 396.432C747.86 395.321 752.572 391.172 756.416 389.367C765.039 385.318 766.163 384.418 766.972 380.924C767.416 379.008 768.503 377.065 769.387 376.606C770.272 376.147 771.836 373.99 772.864 371.813C774.42 368.518 775.03 368 776.512 368.721C780.29 370.558 782.385 369.379 785.909 363.429C787.81 360.22 790.122 357.372 791.045 357.102C791.969 356.831 792.618 356.191 792.487 355.679C792.231 354.675 793.392 354.426 797.173 354.672C799.288 354.81 799.691 355.413 800.516 359.678C801.449 364.502 801.48 364.534 806.332 365.451C814.519 366.999 816.851 366.608 817.112 363.643C817.235 362.237 816.908 360.942 816.384 360.766C815.133 360.345 815.131 354.303 816.381 353.423C816.915 353.047 817.869 353.593 818.501 354.636C819.133 355.678 821.292 357.161 823.299 357.93C828.032 359.745 828.744 360.439 829.721 364.19C830.339 366.563 831.813 368.025 835.859 370.28C838.788 371.913 841.328 372.981 841.505 372.654C841.957 371.818 849.722 377.808 850.099 379.284C850.27 379.952 850.955 380.533 851.622 380.574C853.385 380.685 856.349 388.684 856.498 393.738C856.569 396.129 856.025 399.975 855.29 402.285C854.554 404.594 854.221 407.537 854.549 408.823C855.141 411.14 850.728 421.585 848.16 423.945C847.442 424.605 845.198 425.019 843.173 424.866ZM521.447 490.455C519.045 488.656 513.916 480.837 510.315 473.486C509.667 472.164 508.487 470.775 507.693 470.399C505.265 469.25 501.856 464.645 500.108 460.151C499.194 457.803 497.593 455.299 496.55 454.586C493.211 452.304 490.788 444.278 490.843 435.684C490.887 428.964 490.607 427.505 488.748 424.774C487.568 423.04 484.651 418.764 482.265 415.272C479.879 411.779 477.092 408.58 476.071 408.161C474.557 407.541 474.031 406.204 473.223 400.915L472.233 394.429L469.274 394.635C467.647 394.748 465.217 394.223 463.874 393.468C462.531 392.713 461.028 392.211 460.533 392.352C460.039 392.493 459.209 391.991 458.69 391.235C457.453 389.437 452.819 390.799 450.608 393.611C448.762 395.959 444.325 396.929 437.987 396.369C435.418 396.143 434.084 396.532 432.421 397.993C428.173 401.725 424.886 401.785 419.078 398.237C416.093 396.414 413.128 393.931 412.489 392.721C411.849 391.511 409.583 389.915 407.453 389.174C401.815 387.214 399.521 384.117 398.902 377.63C398.622 374.696 397.738 369.622 396.937 366.354C395.251 359.476 395.865 355.043 399.498 347.865C400.925 345.046 402.121 341.621 402.155 340.255C402.188 338.889 402.609 337.659 403.088 337.522C404.963 336.987 408.244 328.624 408.902 322.708C409.646 316.002 409.404 316.204 417.823 315.306C421.293 314.937 422.787 314.198 425.246 311.635C427.762 309.015 430.21 307.835 438.617 305.193C448.354 302.132 448.98 302.063 450.223 303.911C451.046 305.135 451.294 307.055 450.885 309.054C449.894 313.906 450.282 314.171 455.997 312.538C458.913 311.704 462.15 311.201 463.191 311.419C464.231 311.636 467.301 311.925 470.013 312.061C474.628 312.291 475.015 312.155 476.079 309.939C477.337 307.314 478.871 306.594 481.735 307.282C487.024 308.553 491.737 308.866 495.698 308.208C498.11 307.808 501.356 307.451 502.912 307.415C504.468 307.379 506.799 306.484 508.093 305.426C512.052 302.188 513.454 290.523 510.226 287.678C508.554 286.204 501.147 286.464 496.183 288.172C491.556 289.764 491.415 289.732 490.333 286.832C489.724 285.197 488.692 283.459 488.039 282.968C485.749 281.245 487.215 278.867 493.602 273.94C499.608 269.307 500.412 268.953 505.406 268.743C515.072 268.336 516.291 268.157 518.567 266.808C522.05 264.743 520.494 261.827 513.648 257.594C510.279 255.511 507.309 252.97 507.048 251.949C506.577 250.105 504.472 249.36 501.851 250.109C500.97 250.361 500.771 251.609 501.288 253.635C501.97 256.302 501.754 256.814 499.843 257.062C498.378 257.252 497.277 256.563 496.678 255.083C496.173 253.834 495.077 252.737 494.242 252.644C491.944 252.391 488.971 256.567 489.032 259.963C489.062 261.62 488.41 263.836 487.583 264.887C486.686 266.028 486.386 267.992 486.839 269.764C487.779 273.446 485.367 277.838 481.852 278.843C479.12 279.623 478.481 281.47 479.526 285.561C480.444 289.156 479.096 289.837 475.037 287.827C472.635 286.638 470.414 284.312 468.506 280.988C465.917 276.476 465.103 275.847 460.72 274.961C458.028 274.418 454.869 273.069 453.7 271.965C451.011 269.425 447.738 270.161 448.497 273.134C449.369 276.548 453.913 279.802 459.21 280.806C464.446 281.798 465.193 282.563 463.467 285.164C462.865 286.07 462.487 287.102 462.627 287.456C464.107 291.214 461.241 292.643 459.364 289.083C458.668 287.763 456.826 285.748 455.271 284.605C451.951 282.165 440.615 275.282 440.139 275.418C439.959 275.469 438.432 276.892 436.746 278.58C435.06 280.267 432.292 282.045 430.596 282.529C427.491 283.416 425.257 287.162 426.03 290.185C426.378 291.549 424.818 295.256 423.806 295.47C423.517 295.531 422.857 295.702 422.339 295.85C421.821 295.998 420.964 298.339 420.435 301.052C419.427 306.214 418.384 308.163 416.882 307.687C416.391 307.53 414.96 308.521 413.704 309.889C411.587 312.19 411.163 312.315 407.974 311.578C403.777 310.608 401.977 308.709 400.88 304.093C400.42 302.159 399.544 299.457 398.932 298.087C398.321 296.718 397.919 294.425 398.04 292.993C398.239 290.64 398.669 290.347 402.514 289.942C413.637 288.771 413.172 289.063 412.574 283.621C411.953 277.969 409.006 274.127 405.597 274.526C404.456 274.659 403.372 274.181 403.189 273.463C402.674 271.447 405.129 266.789 406.987 266.258C410.532 265.245 414.353 260.377 421.289 248.038C428.128 235.872 428.441 235.004 427.422 231.016C425.9 225.057 428.709 225.696 431.141 231.863L433.004 236.587L439.476 235.41C444.503 234.495 446.378 233.72 447.87 231.937C449.099 230.47 450.87 229.568 452.782 229.435C456.192 229.198 456.665 228.275 456.628 221.932C456.603 217.654 456.702 217.524 460.872 216.332C465.049 215.139 465.129 215.033 464.548 211.45C463.787 206.751 464.515 205.179 468.736 202.404C473.735 199.117 474.425 196.867 470.898 195.358C466.976 193.679 463.539 194.156 459.708 196.911C455.71 199.785 455.2 199.398 452.793 191.667C451.289 186.838 451.224 184.816 452.394 179.244C454.071 171.258 453.463 166.106 450.862 166.269C448.142 166.439 444.993 174.057 446.87 175.926C447.684 176.737 442.449 187.07 441.017 187.479C440.053 187.755 439.707 194.402 440.553 196.388C440.899 197.198 442.218 198.78 443.485 199.904C445.973 202.113 447.677 206.971 446.45 208.36C446.033 208.832 444.973 212.37 444.094 216.223C443.214 220.076 442.013 223.366 441.423 223.534C439.834 223.988 436.283 221.279 435.754 219.209C435.117 216.715 430.737 212.339 429.291 212.752C428.639 212.939 427.905 213.765 427.662 214.588C427.418 215.411 426.639 216.908 425.93 217.914C424.81 219.503 424.148 219.435 420.897 217.396C418.838 216.105 416.888 214.007 416.563 212.735C416.237 211.462 415.333 210.03 414.553 209.554C413.773 209.077 412.605 206.277 411.956 203.328C410.687 197.559 411.065 196.54 416.468 191.159C419.532 188.108 422.034 181.711 422.239 176.404C422.298 174.88 422.995 172.803 423.79 171.788C424.584 170.774 425.012 169.074 424.74 168.011C424.469 166.949 425.639 162.82 427.341 158.836C429.043 154.851 430.753 149.658 431.141 147.295C431.91 142.609 434.252 139.546 436.846 139.832C437.755 139.933 440.378 138.075 442.675 135.705C445.816 132.465 448.218 130.978 452.355 129.713C458.584 127.808 459.857 129.005 457.21 134.279L455.723 137.241L459.186 136.251C461.735 135.523 463.321 135.793 465.192 137.275C466.981 138.691 468.67 139.021 470.886 138.388C472.619 137.893 475.059 138.042 476.309 138.72C477.558 139.397 480.353 140.448 482.52 141.055C485.185 141.801 487.176 143.292 488.671 145.66C490.687 148.854 490.744 149.335 489.32 151.146C488.462 152.237 487.049 153.052 486.182 152.956C485.314 152.86 484.412 153.467 484.178 154.304C483.585 156.425 477.763 155.417 475.434 152.791C473.935 151.102 470.741 150.524 467.423 151.343C466.889 151.475 466.48 152.714 466.515 154.096C466.563 156.023 467.403 156.958 470.119 158.107C474.013 159.756 475.482 161.394 476.598 165.337C477.398 168.16 481.821 171.075 484.128 170.299C484.912 170.035 485.424 168.72 485.266 167.376C485.092 165.897 485.874 164.244 487.25 163.187C488.499 162.226 490.287 159.826 491.224 157.852C492.76 154.618 495.409 152.78 501.994 150.38C503.369 149.878 501.97 147.357 499.605 146.074C496.727 144.513 495.889 141.884 497.385 139.114C499.01 136.108 500.18 136.209 501.002 139.427C502.483 145.223 508.04 145.269 509.442 139.497C510.58 134.81 521.091 125.182 521.846 128.136C522.418 130.375 526.473 129.244 528.134 126.382C529.337 124.31 530.549 123.456 532.336 123.424C534.281 123.389 535.335 122.451 537.016 119.258C539.099 115.3 539.356 115.136 543.467 115.128C545.822 115.123 548.227 114.748 548.813 114.295C550.176 113.239 550.156 109.848 548.751 104.281C548.14 101.854 547.852 98.8835 548.113 97.6793C548.44 96.1769 548.206 95.3684 547.37 95.1028C546.644 94.8722 547.152 93.598 548.626 91.9532C549.987 90.4338 550.982 88.7243 550.836 88.1542C550.418 86.5174 555.928 85.4044 557.738 86.7603C558.975 87.6873 559.174 88.3481 558.56 89.4847C557.389 91.6522 559.748 99.8336 562.431 102.91C565.871 106.853 568.178 115.155 567.581 121.44C567.118 126.304 566.807 126.84 564.181 127.299C559.723 128.078 558.943 130.99 562.134 134.939C564.086 137.356 565.03 137.815 566.152 136.891C566.959 136.227 568.84 135.011 570.332 134.188C573.638 132.367 577.144 122.489 576.031 118.133C575.11 114.527 575.819 109.497 577.309 109.071C578.027 108.866 579.111 111.176 580.352 115.552C581.412 119.292 582.794 122.666 583.423 123.05C584.991 124.008 590.638 118.773 590.14 116.824C589.927 115.987 588.832 114.434 587.708 113.373C586.584 112.311 585.011 109.605 584.214 107.361C582.349 102.113 581.457 101.295 578.733 102.336C575.818 103.451 571.138 102.252 569.803 100.049C566.809 95.1079 563.941 85.4052 564.621 82.5206C565.062 80.6539 565.321 80.6959 567.167 82.9316C568.298 84.3011 569.951 85.5433 570.84 85.6922C580.349 87.2846 581.177 87.7995 582.528 92.9545C584.237 99.4768 585.301 100.487 587.981 98.1315C589.623 96.6896 589.864 95.5383 589.134 92.6369C588.627 90.618 588.209 87.9717 588.206 86.756C588.202 85.2059 586.712 83.5173 583.216 81.1026C579.27 78.3773 578.326 77.2232 578.685 75.5664C578.935 74.4151 579.44 73.3506 579.807 73.2008C584.256 71.3871 586.477 68.7527 585.895 65.9817C585.827 65.6556 586.421 63.3894 587.215 60.9456C588.134 58.117 589.225 56.561 590.217 56.6638C591.073 56.7526 591.439 56.6205 591.029 56.3702C590.619 56.1198 591.529 53.2662 593.051 50.0288C598.773 37.8595 598.207 38.4903 604.501 37.2715C609.524 36.2988 610.643 36.4891 613.769 38.8486C616.335 40.7845 617.831 41.2248 619.142 40.4295C621.96 38.7201 622.839 34.9521 621.097 32.0538C620.277 30.6899 619.023 28.3842 618.31 26.9301C617.019 24.2962 617.034 24.2805 622.303 22.775C627.191 21.378 627.689 21.4504 628.892 23.7324C630.01 25.8526 630.523 25.9978 632.528 24.7616C636.912 22.0576 641.224 21.2722 642.727 22.904C643.51 23.755 645.228 25.1087 646.543 25.9124C648.758 27.2655 648.87 27.5863 648.051 30.2517C647.565 31.8347 647.398 34.0325 647.68 35.1358C648.281 37.4901 647.313 39.3201 642.858 44.2496C641.057 46.2417 639.729 48.4358 639.905 49.1255C640.081 49.8152 639.768 51.225 639.21 52.2584C638.377 53.7998 638.496 54.3944 639.876 55.5687C641.453 56.9113 641.752 56.7752 644.695 53.3781C646.421 51.386 648.222 48.8519 648.697 47.7468C649.477 45.9312 649.934 45.7905 653.431 46.2873C655.56 46.5897 657.619 47.1053 658.006 47.4331C658.393 47.7609 660.431 48.8547 662.534 49.8639C665.491 51.2832 667.034 51.3796 669.348 50.2897C670.993 49.5147 675.182 48.7895 678.657 48.6781C684.835 48.48 685.036 48.3999 687.737 45.0625C690.683 41.4228 692.362 40.4349 692.786 42.0923C692.929 42.6542 693.646 42.9426 694.378 42.7333C696.56 42.1098 699.832 46.0152 701.509 51.2435L703.08 56.14L708.377 54.2728C711.365 53.2196 716.161 52.4589 719.38 52.5278C724.678 52.6412 728.738 51.2671 727.31 49.8444C726.972 49.5086 726.98 47.8447 727.327 46.1468C727.674 44.449 727.843 42.0204 727.701 40.75C727.56 39.4796 728.06 37.7345 728.812 36.8721C729.905 35.6185 730.896 35.7208 733.756 37.3823C737.357 39.4746 744.08 39.1704 744.719 36.8863C745.15 35.3466 750.864 35.2622 753.523 36.7563C754.757 37.4497 756.198 38.9553 756.726 40.1021C758.139 43.1685 758.897 43.6914 762.313 43.9554C764.786 44.1466 766.029 43.5938 768.532 41.1899C773.425 36.4917 776.28 36.495 778.345 41.2012C779.412 43.6333 783.545 44.7045 788.537 43.8428C790.647 43.4787 794.092 43.6864 796.194 44.3044C798.296 44.9223 800.556 45.2736 801.216 45.0849C801.876 44.8962 804.176 45.4721 806.327 46.3646C811.257 48.4108 815.865 47.3568 815.099 44.358C814.805 43.2098 815.312 40.7598 816.224 38.9135L817.883 35.5568L823.535 36.8721C826.644 37.5955 829.946 37.9707 830.873 37.7058C831.8 37.4409 833.628 37.9554 834.936 38.8491C837.266 40.4414 843.469 42.3394 843.226 41.3855C843.158 41.1194 844.465 41.007 846.131 41.1358C848.489 41.318 849.487 42.1353 850.634 44.8223C851.444 46.7211 852.73 48.7416 853.492 49.3122C854.949 50.4041 858.548 48.8655 858.153 47.3196C857.77 45.821 861.498 45.2764 863.552 46.531C866.376 48.2566 866.607 50.6868 864.38 55.2773L862.397 59.3653L854.116 57.3587C849.561 56.2551 845.181 55.5388 844.383 55.7669C843.585 55.9951 842.625 57.6891 842.251 59.5315C841.877 61.3739 840.931 63.3772 840.148 63.9832C838.973 64.8926 839.088 66.2187 840.805 71.5713L842.886 78.0574L838.725 81.1367C836.437 82.8303 834.646 84.535 834.746 84.9249C834.845 85.3149 833.94 86.2191 832.733 86.9343C831.527 87.6496 830.292 89.659 829.989 91.3997C829.505 94.182 828.896 94.7198 824.948 95.8479C821.058 96.9595 820.187 97.705 818.432 101.422C816.639 105.223 815.99 105.759 812.764 106.109C807.989 106.628 805.831 109.074 807.252 112.359C812.233 123.877 812.424 130.127 807.935 134.659C806.492 136.115 805.033 138.939 804.691 140.934C803.99 145.033 801.817 146.303 800.476 143.397C798.385 138.869 796.992 131.692 797.819 129.711C798.411 128.29 798.372 127.956 797.698 128.7C797.145 129.311 796.568 129.324 796.416 128.729C796.11 127.533 797.421 124.324 800.382 119.014C801.452 117.095 802.153 114.842 801.94 114.008C801.727 113.174 802.616 110.44 803.917 107.933C805.217 105.426 806.188 102.415 806.076 101.241C805.905 99.4584 805.407 99.285 803.052 100.187C801.502 100.781 799.163 101.018 797.854 100.713C795.917 100.262 795.066 100.687 793.279 102.998C790.554 106.522 788.663 110.412 788.023 113.806C787.48 116.687 783.865 118.517 782.228 116.739C780.217 114.555 776.066 114.871 773.722 117.387C771.833 119.414 770.977 119.691 767.28 119.471C764.108 119.282 762.536 119.658 761.145 120.941C760.117 121.89 758.246 123.226 756.988 123.912C753.804 125.646 747.967 141.201 748.41 146.773C748.766 151.255 749.796 152.389 753.263 152.113C754.517 152.013 756.09 153.482 757.877 156.424C760.224 160.288 760.665 161.909 761.152 168.488C761.462 172.668 761.34 176.782 760.882 177.629C760.424 178.477 759.726 180.719 759.332 182.611C758.424 186.972 753.089 196.946 751.409 197.426C750.709 197.626 748.585 199.027 746.689 200.539C743.743 202.888 743.055 204.385 741.943 210.86C740.772 217.679 740.842 218.735 742.652 221.477C744.417 224.152 744.495 224.854 743.295 227.271L741.928 230.02L740.635 227.567C739.923 226.218 739.501 224.543 739.696 223.845C740.086 222.452 737.011 220.175 735.372 220.643C734.338 220.938 733.826 220.074 732.959 216.569C732.589 215.074 731.994 214.942 730.102 215.938C724.356 218.964 724.054 218.999 723.14 216.74C722.605 215.418 721.575 214.721 720.578 215.006C718.729 215.534 714.31 223.292 714.79 225.168C715.199 226.769 718.796 227.572 721.764 226.724C725.452 225.67 726.122 227.353 723.757 231.729C721.729 235.482 721.724 236.033 723.666 241.75C725.126 246.045 726.386 248.141 728.015 248.979C730.24 250.124 730.288 250.293 729.627 254.679C728.579 261.624 723.232 271.967 719.741 273.799C718.111 274.655 715.275 276.713 713.44 278.372C711.605 280.031 709.608 281.231 709.002 281.039C707.769 280.647 702.036 282.536 699.671 284.114C697.118 285.816 700.551 295.74 704.295 297.481C706.322 298.424 709.818 302.702 710.686 305.3C711.937 309.045 710.387 314.139 707.472 315.867C705.6 316.977 704.165 316.585 699.169 313.599C695.847 311.614 692.975 309.384 692.785 308.645C692.564 307.783 691.528 307.685 689.901 308.373C687.152 309.534 685.496 314.529 687.381 315.973C687.977 316.43 689.518 318.616 690.806 320.832C692.094 323.048 694.368 325.674 695.86 326.667C699.971 329.404 704.897 334.596 704.347 335.613C704.078 336.11 702.195 335.266 700.161 333.737C698.128 332.209 695.419 330.27 694.142 329.43C689.637 326.464 688.19 323.891 683.236 310.031C680.448 302.229 677.627 299.16 675.342 301.443C673.669 303.116 671.747 303.025 671.294 301.252C671.143 300.663 669.645 299.166 667.963 297.924C666.282 296.682 664.593 295.165 664.21 294.552C663.827 293.94 660.632 293.875 657.111 294.409C650.854 295.356 650.663 295.466 648.753 299.217C647.678 301.328 645.414 304.654 643.722 306.607C640.636 310.169 639.273 313.766 639.62 317.435C639.722 318.516 639.41 320.565 638.927 321.987C638.444 323.41 638.206 325.191 638.399 325.947C638.951 328.109 634.174 336.842 632.927 335.948C632.333 335.523 630.627 332.811 629.134 329.921C627.642 327.032 624.994 323.358 623.25 321.758C621.506 320.157 619.754 317.575 619.357 316.02C618.96 314.465 618.21 313.314 617.691 313.462C617.173 313.61 616.181 312.656 615.488 311.342C614.725 309.893 613.262 308.969 611.774 308.996C610.406 309.02 609.127 308.281 608.882 307.324C608.397 305.424 599.346 300.604 595.515 300.205C594.171 300.065 590.64 300.322 587.668 300.775C580.363 301.89 577.738 301.908 572.974 300.875C570.745 300.392 567.795 300.319 566.417 300.712C562.456 301.844 559.735 300.646 556.547 296.365C553.538 292.325 552.335 291.96 545.943 293.154C542.505 293.796 542.805 295.27 547.56 301.101C549.13 303.026 550.627 305.434 550.888 306.452C551.239 307.828 552.101 308.092 554.245 307.479C556.658 306.789 557.233 307.06 557.763 309.136C559.044 314.149 565.382 315.215 566.386 310.586C566.965 307.919 570.484 306.431 571.042 308.618C571.246 309.415 573.18 310.628 575.342 311.315C577.503 312.001 579.397 313.103 579.55 313.764C580.047 315.902 575.123 324.566 571.524 327.888C569.597 329.666 567.462 331.658 566.778 332.314C566.095 332.971 563.3 334.752 560.568 336.272C557.835 337.792 554.815 339.758 553.856 340.641C552.897 341.525 550.829 342.45 549.26 342.698C546.919 343.069 546.133 342.569 544.88 339.915C544.04 338.136 541.402 335.437 539.019 333.917C536.635 332.398 533.597 329.739 532.266 328.009C530.936 326.279 526.367 320.926 522.113 316.113C515.57 308.712 514.017 307.466 512.042 308.03C508.748 308.972 509.29 311.997 513.346 315.309C515.526 317.089 517.044 319.356 517.653 321.738C518.17 323.761 519.539 326.312 520.697 327.405C521.854 328.498 523.301 330.508 523.912 331.873C524.523 333.237 526.701 335.488 528.752 336.875C530.963 338.371 532.767 340.52 533.184 342.155C533.758 344.401 534.569 344.953 537.555 345.131C539.572 345.251 541.395 345.878 541.606 346.525C541.817 347.171 542.532 349.518 543.196 351.74C544.366 355.66 544.492 355.744 547.445 354.566C549.118 353.898 550.608 353.825 550.756 354.403C551.326 356.635 555.115 356.554 557.571 354.258C558.88 353.034 561.124 351.345 562.557 350.505C565.117 349.003 565.167 349.04 565.393 352.58C565.519 354.561 565.324 356.539 564.959 356.975C564.594 357.411 564.007 359.176 563.655 360.897C562.947 364.357 557.71 376.08 552.036 386.906C547.021 396.474 546.677 399.918 550.084 406.429C551.541 409.213 554.498 414.111 556.654 417.313L560.575 423.135L557.617 427.709C555.99 430.225 553.903 432.506 552.98 432.779C552.057 433.052 551.419 433.735 551.562 434.296C551.706 434.858 551.22 435.49 550.484 435.701C548.547 436.254 548.57 438.904 550.556 443.879C552.237 448.091 552.196 448.351 549.367 451.425C547.756 453.176 546.768 454.939 547.172 455.341C547.576 455.744 547.114 460.205 546.146 465.255C543.688 478.064 536.56 487.652 529.09 488.197C527.625 488.303 526.262 488.981 526.06 489.702C525.531 491.594 523.425 491.938 521.447 490.455ZM556.461 271.815C557.272 268.076 553.213 258.664 549.811 256.4C548.205 255.331 546.68 253.631 546.422 252.622C546.165 251.614 545.449 250.628 544.831 250.432C542.019 249.539 543.351 247.87 547.219 247.44L551.288 246.988L549.77 242.28C548.45 238.185 547.799 237.452 544.766 236.646C541.563 235.796 540.81 235.985 535.502 238.974C530.81 241.615 529.558 242.865 528.843 245.62C527.688 250.073 528.415 252.582 531.501 254.789C532.89 255.783 534.239 257.429 534.499 258.447C534.759 259.465 536.632 261.47 538.661 262.903C541.826 265.137 542.426 266.119 542.886 269.805C543.343 273.467 543.817 274.254 546.095 275.132C549.921 276.606 555.831 274.715 556.461 271.815ZM569.467 245.31C570.544 240.946 569.725 233.955 567.984 232.65C567.219 232.077 565.342 231.966 563.812 232.403C561.707 233.004 560.775 234.136 559.974 237.062C558.626 241.991 558.982 243.248 562.686 246.624C566.376 249.988 568.409 249.594 569.467 245.31ZM574.126 445.895C573.906 445.033 572.764 443.419 571.589 442.309C569.901 440.715 569.567 439.769 569.994 437.798C570.292 436.427 570.087 433.863 569.539 432.1C567.908 426.853 567.983 426.626 572.179 424.135C575.47 422.18 576.101 421.317 575.619 419.429C574.648 415.626 576.539 411.641 579.54 411.167C581.867 410.8 582.243 411.157 582.788 414.245C583.128 416.167 582.903 420.67 582.29 424.253C581.676 427.835 581.249 431.485 581.341 432.363C582.083 439.434 581.32 443.259 578.805 445.081C575.286 447.631 574.6 447.751 574.126 445.895ZM824.565 337.581C823.269 336.782 821.516 336.28 820.67 336.466C819.824 336.652 817.153 337.236 814.734 337.764C807.299 339.387 802.34 338.724 794.993 335.126C788.687 332.037 786.534 331.525 784.284 332.58C783.913 332.754 783.046 331.827 782.357 330.52C781.668 329.213 780.718 328.255 780.247 328.389C779.775 328.524 779.213 327.945 778.998 327.102C778.343 324.539 782.651 324.19 785.689 326.56C788.341 328.629 788.695 328.631 791.367 326.591C793.932 324.632 794.618 324.563 798.247 325.894C800.465 326.707 804.246 327.154 806.649 326.888C810.831 326.425 813.446 327.373 816.478 330.455C817.244 331.233 818.993 331.72 820.365 331.536C821.937 331.326 823.639 332.159 824.97 333.791C826.131 335.214 827.485 336.428 827.98 336.488C828.474 336.547 828.987 337.017 829.118 337.532C829.517 339.096 827.065 339.122 824.565 337.581ZM766.332 354.253C766.193 353.709 766.728 353.078 767.521 352.852C769.368 352.324 769.531 352.962 767.877 354.243C767.166 354.793 766.471 354.797 766.332 354.253ZM726.817 360.758C721.494 360.569 719.566 360.123 720.603 359.321C723.271 357.255 729.732 355.931 733.543 356.668C736.503 357.241 737.106 357.736 736.517 359.107C735.62 361.195 736.227 361.091 726.817 360.758ZM751.452 346.483C750.981 346.014 750.731 345.151 750.895 344.565C751.059 343.978 750.479 343.419 749.607 343.323C747.533 343.094 746.524 339.122 748.403 338.585C749.289 338.332 749.601 337.217 749.211 335.692C748.593 333.273 749.963 329.371 751.593 328.905C753.372 328.397 755.738 329.099 755.47 330.056C755.314 330.614 754.489 330.994 753.637 330.9C751.369 330.649 751.415 334.083 753.699 335.478C756.541 337.214 757.568 342.227 755.387 343.714C754.42 344.373 753.739 345.341 753.873 345.865C754.196 347.132 752.53 347.557 751.452 346.483ZM709.46 353.597C708.562 352.924 707.119 352.56 706.254 352.788C703.941 353.397 701.146 351.91 699.591 349.242C698.839 347.952 695.449 345.397 692.059 343.565C688.668 341.732 686.103 339.831 686.361 339.339C686.845 338.412 700.224 341.519 704.133 343.466C707.088 344.939 712.494 352.229 711.708 353.683C711.355 354.336 710.397 354.299 709.46 353.597ZM729.225 343.273C724.14 343.152 723.753 342.746 723.397 337.169C723.234 334.614 723.926 333.285 726.476 331.251C728.285 329.808 729.972 327.692 730.226 326.547C730.479 325.403 731.789 323.278 733.137 321.825C735.52 319.255 735.653 319.226 738.012 320.787C741.594 323.158 743.135 332.292 740.925 338.052C739.635 341.414 738.946 342.152 737.674 341.533C736.624 341.023 735.727 341.21 735.108 342.069C734.488 342.93 732.435 343.35 729.225 343.273ZM766.286 325.802C766.143 325.24 766.458 324.657 766.987 324.506C767.516 324.355 768.066 324.691 768.209 325.253C768.353 325.814 768.037 326.398 767.509 326.549C766.98 326.7 766.43 326.364 766.286 325.802ZM754.434 311.711C751.317 311.746 750.35 309.11 753.032 307.889C755.214 306.896 758.698 308.939 757.667 310.608C757.303 311.198 755.848 311.694 754.434 311.711ZM640.834 339.457C640.662 338.753 640.735 337.446 640.995 336.554C641.599 334.481 643.515 336.138 643.286 338.535C643.094 340.538 641.264 341.226 640.834 339.457ZM740.134 292.446C738.707 290.304 737.671 285.761 738.417 284.916C739.025 284.228 739.236 284.334 738.993 285.204C738.781 285.961 738.996 286.469 739.472 286.333C740.213 286.121 743.668 289.758 744.015 291.115C744.135 291.587 740.412 292.865 740.134 292.446ZM332.211 396.773C331.664 395.979 331.289 394.581 331.376 393.667C331.515 392.218 331.778 392.153 333.425 393.16C335.108 394.188 335.199 394.527 334.259 396.266C333.32 398.005 333.096 398.061 332.211 396.773ZM707.57 287.777C707.753 287.122 708.527 286.407 709.289 286.19C710.051 285.972 710.792 286.253 710.935 286.815C711.079 287.377 710.305 288.091 709.216 288.403C708.128 288.714 707.387 288.432 707.57 287.777ZM278.153 403.916C277.682 403.448 277.972 402.872 278.797 402.636C279.621 402.4 280.413 402.667 280.556 403.229C280.7 403.791 280.41 404.367 279.913 404.509C279.415 404.651 278.623 404.384 278.153 403.916ZM262.772 406.304C262.385 404.786 266.501 401.453 268.485 401.679C270.327 401.889 270.347 401.991 268.922 403.892C267.308 406.046 263.125 407.687 262.772 406.304ZM733.454 269.967C733.239 269.124 733.496 268.311 734.024 268.16C734.553 268.009 735.162 268.575 735.377 269.417C735.593 270.26 735.336 271.073 734.807 271.225C734.278 271.376 733.67 270.81 733.454 269.967ZM250.145 405.335C249.831 404.105 248.621 403.683 246.17 403.95C244.232 404.16 241.731 403.773 240.612 403.09C239.189 402.22 237.66 402.287 235.521 403.312C233.84 404.118 232.354 404.347 232.22 403.82C232.085 403.294 232.291 402.735 232.677 402.579C233.062 402.422 234.182 401.807 235.164 401.212C239.941 398.316 243.683 397.206 245.319 398.199C246.267 398.775 249.535 399.462 252.581 399.727C255.628 399.992 258.254 400.73 258.416 401.367C258.579 402.004 256.886 403.555 254.654 404.814C251.05 406.846 250.546 406.905 250.145 405.335ZM764.577 224.842C764.076 224.114 762.873 223.745 761.903 224.022C759.742 224.64 758.635 223.671 759.198 221.655C759.581 220.287 761.265 219.037 764.14 217.986C764.718 217.775 766.801 214.676 768.769 211.101C770.827 207.361 772.725 204.977 773.238 205.487C773.728 205.975 773.777 207.194 773.347 208.194C772.917 209.195 772.884 209.923 773.274 209.811C773.664 209.7 773.574 210.942 773.074 212.57C772.573 214.199 772.426 216.584 772.745 217.871C773.61 221.347 772.859 222.674 768.987 224.509C766.403 225.733 765.249 225.82 764.577 224.842ZM456.88 295.296C456.36 294.54 456.085 293.879 456.268 293.827C456.451 293.774 457.315 294.267 458.189 294.922C459.104 295.608 459.364 296.23 458.801 296.391C458.264 296.544 457.399 296.052 456.88 295.296ZM442.201 292.914C441.986 292.071 441.98 291.333 442.188 291.274C442.396 291.214 442.991 291.784 443.511 292.54C444.03 293.296 444.036 294.034 443.524 294.18C443.012 294.326 442.417 293.757 442.201 292.914ZM771.309 193.167C769.952 193.18 769.484 192.551 769.539 190.786C769.58 189.467 769.65 188.292 769.695 188.174C769.741 188.057 771.339 187.859 773.247 187.735C776.78 187.506 779.388 189.431 776.617 190.222C775.78 190.462 775.212 191.117 775.356 191.679C775.625 192.731 774.518 193.138 771.309 193.167ZM771.92 178.779C770.666 177.84 769.314 174.084 767.08 165.337C762.693 148.165 763.227 145.506 768.436 158.581C769.406 161.017 771.095 163.855 772.187 164.889C773.966 166.571 774.077 167.217 773.241 171.055C772.57 174.142 772.697 175.78 773.696 176.907C775.542 178.989 774.154 180.453 771.92 178.779ZM277.968 305.799C277.426 305.011 276.661 304.731 276.268 305.177C275.874 305.622 274.937 305.525 274.184 304.961C273.184 304.211 273.094 302.916 273.851 300.136C274.421 298.046 275.322 296.212 275.854 296.06C277.438 295.607 284.213 300.418 284.705 302.344C285.491 305.423 279.738 308.374 277.968 305.799ZM401.174 259.151C401.048 257.077 400.751 254.382 400.514 253.163C400.276 251.944 400.399 250.183 400.786 249.249C401.561 247.38 399.311 243.241 397.761 243.685C397.257 243.828 396.209 242.651 395.431 241.068C394.654 239.486 393.28 237.993 392.379 237.751C390.722 237.307 389.733 233.499 390.541 230.676C391.127 228.63 395.25 227.601 396.365 229.223C396.865 229.95 397.432 232.158 397.627 234.129C397.904 236.944 398.673 238.227 401.202 240.095C402.974 241.404 405.021 243.608 405.751 244.992C406.481 246.376 407.821 247.87 408.73 248.312C410.778 249.309 411.879 253.26 410.615 255.079C410.096 255.826 408.027 257.262 406.017 258.272C404.006 259.282 402.146 260.741 401.882 261.515C401.618 262.289 401.3 261.225 401.174 259.151ZM386.748 255.409C386.587 252.026 388.949 244.72 389.996 245.359C390.26 245.521 390.786 247.577 391.166 249.929C391.73 253.418 391.402 254.649 389.387 256.606L386.917 259.005L386.748 255.409ZM96.83 330.166C96.6062 329.29 96.9284 328.733 97.5459 328.93C98.1634 329.126 98.7791 329.719 98.9142 330.247C99.0492 330.776 98.727 331.332 98.1982 331.483C97.6694 331.635 97.0537 331.041 96.83 330.166ZM89.0784 322.033C88.6081 321.564 88.6815 321.05 89.2415 320.89C89.8015 320.73 90.3771 321.059 90.5206 321.62C90.6642 322.182 90.5908 322.696 90.3576 322.763C90.1244 322.83 89.5488 322.501 89.0784 322.033ZM289.129 241.893C283.255 242.045 283.809 242.683 271.553 221.658C269.897 218.816 268.086 216.152 267.529 215.738C265.084 213.921 264.307 206.28 266.024 200.938C268.165 194.276 267.833 192.909 263.556 190.791C259.71 188.887 257.358 185.716 258.681 184.218C259.167 183.668 260.611 183.786 261.891 184.48C263.171 185.175 264.412 185.385 264.648 184.947C265.442 183.478 261.987 177.26 260.597 177.657C259.854 177.869 258.634 177.378 257.886 176.565C256.756 175.338 256.33 175.383 255.369 176.831C253.532 179.599 251.972 178.236 250.534 172.608C249.63 169.069 248.496 166.904 247.015 165.892C245.624 164.942 244.361 162.662 243.539 159.621C242.83 156.994 241.767 154.364 241.179 153.778C240.59 153.192 239.061 150.718 237.78 148.281C236.028 144.947 234.6 143.605 232.013 142.862C228.393 141.821 221.066 143.253 216.209 145.95C213.645 147.373 213.1 147.258 211.029 144.856C209.757 143.38 208.651 141.919 208.572 141.61C208.493 141.301 234.333 111.695 273.257 104.765L300.169 104.765L321.641 108.696L323.24 111.801C325.71 116.595 326.028 119.837 324.265 122.246C322.487 124.677 323.88 130.754 325.963 129.656C327.648 128.769 327.734 130.465 326.139 133.102C325.368 134.376 325.136 135.999 325.623 136.707C326.631 138.173 326.756 138.103 316.768 141.691C313.25 142.955 313.206 145.963 316.699 146.337C319.055 146.59 319.488 147.099 319.662 149.819C319.826 152.386 320.337 153.112 322.299 153.563C326.816 154.6 330.119 157.032 330.839 159.85C331.671 163.109 329.673 165.147 327.367 163.392C323.712 160.612 321.344 159.201 320.666 159.402C320.27 159.519 319.547 161.255 319.06 163.261C318.513 165.513 317.599 166.845 316.672 166.742C315.024 166.56 313.306 169.484 314.597 170.273C315.039 170.543 316.612 170.418 318.091 169.995C319.798 169.508 321.349 169.866 322.333 170.976C323.348 172.121 324.868 172.443 326.734 171.91C328.882 171.296 329.705 171.568 330.075 173.013C330.75 175.657 329.354 177.432 324.45 180.167C321.815 181.637 319.235 184.225 317.503 187.136C315.988 189.683 313.883 192.018 312.827 192.326C311.194 192.803 308.566 198.417 305.962 206.997C305.742 207.721 304.442 209.325 303.072 210.564C301.356 212.115 300.453 214.341 300.169 217.725C299.943 220.426 298.961 223.724 297.988 225.055C296.795 226.686 296.557 228.102 297.258 229.401C298.683 232.043 296.624 240.206 294.307 241.095C293.288 241.486 290.957 241.845 289.129 241.893ZM239.451 245.807C238.165 244.842 236.829 244.917 234.362 246.092C231.123 247.635 230.846 247.531 225.638 242.823C220.547 238.222 220.029 238.015 215.985 238.969C206.929 241.106 206.473 232.298 215.455 228.728C218.535 227.504 218.602 227.319 217.533 223.004C216.925 220.552 215.719 217.942 214.852 217.204C213.438 216 213.093 216.234 211.489 219.482C209.838 222.826 209.512 223.033 207.196 222.211C202.095 220.402 203.417 216.986 210.119 214.663C213.199 213.595 212.25 211.725 208.454 211.384C206.469 211.206 204.432 210.462 203.929 209.73C203.413 208.979 202.436 208.846 201.689 209.424C200.829 210.09 200.215 209.862 199.937 208.775C199.473 206.958 195.416 206.112 193.657 207.466C193.059 207.927 191.806 207.933 190.873 207.479C189.941 207.025 188.35 207.219 187.337 207.909C185.983 208.832 184.041 208.48 179.984 206.576C176.951 205.153 174 203.612 173.425 203.153C172.851 202.694 171.78 199.038 171.046 195.027C169.894 188.73 169.986 187.305 171.719 184.576C173.645 181.544 173.797 181.477 175.499 182.926C176.56 183.829 177.329 185.642 177.411 187.433C177.597 191.466 180.126 190.755 182.244 186.073L183.811 182.611L185.465 184.878C188.829 189.487 190.679 190.235 194.729 188.626C196.82 187.795 198.599 187.384 198.683 187.712C198.767 188.04 201.03 187.681 203.712 186.915C209.465 185.271 210.974 186.24 211.549 191.947C211.919 195.606 212.142 195.889 214.201 195.301C217.492 194.362 225.474 199.704 226.442 203.493C226.863 205.142 226.878 207.1 226.475 207.846C225.964 208.791 227.157 209.357 230.4 209.709C232.969 209.989 235.881 211.145 236.895 212.287C237.905 213.427 240.594 214.581 242.869 214.851C245.784 215.198 246.958 215.843 246.844 217.036C246.755 217.968 247.429 219.572 248.343 220.603C250.96 223.553 249.325 226.024 243.99 227.181C238.802 228.306 238.44 229.498 241.694 234.735C243.492 237.63 243.778 238.705 243.086 239.965C242.399 241.215 241.855 241.248 240.515 240.119C238.722 238.608 235.489 238.912 235.908 240.551C236.043 241.081 237.231 241.929 238.547 242.436C239.863 242.943 240.997 244.204 241.068 245.237C241.186 246.976 241.065 247.018 239.451 245.807ZM193.817 252.395C189.422 250.691 188.816 249.103 190.754 244.372L192.2 240.841L197.336 241.887C201.247 242.683 202.615 243.493 203.072 245.283C203.507 246.986 203.119 247.791 201.664 248.207C200.558 248.523 199.174 249.918 198.586 251.306L197.519 253.831L193.817 252.395ZM350.496 206.514C349.27 206.156 346.472 206.108 344.278 206.406C340.376 206.936 340.259 206.853 338.844 202.553C337.036 197.063 337.672 195.811 342.093 196.153C344.662 196.352 345.657 196.073 345.936 195.078C346.143 194.339 348.164 192.906 350.428 191.892C354.003 190.292 354.986 190.298 357.914 191.935C361.864 194.145 361.801 195.087 357.236 201.981C353.637 207.415 353.622 207.425 350.496 206.514ZM507.243 129.227C506.814 128.8 507.043 128.002 507.751 127.454C508.458 126.906 509.144 126.876 509.275 127.387C509.629 128.772 508.14 130.12 507.243 129.227ZM121.149 234.538C114.117 233.258 113.398 231.35 118.749 228.172C121.394 226.601 122.639 225.224 122.368 224.167C122.028 222.834 120.934 222.912 116.037 224.622L110.117 226.689L109.006 220.978C107.476 213.112 108.424 210.639 114.173 207.503C118.477 205.156 119.12 205.055 120.903 206.44C121.987 207.282 124.139 207.927 125.686 207.874C127.233 207.82 128.659 208.337 128.856 209.023C129.053 209.709 130.841 210.8 132.828 211.447C134.816 212.094 136.81 213.527 137.259 214.632C137.708 215.736 139.557 217.076 141.367 217.609C145.175 218.731 147.153 221.84 146.88 226.275C146.726 228.764 146.202 229.431 144.273 229.591C140.687 229.887 132.626 232.331 129.537 234.058C127.595 235.145 125.223 235.28 121.149 234.538ZM155.422 226.347C154.195 225.124 154.96 223.185 156.868 222.68C158.914 222.139 162.681 223.696 162.068 224.83C161.352 226.155 156.371 227.292 155.422 226.347ZM519.103 111.54C518.468 111.165 516.62 111.077 514.997 111.343C511.109 111.983 508.207 108.025 509.929 104.433C510.552 103.135 510.85 101.185 510.591 100.101C510.332 99.0164 510.503 97.1245 510.97 95.8963C511.689 94.0065 512.169 93.7761 514.093 94.3975C515.816 94.9542 516.258 95.6301 515.919 97.1926C515.634 98.5053 516.242 100.74 517.596 103.348C521.434 110.747 521.842 111.769 521.045 111.997C520.612 112.121 519.738 111.915 519.103 111.54ZM830.378 20.1713C828.871 19.3804 828.211 18.857 828.911 19.0082C829.61 19.1595 830.212 18.7909 830.249 18.1892C830.343 16.6352 834.882 16.7985 835.283 18.3704C835.871 20.6724 833.2 21.6531 830.378 20.1713ZM93.9895 224.401C91.3688 223.446 88.621 220.037 88.44 217.517C88.3347 216.051 88.5804 214.758 88.9858 214.642C90.0793 214.329 90.0473 209.893 88.9254 206.244C87.3857 201.235 90.2724 199.42 100.989 198.655C103.518 198.475 109.461 201.907 109.953 203.832C110.144 204.581 108.76 207.252 106.878 209.768C104.996 212.284 103.35 215.683 103.221 217.321C103.092 218.959 102.251 220.756 101.353 221.315C97.1156 223.952 95.0879 224.801 93.9895 224.401ZM148.789 207.782C148.34 207.508 147.785 206.557 147.555 205.668C147.324 204.78 145.513 203.598 143.531 203.042L139.926 202.031L141.696 199.87C142.723 198.616 143.198 196.664 142.828 195.216C142.266 193.017 142.571 192.654 145.397 192.149C148.15 191.657 148.757 191.998 149.687 194.555C150.282 196.193 151.619 197.906 152.657 198.361C154.397 199.124 154.49 199.503 153.852 203.226C153.206 206.997 150.9 209.072 148.789 207.782ZM156.72 195.559C155.978 194.113 154.93 192.563 154.392 192.114C153.054 190.999 153.584 186.414 155.195 185.166C155.917 184.608 157.354 184.282 158.388 184.443C159.422 184.604 161.176 184.655 162.285 184.555C163.395 184.456 164.86 184.426 165.541 184.489C167.502 184.67 167.019 188.772 164.719 191.477C163.565 192.834 162.432 194.66 162.202 195.535C161.451 198.387 158.179 198.401 156.72 195.559ZM192.588 182.608C190.228 181.68 188.853 180.397 188.543 178.832C187.964 175.915 188.436 175.751 192.329 177.516C194.02 178.282 195.322 178.59 195.222 178.199C195.122 177.809 195.824 177.871 196.783 178.337C198.076 178.966 198.401 179.754 198.044 181.399C197.434 184.212 196.942 184.32 192.588 182.608ZM727.759 27.6654C726.536 26.4472 728.052 23.2454 730.133 22.6507C731.929 22.1375 734.049 24.3255 733.536 26.1616C733.119 27.649 728.857 28.7587 727.759 27.6654ZM512.279 86.6416C512.069 85.819 512.208 84.7933 512.589 84.3622C512.97 83.9311 513.04 81.6435 512.745 79.2787C512.096 74.0755 513.427 69.235 515.686 68.5856C516.619 68.3172 517.759 66.1924 518.291 63.7306C519.211 59.4756 519.394 59.3039 524.826 57.6066C528.868 56.3436 531.022 55.0455 532.612 52.9154C535.204 49.4415 536.276 48.9796 537.526 50.7979C538.525 52.2509 535.847 56.7666 532.724 58.8958C531.686 59.6032 530.033 61.794 529.051 63.764C528.069 65.7341 526.092 68.0288 524.659 68.8634C522.364 70.1997 515.988 80.9704 516.442 82.7457C516.536 83.1148 515.724 84.4788 514.637 85.7769C512.964 87.7743 512.602 87.9072 512.279 86.6416ZM169.342 175.832C167.565 175.538 164.82 175.144 163.243 174.956C160.702 174.652 160.117 173.923 158.116 168.562C155.93 162.705 155.728 162.495 151.821 162.004C146.729 161.364 144.906 159.187 148.616 158.177C150.058 157.784 152.25 157.897 153.487 158.428C154.725 158.96 156.52 159.171 157.476 158.898C158.433 158.625 159.376 158.972 159.572 159.669C160.438 162.748 163.529 163.679 170.239 162.883C174.052 162.431 179.355 161.974 182.023 161.869C186.467 161.692 186.94 161.93 187.647 164.699C188.163 166.72 187.99 167.586 187.126 167.311C186.415 167.086 185.488 167.853 185.067 169.018C184.456 170.707 183.848 171.023 182.057 170.581C180.281 170.142 179.261 170.643 177.17 172.983C174.121 176.394 173.692 176.55 169.342 175.832ZM110.941 189.421L110.66 185.677L106.381 187.467C102.416 189.125 102.06 189.087 101.512 186.944C101.187 185.672 100.969 182.71 101.026 180.363C101.145 175.524 103.075 174.281 106.663 176.733C108.358 177.891 109.059 177.915 109.364 176.827C109.673 175.72 110.382 175.686 112.231 176.69C114.654 178.004 114.695 177.966 115.201 173.879C115.483 171.601 115.882 169.688 116.087 169.63C116.292 169.571 117.764 170.877 119.359 172.531C121.184 174.425 122.993 175.329 124.243 174.972C126.988 174.187 128.14 176.32 127.274 180.583C126.48 184.493 125.15 185.516 123.665 183.357C122.721 181.984 119.766 182.095 120.352 183.482C121.851 187.037 121.34 188.132 118.01 188.493C115.803 188.733 114.009 189.62 112.913 191.014C111.255 193.123 111.216 193.092 110.941 189.421ZM717.634 17.5899L713.953 16.6954L716.255 12.1923C718.149 8.48909 719.264 7.47941 722.534 6.50792C725.843 5.52488 726.797 5.69521 728.223 7.52252C730.492 10.4325 729.978 11.7339 726.127 12.8345C724.055 13.4266 722.652 14.5773 722.126 16.1154C721.34 18.4119 721.203 18.457 717.634 17.5899ZM152.164 178.427C150.797 177.901 148.943 176.1 148.044 174.425C145.901 170.433 142.701 170.488 143.726 174.5L144.455 177.355L141.83 175.751C139.434 174.288 139.047 174.334 137.417 176.281C135.717 178.311 135.562 178.275 134.227 175.557C133.455 173.986 131.722 171.912 130.376 170.949C127.11 168.613 126.876 167.199 129.78 167.359C132.757 167.523 135.449 166.759 137.903 165.054C139.527 163.926 140.196 164.226 142.212 166.985C143.525 168.781 145.237 170.068 146.016 169.846C148.7 169.079 154.726 172.884 155.06 175.556C155.495 179.044 155.011 179.524 152.164 178.427ZM739.788 10.0267C739.318 9.55823 739.798 8.92767 740.856 8.62543C741.914 8.3232 743.164 8.45916 743.634 8.9276C744.104 9.39605 743.624 10.0266 742.566 10.3289C741.509 10.6311 740.258 10.4951 739.788 10.0267ZM180.856 153.799C177.815 152.294 176.996 152.294 175.488 153.802C174.191 155.099 173.014 155.458 171.144 155.128C165.818 154.188 167.891 152.549 177.466 150.131C185.276 148.159 187.029 148.02 187.628 149.326C188.357 150.914 186.787 154.906 185.262 155.342C184.812 155.471 182.829 154.776 180.856 153.799ZM89.6875 180.24C88.8822 179.749 88.0121 178.519 87.7537 177.507C87.3686 175.999 88.0912 175.438 91.7709 174.386C94.2387 173.681 96.1047 173.271 95.9175 173.475C95.7305 173.68 94.5816 175.486 93.3645 177.491C91.6457 180.321 90.8246 180.935 89.6875 180.24Z" fill="#00C0F3"/>
<ellipse cx="488.754" cy="237.346" rx="292.5" ry="292.313" fill="url(#paint0_linear_101_39)" fill-opacity="0.2"/>
<path d="M155.254 267.823C318.454 183.877 516.254 208.528 594.754 231.347M594.754 231.347C519.42 232.846 361.254 285.212 331.254 482.686M594.754 231.347C565.754 245.338 511.054 302.501 524.254 419.226M594.754 231.347C615.42 228.182 660.854 234.045 677.254 282.814M594.754 231.347C637.154 248.935 639.754 288.976 635.754 306.798M594.754 231.347C589.754 204.031 637.754 121.417 715.754 145.402" stroke="black" stroke-opacity="0.6" stroke-width="2"/>
<ellipse cx="717.254" cy="146.901" rx="5" ry="4.9968" fill="#9C0000"/>
<ellipse cx="677.254" cy="283.813" rx="5" ry="4.9968" fill="#9C0000"/>
<ellipse cx="635.254" cy="306.799" rx="5" ry="4.9968" fill="#9C0000"/>
<ellipse cx="524.254" cy="419.726" rx="5" ry="4.9968" fill="#9C0000"/>
<ellipse cx="331.254" cy="481.686" rx="5" ry="4.9968" fill="#9C0000"/>
<ellipse cx="154.254" cy="268.822" rx="5" ry="4.9968" fill="#9C0000"/>
<ellipse cx="593.254" cy="232.845" rx="5" ry="4.9968" fill="#009C51"/>
<path d="M593.226 166.89C587.069 166.898 581.165 169.646 576.811 174.533C572.457 179.419 570.007 186.044 570 192.954C569.993 198.601 571.636 204.095 574.679 208.592C574.679 208.592 575.313 209.528 575.416 209.663L593.226 233.235L611.045 209.651C611.138 209.526 611.774 208.592 611.774 208.592L611.776 208.585C614.817 204.089 616.46 198.598 616.453 192.954C616.446 186.044 613.996 179.419 609.642 174.533C605.288 169.646 599.384 166.898 593.226 166.89V166.89ZM593.226 202.432C591.556 202.432 589.923 201.876 588.534 200.834C587.145 199.793 586.063 198.313 585.423 196.581C584.784 194.849 584.617 192.943 584.943 191.105C585.269 189.266 586.073 187.577 587.254 186.252C588.435 184.926 589.94 184.024 591.579 183.658C593.217 183.292 594.915 183.48 596.459 184.197C598.002 184.915 599.321 186.13 600.249 187.688C601.177 189.247 601.672 191.079 601.672 192.954C601.67 195.467 600.779 197.875 599.196 199.652C597.612 201.429 595.466 202.429 593.226 202.432V202.432Z" fill="white"/>
</g>
<defs>
<linearGradient id="paint0_linear_101_39" x1="275.254" y1="10.9905" x2="488.52" y2="529.755" gradientUnits="userSpaceOnUse">
<stop stop-color="white"/>
<stop offset="1" stop-color="white" stop-opacity="0"/>
</linearGradient>
</defs>
</svg>
