<svg width="224" height="40" viewBox="0 0 224 40" fill="none" xmlns="http://www.w3.org/2000/svg">
<path d="M20 0L24.4903 13.8197H39.0211L27.2654 22.3607L31.7557 36.1803L20 27.6393L8.2443 36.1803L12.7346 22.3607L0.97887 13.8197H15.5097L20 0Z" fill="#00C0F3"/>
<path d="M66 0L70.4903 13.8197H85.0211L73.2654 22.3607L77.7557 36.1803L66 27.6393L54.2443 36.1803L58.7346 22.3607L46.9789 13.8197H61.5097L66 0Z" fill="#00C0F3"/>
<path d="M112 0L116.49 13.8197H131.021L119.265 22.3607L123.756 36.1803L112 27.6393L100.244 36.1803L104.735 22.3607L92.9789 13.8197H107.51L112 0Z" fill="#00C0F3"/>
<path d="M158 0L162.49 13.8197H177.021L165.265 22.3607L169.756 36.1803L158 27.6393L146.244 36.1803L150.735 22.3607L138.979 13.8197H153.51L158 0Z" fill="#00C0F3"/>
<path d="M204 0L208.49 13.8197H223.021L211.265 22.3607L215.756 36.1803L204 27.6393L192.244 36.1803L196.735 22.3607L184.979 13.8197H199.51L204 0Z" fill="#D9D9D9"/>
<path fill-rule="evenodd" clip-rule="evenodd" d="M208.49 13.8197L204 0L199.51 13.8197H184.979L196.735 22.3607L192.244 36.1803L204 27.6393L212 33.4517V24.6215L211.265 22.3607L212 21.827V13.8197H208.49Z" fill="#00C0F3"/>
</svg>
