<svg width="66" height="66" viewBox="0 0 66 66" fill="none" xmlns="http://www.w3.org/2000/svg">
<circle cx="33" cy="33" r="32.5" stroke="#00C0F3"/>
<path d="M30.4909 38.8393C30.1552 38.8393 29.8805 38.7247 29.6669 38.4957C29.4532 38.2666 29.3464 37.9721 29.3464 37.6121L27 16.2277C27 15.8677 27.1068 15.5732 27.3205 15.3441C27.5341 15.115 27.8088 15.0005 28.1445 15.0005L37.8557 15C38.1914 15 38.4661 15.1145 38.6798 15.3436C38.8934 15.5727 39.0002 15.8672 39.0002 16.2271L36.076 37.6121C36.076 37.9721 35.9692 38.2666 35.7556 38.4957C35.5419 38.7247 35.2673 38.8393 34.9315 38.8393H30.4909ZM30.2162 51C29.911 51 29.6516 50.8855 29.438 50.6564C29.2243 50.4273 29.1175 50.1328 29.1175 49.7729V44.5207C29.1175 44.1607 29.2243 43.8662 29.438 43.6372C29.6516 43.4081 29.911 43.2936 30.2162 43.2936H35.1604C35.4962 43.2936 35.7708 43.4081 35.9845 43.6372C36.1981 43.8662 36.3049 44.1607 36.3049 44.5207V49.7729C36.3049 50.1328 36.1981 50.4273 35.9845 50.6564C35.7708 50.8855 35.4962 51 35.1604 51H30.2162Z" fill="#00C0F3"/>
</svg>
