<svg width="33" height="34" viewBox="0 0 33 34" fill="none" xmlns="http://www.w3.org/2000/svg">
<ellipse cx="16.5" cy="16.7176" rx="15.5" ry="16.4476" fill="#00C0F3"/>
<path d="M32.8765 16.7559C32.8765 7.65002 25.5178 0.27002 16.4382 0.27002C7.35868 0.27002 0 7.65002 0 16.7559C0 24.9859 6.01023 31.8057 13.8698 33.0421V21.5213H9.69599V16.7559H13.8698V13.1238C13.8698 8.99271 16.3226 6.70981 20.079 6.70981C21.877 6.70981 23.7584 7.0318 23.7584 7.0318V11.0889H21.6843C19.6424 11.0889 19.0067 12.3607 19.0067 13.6648V16.7559H23.5657L22.8369 21.5213H19.0067V33.0421C26.8662 31.8057 32.8765 24.9859 32.8765 16.7559Z" fill="white"/>
</svg>
