<svg width="33" height="34" viewBox="0 0 33 34" fill="none" xmlns="http://www.w3.org/2000/svg">
<ellipse cx="16.4394" cy="16.6572" rx="16.4394" ry="16.3872" fill="white"/>
<path d="M20.7011 7.3916H12.1762C9.40168 7.3916 7.14453 9.64159 7.14453 12.4073V20.9052C7.14453 23.6708 9.40168 25.9208 12.1762 25.9208H20.7012C23.4756 25.9208 25.7327 23.6708 25.7327 20.9052V12.4073C25.7327 9.64159 23.4756 7.3916 20.7011 7.3916V7.3916ZM16.4386 21.7226C13.636 21.7226 11.3561 19.4499 11.3561 16.6562C11.3561 13.8625 13.636 11.5898 16.4386 11.5898C19.2412 11.5898 21.5212 13.8625 21.5212 16.6562C21.5212 19.4499 19.2412 21.7226 16.4386 21.7226ZM21.6427 12.7846C20.8145 12.7846 20.1409 12.1131 20.1409 11.2875C20.1409 10.4619 20.8145 9.79031 21.6427 9.79031C22.4709 9.79031 23.1447 10.4619 23.1447 11.2875C23.1447 12.1131 22.4709 12.7846 21.6427 12.7846Z" fill="#000"/>
<path d="M16.4382 12.6758C14.2366 12.6758 12.4453 14.4612 12.4453 16.656C12.4453 18.8505 14.2366 20.6361 16.4382 20.6361C18.6399 20.6361 20.431 18.8505 20.431 16.656C20.431 14.4612 18.6399 12.6758 16.4382 12.6758Z" fill="#000"/>
<path d="M21.6426 10.8755C21.4154 10.8755 21.2305 11.0598 21.2305 11.2863C21.2305 11.5128 21.4154 11.6971 21.6426 11.6971C21.8699 11.6971 22.0548 11.5129 22.0548 11.2863C22.0548 11.0597 21.8699 10.8755 21.6426 10.8755Z" fill="#000"/>
</svg>
