<svg width="33" height="34" viewBox="0 0 33 34" fill="none" xmlns="http://www.w3.org/2000/svg">
<ellipse cx="16.4394" cy="16.6572" rx="16.4394" ry="16.3872" fill="white"/>
<path d="M20.4352 18.3254L20.4287 18.3796C18.8327 17.5867 18.6657 17.4811 18.4596 17.7893C18.3166 18.0027 17.9 18.4867 17.7744 18.63C17.6474 18.7711 17.5211 18.7819 17.3056 18.6842C17.0878 18.5757 16.3889 18.3478 15.5615 17.6099C14.917 17.0347 14.4844 16.3293 14.3567 16.1122C14.144 15.7462 14.5889 15.6941 14.9939 14.9301C15.0665 14.7781 15.0295 14.6588 14.9758 14.551C14.9214 14.4424 14.4881 13.3789 14.3066 12.9549C14.1324 12.5324 13.9532 12.586 13.8189 12.586C13.4008 12.5498 13.0953 12.5556 12.826 12.8348C11.6546 14.1183 11.95 15.4423 12.9523 16.8502C14.9221 19.42 15.9716 19.8932 17.8906 20.5501C18.4088 20.7143 18.8813 20.6912 19.2551 20.6377C19.6717 20.5718 20.5375 20.116 20.7183 19.606C20.9033 19.0959 20.9033 18.6727 20.8489 18.575C20.7952 18.4773 20.6529 18.4231 20.4352 18.3254Z" fill="#00C0F3"/>
<path d="M22.6218 10.4702C17.0411 5.09255 7.80545 8.99287 7.80182 16.5794C7.80182 18.0958 8.20028 19.5746 8.95946 20.8805L7.72852 25.3386L12.3264 24.1434C18.0638 27.2327 25.1446 23.1305 25.1475 16.5837C25.1475 14.2859 24.2475 12.1234 22.6109 10.4984L22.6218 10.4702ZM23.6974 16.5598C23.693 22.0822 17.6116 25.5311 12.8018 22.7124L12.5405 22.5575L9.81879 23.2629L10.5482 20.6258L10.3748 20.3545C7.38159 15.6048 10.8204 9.3973 16.4903 9.3973C18.4165 9.3973 20.2245 10.1461 21.5861 11.5026C22.9469 12.8476 23.6974 14.6498 23.6974 16.5598Z" fill="#00C0F3"/>
</svg>
