<svg width="79" height="80" viewBox="0 0 79 80" fill="none" xmlns="http://www.w3.org/2000/svg">
<path d="M39.0625 79.0625C60.6361 79.0625 78.125 61.5736 78.125 40C78.125 18.4264 60.6361 0.9375 39.0625 0.9375C17.4889 0.9375 0 18.4264 0 40C0 61.5736 17.4889 79.0625 39.0625 79.0625Z" fill="url(#paint0_linear_1_1915)"/>
<path d="M32.4219 58.2188C31.4844 58.2188 30.5313 57.8594 29.8125 57.1406L17.25 44.5781C15.0781 42.4062 15.0781 38.875 17.25 36.7031C19.4219 34.5313 22.9531 34.5313 25.125 36.7031L32.4219 44L53 23.4219C55.1719 21.25 58.7031 21.25 60.875 23.4219C63.0469 25.5937 63.0469 29.125 60.875 31.2969L35.0312 57.125C34.3125 57.8594 33.375 58.2188 32.4219 58.2188ZM21.1875 37.9219C20.5 37.9219 19.7969 38.1875 19.2656 38.7188C18.2031 39.7813 18.2031 41.5 19.2656 42.5625L31.8281 55.125C32.1562 55.4531 32.6875 55.4531 33.0156 55.125L58.8594 29.2812C59.9219 28.2187 59.9219 26.5 58.8594 25.4375C57.7969 24.375 56.0781 24.375 55.0156 25.4375L34.2344 46.2187C33.75 46.7031 33.1094 46.9688 32.4219 46.9688C31.7344 46.9688 31.0937 46.7031 30.6094 46.2187L23.1094 38.7188C22.5781 38.1875 21.8906 37.9219 21.1875 37.9219Z" fill="white"/>
<defs>
<linearGradient id="paint0_linear_1_1915" x1="-4.11986e-07" y1="40" x2="78.125" y2="40" gradientUnits="userSpaceOnUse">
<stop stop-color="#00C0F3"/>
<stop offset="1" stop-color="#3997D3"/>
</linearGradient>
</defs>
</svg>
