<svg width="81" height="80" viewBox="0 0 81 80" fill="none" xmlns="http://www.w3.org/2000/svg">
<path d="M40.0625 79.0625C61.6361 79.0625 79.125 61.5736 79.125 40C79.125 18.4264 61.6361 0.9375 40.0625 0.9375C18.4889 0.9375 1 18.4264 1 40C1 61.5736 18.4889 79.0625 40.0625 79.0625Z" fill="url(#paint0_linear_1_1906)"/>
<path d="M26.7188 54.2656C27.5903 54.2656 28.2969 53.5591 28.2969 52.6875C28.2969 51.8159 27.5903 51.1094 26.7188 51.1094C25.8472 51.1094 25.1406 51.8159 25.1406 52.6875C25.1406 53.5591 25.8472 54.2656 26.7188 54.2656Z" fill="white"/>
<path d="M62.5469 44.1406C62.5469 43.3594 62.3125 42.6406 61.8906 42.0469C62.8594 41.375 63.5 40.25 63.5 39C63.5 36.9531 61.8281 35.2812 59.7812 35.2812H50.0156L50.6406 33.8906C51.5469 31.8594 52 29.7031 52.0156 27.4844C52.0156 27.4844 52.0156 24.7812 52.0156 24.7656C52.0156 22.6562 50.2969 20.9531 48.2031 20.9531C46.6406 20.9531 45.25 21.8906 44.6562 23.3437C44.625 23.4062 43.7344 26.0312 43.7344 26.0312C42.9375 28.3594 41.5156 30.4219 39.625 32L35.0937 35.7969H32.4687V34.5937C32.4687 33.3437 31.4531 32.3125 30.1875 32.3125H18.8906C17.6406 32.3125 16.6094 33.3281 16.6094 34.5937V56.7969C16.6094 58.0469 17.625 59.0781 18.8906 59.0781H30.1875C31.4375 59.0781 32.4687 58.0625 32.4687 56.7969V55H33.9062L35.3281 55.6875C38.6875 57.3125 42.4375 58.1719 46.1719 58.1719H51.3594H52.9375H56.9375C58.9844 58.1719 60.6562 56.5 60.6562 54.4531C60.6562 53.6719 60.4219 52.9531 60 52.3594C60.9687 51.6875 61.6094 50.5625 61.6094 49.3125C61.6094 48.5312 61.375 47.8125 60.9531 47.2188C61.9219 46.5312 62.5469 45.4062 62.5469 44.1406ZM30.1875 56.7812H18.8906V34.5781H30.1875V56.7812C30.2031 56.7812 30.2031 56.7812 30.1875 56.7812ZM56.9375 55.8906H52.9375H51.3594H46.1562C42.7656 55.8906 39.3594 55.1094 36.3125 53.6406L34.6562 52.8438C34.5 52.7656 34.3281 52.7344 34.1562 52.7344H32.4687V38.0625H35.5C35.7656 38.0625 36.0312 37.9687 36.2344 37.7969L41.0781 33.7344C43.2812 31.8906 44.9531 29.4687 45.875 26.75C45.875 26.75 46.7812 24.1094 46.7812 24.0937C47.0312 23.5625 47.5781 23.2188 48.1719 23.2188C49.0156 23.2188 49.7187 23.9062 49.7187 24.7656C49.7187 24.7812 49.7187 27.4844 49.7187 27.4844C49.7187 29.3906 49.3125 31.2344 48.5469 32.9687L47.2187 35.9375C47.1094 36.2031 47.0937 36.4844 47.1719 36.7344C47.1719 36.75 47.4219 37.5625 48.2656 37.5625H59.7812C60.5781 37.5625 61.2187 38.2031 61.2187 39C61.2187 39.7969 60.5781 40.4375 59.7812 40.4375H58.1562C57.5312 40.4375 57.0156 40.9531 57.0156 41.5781C57.0156 42.2031 57.5312 42.7187 58.1562 42.7187H58.8281C59.625 42.7187 60.2656 43.3594 60.2656 44.1562C60.2656 44.9531 59.625 45.5937 58.8281 45.5937H57.2031C56.5781 45.5937 56.0625 46.1094 56.0625 46.7344C56.0625 47.3594 56.5781 47.875 57.2031 47.875H57.875C58.6719 47.875 59.3125 48.5156 59.3125 49.3125C59.3125 50.1094 58.6719 50.75 57.875 50.75H56.25C55.625 50.75 55.1094 51.2656 55.1094 51.8906C55.1094 52.5156 55.625 53.0312 56.25 53.0312H56.9219C57.7187 53.0312 58.3594 53.6719 58.3594 54.4688C58.375 55.25 57.7187 55.8906 56.9375 55.8906Z" fill="white"/>
<defs>
<linearGradient id="paint0_linear_1_1906" x1="1" y1="40" x2="79.125" y2="40" gradientUnits="userSpaceOnUse">
<stop stop-color="#00C0F3"/>
<stop offset="1" stop-color="#3997D3"/>
</linearGradient>
</defs>
</svg>
