<svg width="81" height="80" viewBox="0 0 81 80" fill="none" xmlns="http://www.w3.org/2000/svg">
<path d="M40.0625 79.0625C61.6361 79.0625 79.125 61.5736 79.125 40C79.125 18.4264 61.6361 0.9375 40.0625 0.9375C18.4889 0.9375 1 18.4264 1 40C1 61.5736 18.4889 79.0625 40.0625 79.0625Z" fill="url(#paint0_linear_1_1918)"/>
<path d="M24.4062 31.5625C24.4062 30.9844 23.9375 30.5156 23.3594 30.5156H19.6094C19.0312 30.5156 18.5625 30.9844 18.5625 31.5625C18.5625 32.1406 19.0312 32.6094 19.6094 32.6094H23.3594C23.9531 32.5937 24.4062 32.1406 24.4062 31.5625Z" fill="white"/>
<path d="M60.5 30.5156H56.75C56.1719 30.5156 55.7031 30.9844 55.7031 31.5625C55.7031 32.1406 56.1719 32.6094 56.75 32.6094H60.5C61.0781 32.6094 61.5469 32.1406 61.5469 31.5625C61.5469 30.9844 61.0781 30.5156 60.5 30.5156Z" fill="white"/>
<path d="M26.1875 43.9688L23.4688 46.6875C23.0625 47.0937 23.0625 47.75 23.4688 48.1563C23.6719 48.3594 23.9375 48.4688 24.2031 48.4688C24.4687 48.4688 24.7344 48.375 24.9375 48.1563L27.6563 45.4375C28.0625 45.0312 28.0625 44.375 27.6563 43.9688C27.25 43.5625 26.5937 43.5625 26.1875 43.9688Z" fill="white"/>
<path d="M51.375 21.2969C51.6406 21.2969 51.9062 21.1875 52.1094 20.9844L54.7656 18.3281C55.1719 17.9219 55.1719 17.2656 54.7656 16.8594C54.3594 16.4531 53.7031 16.4531 53.2969 16.8594L50.6406 19.5156C50.2344 19.9219 50.2344 20.5781 50.6406 20.9844C50.8438 21.1875 51.1094 21.2969 51.375 21.2969Z" fill="white"/>
<path d="M28.0156 20.9844C28.2187 21.1875 28.4844 21.2969 28.75 21.2969C29.0156 21.2969 29.2813 21.1875 29.4844 20.9844C29.8906 20.5781 29.8906 19.9219 29.4844 19.5156L26.8437 16.875C26.4375 16.4687 25.7812 16.4687 25.375 16.875C24.9688 17.2813 24.9688 17.9375 25.375 18.3438L28.0156 20.9844Z" fill="white"/>
<path d="M53.9531 43.9688C53.5469 43.5625 52.8906 43.5625 52.4844 43.9688C52.0781 44.375 52.0781 45.0312 52.4844 45.4375L55.2031 48.1563C55.4062 48.3594 55.6719 48.4688 55.9375 48.4688C56.2031 48.4688 56.4687 48.3594 56.6719 48.1563C57.0781 47.75 57.0781 47.0937 56.6719 46.6875L53.9531 43.9688Z" fill="white"/>
<path d="M40.0625 19.3906C32.875 19.3906 27.0156 25.5156 27.0156 33.0469C27.0156 36.5469 28.2656 40.3125 30.4531 43.375C32.125 45.7344 33.0156 48.3594 33.0156 50.9531V56.7969V57.4844V59.5625H35.0938H45.0156H47.0938V57.6719C47.0938 57.6094 47.1094 57.5469 47.1094 57.4844V50.9375C47.1094 48.3281 48 45.7188 49.6719 43.3594C51.8594 40.2969 53.1094 36.5312 53.1094 33.0312C53.1094 25.5156 47.25 19.3906 40.0625 19.3906ZM35.0938 56.7969V56.125H40.0625C40.6406 56.125 41.1094 55.6562 41.1094 55.0781C41.1094 54.5 40.6406 54.0312 40.0625 54.0312H35.0938V52.6719H45.0156V56.7812H35.0938V56.7969ZM38.6094 38.0781L37.2188 35.1094H42.9219L41.5312 38.0781C41.4687 38.1875 41.4375 38.3281 41.4375 38.4531L40.625 50.6094H39.5156L38.7031 38.4531C38.6875 38.3281 38.6562 38.2031 38.6094 38.0781ZM47.9844 42.1562C46.125 44.7656 45.1094 47.6719 45.0312 50.6094H42.7031L43.4844 38.7812L45.4844 34.5C45.6406 34.1719 45.6094 33.7969 45.4219 33.5C45.2344 33.2031 44.9063 33.0156 44.5469 33.0156H35.5781C35.2188 33.0156 34.8906 33.2031 34.7031 33.5C34.5156 33.7969 34.4844 34.1719 34.6406 34.5L36.6406 38.7812L37.4219 50.6094H35.0938C35.0156 47.6875 34 44.7656 32.1406 42.1562C30.2344 39.4687 29.0938 36.0625 29.0938 33.0312C29.0938 26.6562 34.0156 21.4687 40.0625 21.4687C46.1094 21.4687 51.0313 26.6562 51.0313 33.0312C51.0313 36.0625 49.8906 39.4844 47.9844 42.1562Z" fill="white"/>
<path d="M35.7969 63.4375H44.3281C45.8594 63.4375 47.0938 62.2031 47.0938 60.6719H33.0156C33.0156 62.2031 34.2656 63.4375 35.7969 63.4375Z" fill="white"/>
<defs>
<linearGradient id="paint0_linear_1_1918" x1="1" y1="40" x2="79.125" y2="40" gradientUnits="userSpaceOnUse">
<stop stop-color="#00C0F3"/>
<stop offset="1" stop-color="#3997D3"/>
</linearGradient>
</defs>
</svg>
