<svg width="27" height="27" viewBox="0 0 27 27" fill="none" xmlns="http://www.w3.org/2000/svg">
<circle cx="13.2625" cy="13.2" r="13.2" fill="#00C0F3"/>
<path d="M10.4624 16.1598L7.66242 13.3598C7.58921 13.2857 7.502 13.2269 7.40588 13.1867C7.30975 13.1465 7.2066 13.1259 7.10242 13.1259C6.99824 13.1259 6.8951 13.1465 6.79897 13.1867C6.70284 13.2269 6.61564 13.2857 6.54242 13.3598C6.46831 13.433 6.40947 13.5202 6.36931 13.6164C6.32915 13.7125 6.30847 13.8156 6.30847 13.9198C6.30847 14.024 6.32915 14.1271 6.36931 14.2233C6.40947 14.3194 6.46831 14.4066 6.54242 14.4798L9.89442 17.8318C10.2064 18.1438 10.7104 18.1438 11.0224 17.8318L19.5024 9.35981C19.5765 9.28659 19.6354 9.19939 19.6755 9.10326C19.7157 9.00713 19.7364 8.90399 19.7364 8.79981C19.7364 8.69563 19.7157 8.59249 19.6755 8.49636C19.6354 8.40023 19.5765 8.31303 19.5024 8.23981C19.4292 8.1657 19.342 8.10686 19.2459 8.0667C19.1497 8.02654 19.0466 8.00586 18.9424 8.00586C18.8382 8.00586 18.7351 8.02654 18.639 8.0667C18.5428 8.10686 18.4556 8.1657 18.3824 8.23981L10.4624 16.1598Z" fill="white"/>
</svg>
