<svg width="27" height="27" viewBox="0 0 27 27" fill="none" xmlns="http://www.w3.org/2000/svg">
<circle cx="13.2" cy="13.2" r="13.2" fill="#1C3388"/>
<path d="M10.3999 16.1598L7.59992 13.3598C7.52671 13.2857 7.4395 13.2269 7.34338 13.1867C7.24725 13.1465 7.1441 13.1259 7.03992 13.1259C6.93574 13.1259 6.8326 13.1465 6.73647 13.1867C6.64034 13.2269 6.55314 13.2857 6.47992 13.3598C6.40581 13.433 6.34697 13.5202 6.30681 13.6164C6.26665 13.7125 6.24597 13.8156 6.24597 13.9198C6.24597 14.024 6.26665 14.1271 6.30681 14.2233C6.34697 14.3194 6.40581 14.4066 6.47992 14.4798L9.83192 17.8318C10.1439 18.1438 10.6479 18.1438 10.9599 17.8318L19.4399 9.35981C19.514 9.28659 19.5729 9.19939 19.613 9.10326C19.6532 9.00713 19.6739 8.90399 19.6739 8.79981C19.6739 8.69563 19.6532 8.59249 19.613 8.49636C19.5729 8.40023 19.514 8.31303 19.4399 8.23981C19.3667 8.1657 19.2795 8.10686 19.1834 8.0667C19.0872 8.02654 18.9841 8.00586 18.8799 8.00586C18.7757 8.00586 18.6726 8.02654 18.5765 8.0667C18.4803 8.10686 18.3931 8.1657 18.3199 8.23981L10.3999 16.1598Z" fill="white"/>
</svg>
